<svg width="1440" height="183" viewBox="0 0 1440 183" fill="none" xmlns="http://www.w3.org/2000/svg">
<rect width="1440" height="183" fill="#3A75EA"/>
<rect width="1440" height="183" fill="white" fill-opacity="0.95"/>
<path d="M0 0H561L504.544 183H0V0Z" fill="#3A75EA"/>
<path d="M125.406 56.6562H113.57V57.8047C116.031 58.2266 116.711 59.1641 116.617 61.5078L115.773 84.4062C115.633 88.0391 115.164 88.9297 112.422 89.3516V90.5H121.305V89.3281C118.469 88.8594 118.047 88.0391 118.07 84.3828L118.164 60.5703L128.477 90.5H132.672L135.273 82.1797L142.398 60.8047L143.102 86.2578C143.148 88.3672 142.586 88.9531 139.984 89.3516V90.5H154.586V89.3516C151.891 88.9297 151.422 88.3438 151.352 86.1875L150.578 60.9688C150.531 58.8594 151.094 58.2266 153.695 57.8047V56.6562L141.555 56.6328L133.961 81.9922L125.406 56.6562ZM162.508 63.8281C164.688 63.8281 166.445 62.2344 166.445 60.125C166.445 57.9688 164.688 56.3984 162.508 56.3984C160.328 56.3984 158.57 57.9688 158.57 60.125C158.57 62.2344 160.328 63.8281 162.508 63.8281ZM166.797 66.8984L156.391 68.1641V69.2422L157.586 69.6172C158.898 70.0625 159.086 70.3906 159.086 71.9141V86.7734C159.086 88.4609 158.664 88.9531 156.391 89.3516V90.5H169.492V89.3516C167.219 88.9531 166.797 88.4609 166.797 86.7734V66.8984ZM187.094 57.5469C189.625 57.5469 191.172 55.8594 191.125 52.5781H189.812C189.789 53.9141 189.156 54.4297 187.984 54.4297C187.281 54.4297 186.555 54.2656 185.617 53.9375L184.773 53.6562C183.672 53.2812 182.594 53 181.445 53C178.938 53 177.344 54.7109 177.414 57.9688H178.703C178.727 56.6328 179.383 56.0938 180.555 56.0938C181.234 56.0938 181.961 56.2812 182.922 56.6094L183.766 56.8906C184.844 57.2656 185.945 57.5469 187.094 57.5469ZM177.414 65.0703L184.258 62.8203L191.125 65.0703V63.8984L184.703 58.8359H183.812L177.414 63.8984V65.0703ZM172.07 78.8984C172.07 86.3516 177.578 90.9688 184.562 90.9688C188.922 90.9688 192.484 89.3984 194.195 86.8203L194.172 85.6719C193 86.8672 191.031 87.7344 188.734 87.7344C183.977 87.7344 180.508 84.2891 179.875 78.1953H194.5C194.547 77.7969 194.617 77.1875 194.617 76.5781C194.617 70.7656 190.727 66.7578 184.234 66.7578C176.922 66.7578 172.07 71.7734 172.07 78.8984ZM179.781 76.1797C179.781 71.1406 181.398 68.3047 184.234 68.3047C186.719 68.3047 187.844 70.9766 187.844 75.1484C187.844 75.8281 187.844 76.3203 187.82 76.7656L179.805 76.8594C179.781 76.625 179.781 76.4141 179.781 76.1797ZM207.578 66.8984L197.219 68.1641V69.2422L198.414 69.6172C199.727 70.0625 199.914 70.3906 199.914 71.9141V86.7734C199.914 88.4609 199.492 88.9531 197.219 89.3516V90.5H209.969V89.3516C207.93 88.9766 207.625 88.5547 207.625 86.9141V72.1719C208.328 70.8594 209.805 69.9688 211.727 69.9688C214.375 69.9688 215.922 71.5391 215.922 74.6797V86.9141C215.922 88.5547 215.57 89 213.578 89.3516V90.5H226.328V89.3516C224.008 88.9531 223.609 88.4609 223.609 86.7734V74.2344C223.609 69.1719 220.398 66.7578 215.641 66.7578C211.656 66.7578 208.75 68.5859 207.578 71.2578V66.8984ZM269.219 66.4531C269.219 60.0547 263.711 56.6562 254.055 56.6562H239.242V57.8047C241.891 58.2969 242.406 58.8594 242.406 60.9688V86.1875C242.406 88.2969 241.891 88.8594 239.242 89.3516V90.5H254.148V89.3516C251.242 88.9297 250.727 88.1562 250.727 85.8359V76.8828H254.055C262.539 76.8828 269.219 73.3906 269.219 66.4531ZM260.453 66.8047C260.453 71.8438 257.734 75.2422 252.391 75.4766L250.727 75.5469V57.9922L252.391 58.0625C257.945 58.2969 260.453 61.8359 260.453 66.8047ZM282.016 55.3906L271.609 56.6562V57.7344L272.805 58.1328C274.117 58.5781 274.305 58.9062 274.305 60.4297V86.7734C274.305 88.4609 273.883 88.9531 271.609 89.3516V90.5H284.359V89.3516C282.32 88.9766 282.016 88.5547 282.016 86.9141V72.1719C282.719 70.8594 284.195 69.9688 286.117 69.9688C288.766 69.9688 290.312 71.5391 290.312 74.6797V86.9141C290.312 88.5547 289.961 89 287.969 89.3516V90.5H300.719V89.3516C298.398 88.9531 298 88.4609 298 86.7734V74.2344C298 69.1719 294.789 66.7578 290.031 66.7578C286.094 66.7578 283.211 68.5625 282.016 71.2109V55.3906ZM307.047 64.6719L316.469 56.0234V55.8594H308.688L305.594 64.6719H307.047ZM313.047 66.8984L302.641 68.1641V69.2422L303.836 69.6172C305.148 70.0625 305.336 70.3906 305.336 71.9141V86.7734C305.336 88.4609 304.914 88.9531 302.641 89.3516V90.5H315.742V89.3516C313.469 88.9531 313.047 88.4609 313.047 86.7734V66.8984ZM357.953 56.6562H328.703L328.398 65.8672H329.5C330.695 60.2188 332.688 58.6016 338.125 58.0859L339.18 57.9922V85.8359C339.18 88.1562 338.664 88.9297 335.781 89.3516V90.5H350.922V89.3516C348.016 88.9297 347.5 88.1562 347.5 85.8359V57.9922L348.555 58.0859C354.039 58.625 355.984 60.2891 357.18 65.8672H358.281L357.953 56.6562ZM366.344 66.8984L355.82 68.1641V69.2422L357.039 69.6172C358.422 70.0859 358.633 70.3906 358.633 71.9141V83.4219C358.633 88.5312 361.773 90.9688 366.367 90.9688C370.328 90.9688 373.164 89.1406 374.359 86.4688V90.7812L384.906 89.6328V88.5781L383.594 88.1797C382.211 87.7344 382.023 87.4062 382.023 85.8828V68.1641C382.398 68.2109 382.82 68.2578 383.289 68.2578C385.867 68.2578 387.906 66.9688 387.93 64.5312C387.93 62.2344 385.961 60.0312 382.867 59.0938H381.719C382.211 59.6562 382.633 60.875 382.633 62.2344C382.633 65.3047 380.406 67.3203 374.312 67.9062L371.5 68.1641V69.2422L372.742 69.6172C374.102 70.0859 374.312 70.3906 374.312 71.9141V85.5781C373.609 86.8438 372.227 87.7344 370.398 87.7344C367.773 87.7344 366.344 86.1641 366.344 83V66.8984ZM403.211 62.8906L412.891 90.5H418.469L428.031 63.7344C429.672 59.0938 430.445 58.25 432.883 57.8047V56.6562H423.508V57.8047C426.719 58.2969 427.141 59.3047 425.781 63.6406L419.148 84.3125L412.117 63.1016C410.875 59.2578 411.461 58.25 414.438 57.8047V56.6562H398.688V57.8047C401.055 58.2266 401.875 59.1406 403.211 62.8906ZM449.172 55.8594V51.8047L435.461 57.0547V58.2031L449.172 55.8594ZM435.461 65.0703L442.305 62.8203L449.172 65.0703V63.8984L442.773 58.8359H441.859L435.461 63.8984V65.0703ZM438.18 90.9688C442.023 90.9688 445.047 89.375 445.961 86.9844C446.406 89.5391 448.914 90.8516 451.727 90.8516C453.766 90.8516 455.547 90.3125 456.508 89.6328V88.5547C456.273 88.625 455.945 88.6719 455.594 88.6719C454.305 88.6719 453.344 87.8516 453.344 85.9062V74.6797C453.344 69.1953 449.383 66.7578 442.773 66.7578C436.305 66.7578 432.297 69.3828 432.297 72.6172C432.297 74.4922 433.82 75.875 435.742 75.875C437.688 75.875 439.211 74.4219 439.211 72.5469C439.211 70.9297 438.086 69.6406 436.609 69.3359C437.641 68.8672 438.836 68.6094 440.125 68.6094C443.734 68.6094 445.82 70.2734 445.82 74.5625V77.0234L441.227 77.9609C434.055 79.3906 431.359 81.7812 431.359 85.2969C431.359 88.6953 434.148 90.9688 438.18 90.9688ZM438.93 84.1016C438.93 81.4062 440.289 79.625 444.18 78.7109L445.82 78.3359V86.0703C445.188 87.3359 443.945 88.0391 442.328 88.0391C440.406 88.0391 438.93 86.6562 438.93 84.1016ZM468.297 66.8984L457.938 68.1641V69.2422L459.133 69.6172C460.445 70.0625 460.633 70.3906 460.633 71.9141V86.7734C460.633 88.4609 460.211 88.9531 457.938 89.3516V90.5H470.688V89.3516C468.648 88.9766 468.344 88.5547 468.344 86.9141V72.1719C469.047 70.8594 470.523 69.9688 472.445 69.9688C475.094 69.9688 476.641 71.5391 476.641 74.6797V86.9141C476.641 88.5547 476.289 89 474.297 89.3516V90.5H487.047V89.3516C484.727 88.9531 484.328 88.4609 484.328 86.7734V74.2344C484.328 69.1719 481.117 66.7578 476.359 66.7578C472.375 66.7578 469.469 68.5859 468.297 71.2578V66.8984Z" fill="#FCFCFD"/>
<path d="M112.36 115.5V117.26H116.48V129.5H118.32V117.26H122.46V115.5H112.36ZM129.131 119.24C127.671 119.24 126.591 119.8 125.891 120.94V115.5H124.151V129.5H125.891V124.2C125.891 121.96 127.051 120.9 128.791 120.9C130.331 120.9 131.271 121.84 131.271 123.46V129.5H133.011V123.36C133.011 120.82 131.471 119.24 129.131 119.24ZM136.35 118.26C136.99 118.26 137.51 117.74 137.51 117.1C137.51 116.46 136.99 115.92 136.35 115.92C135.69 115.92 135.17 116.46 135.17 117.1C135.17 117.74 135.69 118.26 136.35 118.26ZM137.21 129.5V119.5H135.47V129.5H137.21ZM151.684 129.76C152.964 129.76 154.144 129.46 155.224 128.84C156.304 128.22 157.144 127.38 157.724 126.34L156.104 125.42C155.304 126.94 153.604 127.94 151.684 127.94C150.064 127.94 148.744 127.42 147.724 126.38C146.704 125.34 146.204 124.04 146.204 122.5C146.204 120.94 146.704 119.64 147.724 118.6C148.744 117.56 150.064 117.04 151.684 117.04C153.604 117.04 155.304 118.04 156.104 119.58L157.724 118.64C156.524 116.56 154.244 115.24 151.684 115.24C149.564 115.24 147.804 115.94 146.424 117.34C145.044 118.74 144.364 120.46 144.364 122.5C144.364 124.54 145.044 126.26 146.424 127.66C147.804 129.06 149.564 129.76 151.684 129.76ZM165.64 118.14H167.5L165.38 115.44H163.46L161.34 118.14H163.2L164.42 116.52L165.64 118.14ZM160.7 120.76C159.68 121.78 159.18 123.02 159.18 124.5C159.18 125.98 159.68 127.22 160.7 128.24C161.72 129.26 162.98 129.76 164.44 129.76C165.9 129.76 167.16 129.26 168.18 128.24C169.2 127.22 169.72 125.98 169.72 124.5C169.72 123.02 169.2 121.78 168.18 120.76C167.16 119.74 165.9 119.24 164.44 119.24C162.98 119.24 161.72 119.74 160.7 120.76ZM164.44 128.06C163.46 128.06 162.62 127.72 161.94 127.04C161.26 126.36 160.92 125.52 160.92 124.5C160.92 123.48 161.26 122.64 161.94 121.96C162.62 121.28 163.46 120.94 164.44 120.94C165.44 120.94 166.28 121.28 166.96 121.96C167.64 122.64 167.98 123.48 167.98 124.5C167.98 125.52 167.64 126.36 166.96 127.04C166.28 127.72 165.44 128.06 164.44 128.06ZM176.781 119.24C175.321 119.24 174.241 119.8 173.541 120.94V119.5H171.801V129.5H173.541V124.2C173.541 121.96 174.701 120.9 176.441 120.9C177.981 120.9 178.921 121.84 178.921 123.46V129.5H180.661V123.36C180.661 120.82 179.121 119.24 176.781 119.24ZM191.42 121.22C190.56 119.9 189.3 119.24 187.66 119.24C186.24 119.24 185.02 119.74 184.04 120.76C183.06 121.76 182.56 122.98 182.56 124.44C182.56 125.9 183.06 127.12 184.04 128.14C185.02 129.16 186.24 129.66 187.66 129.66C189.28 129.66 190.54 129 191.42 127.66V129.08C191.42 130.98 190.16 132.14 188.08 132.14C186.46 132.14 185.36 131.58 184.82 130.46L183.3 131.32C184.12 132.9 185.8 133.76 188.04 133.76C189.44 133.76 190.64 133.34 191.64 132.52C192.64 131.7 193.14 130.56 193.14 129.08V119.5H191.42V121.22ZM191.42 124.44C191.42 125.46 191.08 126.3 190.4 126.98C189.72 127.66 188.88 128 187.86 128C186.84 128 186 127.66 185.32 126.98C184.64 126.3 184.3 125.46 184.3 124.44C184.3 123.44 184.64 122.6 185.32 121.92C186 121.24 186.84 120.9 187.86 120.9C188.88 120.9 189.72 121.24 190.4 121.92C191.08 122.6 191.42 123.44 191.42 124.44ZM210.436 126.94C210.976 126.06 211.336 125.06 211.516 123.96L209.916 123.04C209.776 124.04 209.536 124.88 209.196 125.58L205.376 121.5C204.556 120.62 204.136 120 204.136 119.12C204.136 117.9 205.156 117.04 206.436 117.04C207.636 117.04 208.616 117.78 209.016 119L210.576 118.1C209.916 116.32 208.256 115.24 206.396 115.24C205.256 115.24 204.296 115.6 203.476 116.32C202.676 117.04 202.276 117.98 202.276 119.14C202.276 120.08 202.576 120.92 203.176 121.68C201.496 122.5 200.616 124.02 200.616 125.72C200.616 126.96 201.056 127.94 201.916 128.68C202.776 129.4 203.916 129.76 205.316 129.76C206.936 129.76 208.276 129.28 209.316 128.3L210.736 129.82L212.296 128.92L210.436 126.94ZM205.356 128C203.536 128 202.476 127.1 202.476 125.6C202.476 124.54 203.056 123.5 204.336 122.96L208.116 127.02C207.376 127.68 206.456 128 205.356 128ZM218.178 115.5V117.26H222.298V129.5H224.138V117.26H228.278V115.5H218.178ZM234.949 119.24C233.489 119.24 232.409 119.8 231.709 120.94V115.5H229.969V129.5H231.709V124.2C231.709 121.96 232.869 120.9 234.609 120.9C236.149 120.9 237.089 121.84 237.089 123.46V129.5H238.829V123.36C238.829 120.82 237.289 119.24 234.949 119.24ZM242.168 118.26C242.808 118.26 243.328 117.74 243.328 117.1C243.328 116.46 242.808 115.92 242.168 115.92C241.508 115.92 240.988 116.46 240.988 117.1C240.988 117.74 241.508 118.26 242.168 118.26ZM243.028 129.5V119.5H241.288V129.5H243.028ZM251.573 118.18H253.313L251.333 115.66H249.553L247.573 118.18H249.313L250.453 116.66L251.573 118.18ZM255.313 125.3C255.353 125.04 255.373 124.78 255.373 124.52C255.373 123.06 254.913 121.82 253.973 120.8C253.053 119.76 251.853 119.24 250.393 119.24C248.853 119.24 247.593 119.74 246.613 120.74C245.633 121.74 245.153 123 245.153 124.5C245.153 126.02 245.653 127.28 246.633 128.28C247.633 129.26 248.933 129.76 250.513 129.76C252.473 129.76 253.933 129 254.913 127.5L253.433 126.66C252.833 127.64 251.873 128.12 250.553 128.12C248.653 128.12 247.273 127.08 246.933 125.3H255.313ZM250.393 120.88C251.993 120.88 253.313 121.88 253.613 123.78H246.933C247.233 122.02 248.533 120.88 250.393 120.88ZM252.453 116.34H254.013L255.913 113.88H253.933L252.453 116.34ZM262.843 119.5H260.183V116.7L258.443 117.22V119.5H256.463V121.18H258.443V126.6C258.443 129.08 259.803 129.9 262.843 129.5V127.94C261.063 128.02 260.183 128.14 260.183 126.6V121.18H262.843V119.5ZM274.001 122.3L280.181 115.5H277.901L272.061 121.82V115.5H270.201V129.5H272.061V122.78L278.101 129.5H280.381L274.001 122.3ZM287.747 118.18H289.487L287.507 115.66H285.727L283.747 118.18H285.487L286.627 116.66L287.747 118.18ZM291.487 125.3C291.527 125.04 291.547 124.78 291.547 124.52C291.547 123.06 291.087 121.82 290.147 120.8C289.227 119.76 288.027 119.24 286.567 119.24C285.027 119.24 283.767 119.74 282.787 120.74C281.807 121.74 281.327 123 281.327 124.5C281.327 126.02 281.827 127.28 282.807 128.28C283.807 129.26 285.107 129.76 286.687 129.76C288.647 129.76 290.107 129 291.087 127.5L289.607 126.66C289.007 127.64 288.047 128.12 286.727 128.12C284.827 128.12 283.447 127.08 283.107 125.3H291.487ZM286.567 120.88C288.167 120.88 289.487 121.88 289.787 123.78H283.107C283.407 122.02 284.707 120.88 286.567 120.88ZM288.627 116.34H290.187L292.087 113.88H290.107L288.627 116.34ZM303.968 129.5L307.288 118.32L310.608 129.5H312.768L316.788 115.5H314.828L311.628 127.02L308.228 115.5H306.348L302.948 127.02L299.748 115.5H297.788L301.808 129.5H303.968ZM327.046 125.3C327.086 125.04 327.106 124.78 327.106 124.52C327.106 123.06 326.646 121.82 325.706 120.8C324.786 119.76 323.586 119.24 322.126 119.24C320.586 119.24 319.326 119.74 318.346 120.74C317.366 121.74 316.886 123 316.886 124.5C316.886 126.02 317.386 127.28 318.366 128.28C319.366 129.26 320.666 129.76 322.246 129.76C324.206 129.76 325.666 129 326.646 127.5L325.166 126.66C324.566 127.64 323.606 128.12 322.286 128.12C320.386 128.12 319.006 127.08 318.666 125.3H327.046ZM322.126 120.88C323.726 120.88 325.046 121.88 325.346 123.78H318.666C318.966 122.02 320.266 120.88 322.126 120.88ZM334.656 119.24C332.996 119.24 331.736 119.9 330.876 121.22V115.5H329.136V129.5H330.876V127.78C331.736 129.1 332.996 129.76 334.656 129.76C336.056 129.76 337.256 129.26 338.236 128.24C339.216 127.22 339.716 125.96 339.716 124.5C339.716 123.04 339.216 121.8 338.236 120.78C337.256 119.76 336.056 119.24 334.656 119.24ZM334.436 128.08C333.416 128.08 332.576 127.74 331.896 127.06C331.216 126.36 330.876 125.52 330.876 124.5C330.876 123.48 331.216 122.64 331.896 121.96C332.576 121.26 333.416 120.92 334.436 120.92C335.436 120.92 336.276 121.26 336.956 121.96C337.636 122.64 337.976 123.48 337.976 124.5C337.976 125.52 337.636 126.36 336.956 127.06C336.276 127.74 335.436 128.08 334.436 128.08ZM350.303 113.5H349.263L341.263 131.5H342.303L350.303 113.5ZM363.799 129.5L358.579 115.5H356.479L351.259 129.5H353.239L354.379 126.36H360.679L361.819 129.5H363.799ZM357.519 117.72L360.039 124.62H355.019L357.519 117.72ZM370.82 119.24C369.16 119.24 367.9 119.9 367.04 121.22V119.5H365.3V133.5H367.04V127.78C367.9 129.1 369.16 129.76 370.82 129.76C372.22 129.76 373.42 129.26 374.4 128.24C375.38 127.22 375.88 125.96 375.88 124.5C375.88 123.04 375.38 121.8 374.4 120.78C373.42 119.76 372.22 119.24 370.82 119.24ZM370.6 128.08C369.58 128.08 368.74 127.74 368.06 127.06C367.38 126.36 367.04 125.52 367.04 124.5C367.04 123.48 367.38 122.64 368.06 121.96C368.74 121.26 369.58 120.92 370.6 120.92C371.6 120.92 372.44 121.26 373.12 121.96C373.8 122.64 374.14 123.48 374.14 124.5C374.14 125.52 373.8 126.36 373.12 127.06C372.44 127.74 371.6 128.08 370.6 128.08ZM383.507 119.24C381.847 119.24 380.587 119.9 379.727 121.22V119.5H377.987V133.5H379.727V127.78C380.587 129.1 381.847 129.76 383.507 129.76C384.907 129.76 386.107 129.26 387.087 128.24C388.067 127.22 388.567 125.96 388.567 124.5C388.567 123.04 388.067 121.8 387.087 120.78C386.107 119.76 384.907 119.24 383.507 119.24ZM383.287 128.08C382.267 128.08 381.427 127.74 380.747 127.06C380.067 126.36 379.727 125.52 379.727 124.5C379.727 123.48 380.067 122.64 380.747 121.96C381.427 121.26 382.267 120.92 383.287 120.92C384.287 120.92 385.127 121.26 385.807 121.96C386.487 122.64 386.827 123.48 386.827 124.5C386.827 125.52 386.487 126.36 385.807 127.06C385.127 127.74 384.287 128.08 383.287 128.08Z" fill="#FCFCFD"/>
<path d="M585.724 83.2988C588.422 83.2988 590.426 81.7959 590.848 79.4756V79.458H589.248L589.23 79.4756C588.835 80.9346 587.49 81.8398 585.724 81.8398C583.28 81.8398 581.751 79.8447 581.751 76.6719V76.6543C581.751 73.4814 583.28 71.4775 585.715 71.4775C587.464 71.4775 588.817 72.5059 589.239 74.1318L589.248 74.1494H590.839L590.848 74.1318C590.47 71.6973 588.387 70.0186 585.715 70.0186C582.27 70.0186 580.125 72.5674 580.125 76.6543V76.6719C580.125 80.75 582.278 83.2988 585.724 83.2988ZM593.306 83H594.836V77.3926C594.836 75.7314 595.794 74.7119 597.306 74.7119C598.817 74.7119 599.52 75.5293 599.52 77.2344V83H601.05V76.8652C601.05 74.6152 599.863 73.3584 597.736 73.3584C596.339 73.3584 595.451 73.9473 594.976 74.9492H594.836V69.7637H593.306V83ZM606.901 83.167C608.29 83.167 609.248 82.5957 609.714 81.585H609.854V83H611.383V74.3516C613.22 73.9561 613.844 73.1211 613.844 70.8711H612.421C612.421 72.5938 612.051 73.4199 609.854 73.5254V79.1328C609.854 80.7939 608.966 81.8135 607.297 81.8135C605.785 81.8135 605.17 80.9961 605.17 79.291V73.5254H603.64V79.6602C603.64 81.9014 604.748 83.167 606.901 83.167ZM616.98 83.167C618.254 83.167 619.248 82.6133 619.845 81.6025H619.986V83H621.515V76.5137C621.515 74.5449 620.223 73.3584 617.912 73.3584C615.89 73.3584 614.449 74.3604 614.203 75.8457L614.194 75.8984H615.723L615.732 75.8721C615.978 75.1338 616.725 74.7119 617.859 74.7119C619.274 74.7119 619.986 75.3447 619.986 76.5137V77.375L617.27 77.542C615.064 77.6738 613.816 78.6494 613.816 80.3369V80.3545C613.816 82.0771 615.178 83.167 616.98 83.167ZM615.38 80.3193V80.3018C615.38 79.3613 616.013 78.8516 617.455 78.7637L619.986 78.6055V79.4668C619.986 80.8203 618.852 81.8398 617.296 81.8398C616.198 81.8398 615.38 81.2773 615.38 80.3193ZM633.069 83.167C635.345 83.167 636.619 81.9453 637.006 80.2314L637.024 80.1348L635.512 80.1436L635.494 80.1963C635.143 81.251 634.334 81.8135 633.06 81.8135C631.372 81.8135 630.282 80.416 630.282 78.2363V78.2188C630.282 76.083 631.355 74.7119 633.06 74.7119C634.422 74.7119 635.266 75.4678 635.503 76.3994L635.512 76.4258H637.032L637.024 76.373C636.742 74.6855 635.362 73.3584 633.06 73.3584C630.405 73.3584 628.718 75.2744 628.718 78.2188V78.2363C628.718 81.2422 630.414 83.167 633.069 83.167ZM643.648 72.207L645.679 69.2188H643.868L642.313 72.207H643.648ZM643.068 83.167C645.767 83.167 647.437 81.3037 647.437 78.2715V78.2539C647.437 75.2129 645.767 73.3584 643.068 73.3584C640.37 73.3584 638.7 75.2129 638.7 78.2539V78.2715C638.7 81.3037 640.37 83.167 643.068 83.167ZM643.068 81.8135C641.275 81.8135 640.265 80.5039 640.265 78.2715V78.2539C640.265 76.0127 641.275 74.7119 643.068 74.7119C644.861 74.7119 645.872 76.0127 645.872 78.2539V78.2715C645.872 80.5039 644.861 81.8135 643.068 81.8135ZM658.568 83.167C660.844 83.167 662.119 81.9453 662.506 80.2314L662.523 80.1348L661.011 80.1436L660.994 80.1963C660.642 81.251 659.834 81.8135 658.559 81.8135C656.872 81.8135 655.782 80.416 655.782 78.2363V78.2188C655.782 76.083 656.854 74.7119 658.559 74.7119C659.922 74.7119 660.765 75.4678 661.003 76.3994L661.011 76.4258H662.532L662.523 76.373C662.242 74.6855 660.862 73.3584 658.559 73.3584C655.905 73.3584 654.217 75.2744 654.217 78.2188V78.2363C654.217 81.2422 655.914 83.167 658.568 83.167ZM668.788 72.207L670.818 69.2188H669.007L667.452 72.207H668.788ZM667.276 83.167C668.55 83.167 669.544 82.6133 670.141 81.6025H670.282V83H671.811V76.5137C671.811 74.5449 670.519 73.3584 668.208 73.3584C666.186 73.3584 664.745 74.3604 664.499 75.8457L664.49 75.8984H666.019L666.028 75.8721C666.274 75.1338 667.021 74.7119 668.155 74.7119C669.57 74.7119 670.282 75.3447 670.282 76.5137V77.375L667.566 77.542C665.36 77.6738 664.112 78.6494 664.112 80.3369V80.3545C664.112 82.0771 665.474 83.167 667.276 83.167ZM665.676 80.3193V80.3018C665.676 79.3613 666.309 78.8516 667.751 78.7637L670.282 78.6055V79.4668C670.282 80.8203 669.148 81.8398 667.592 81.8398C666.494 81.8398 665.676 81.2773 665.676 80.3193ZM675.325 71.6973C675.905 71.6973 676.379 71.2227 676.379 70.6426C676.379 70.0625 675.905 69.5879 675.325 69.5879C674.745 69.5879 674.27 70.0625 674.27 70.6426C674.27 71.2227 674.745 71.6973 675.325 71.6973ZM674.551 83H676.08V73.5254H674.551V83ZM683.846 83H685.375V77.3926C685.375 75.7314 686.333 74.7119 687.845 74.7119C689.357 74.7119 690.06 75.5293 690.06 77.2344V83H691.589V76.8652C691.589 74.6152 690.402 73.3584 688.275 73.3584C686.878 73.3584 685.99 73.9473 685.516 74.9492H685.375V73.5254H683.846V83ZM694.355 83H695.885V77.3926C695.885 75.7314 696.843 74.7119 698.354 74.7119C699.866 74.7119 700.569 75.5293 700.569 77.2344V83H702.099V76.8652C702.099 74.6152 700.912 73.3584 698.785 73.3584C697.388 73.3584 696.5 73.9473 696.025 74.9492H695.885V69.7637H694.355V83ZM705.006 72.207H706.342L704.786 69.2188H702.975L705.006 72.207ZM704.812 83H706.342V73.5254H704.812V83ZM709.134 83H710.664V77.3926C710.664 75.7314 711.622 74.7119 713.133 74.7119C714.645 74.7119 715.348 75.5293 715.348 77.2344V83H716.878V76.8652C716.878 74.6152 715.691 73.3584 713.564 73.3584C712.167 73.3584 711.279 73.9473 710.804 74.9492H710.664V73.5254H709.134V83ZM727.895 83.0703C728.194 83.0703 728.484 83.0352 728.783 82.9824V81.6816C728.501 81.708 728.352 81.7168 728.079 81.7168C727.095 81.7168 726.708 81.2686 726.708 80.1523V74.791H728.783V73.5254H726.708V71.0732H725.126V73.5254H723.632V74.791H725.126V80.5391C725.126 82.3496 725.944 83.0703 727.895 83.0703ZM736.286 69.0869H737.482C738.123 68.6562 738.396 68.2783 738.396 67.7773C738.396 66.9688 737.587 66.3271 736.568 66.3271C736.058 66.3271 735.539 66.415 735.372 66.5029V67.4609C735.548 67.4258 735.785 67.3906 736.172 67.3906C736.734 67.3906 737.156 67.6016 737.156 67.9971C737.156 68.2871 736.893 68.5771 736.286 68.9902V69.0869ZM731.777 72.4443H733.201L734.731 70.5986L736.26 72.4443H737.684L735.495 69.8076H733.966L731.777 72.4443ZM734.731 83.167C737.429 83.167 739.099 81.3037 739.099 78.2715V78.2539C739.099 75.2129 737.429 73.3584 734.731 73.3584C732.032 73.3584 730.362 75.2129 730.362 78.2539V78.2715C730.362 81.3037 732.032 83.167 734.731 83.167ZM734.731 81.8135C732.938 81.8135 731.927 80.5039 731.927 78.2715V78.2539C731.927 76.0127 732.938 74.7119 734.731 74.7119C736.524 74.7119 737.534 76.0127 737.534 78.2539V78.2715C737.534 80.5039 736.524 81.8135 734.731 81.8135ZM741.382 83H742.911V77.3926C742.911 75.7314 743.869 74.7119 745.381 74.7119C746.893 74.7119 747.596 75.5293 747.596 77.2344V83H749.125V76.8652C749.125 74.6152 747.938 73.3584 745.811 73.3584C744.414 73.3584 743.526 73.9473 743.052 74.9492H742.911V73.5254H741.382V83ZM755.706 86.3398C758.29 86.3398 759.925 84.9863 759.925 82.8682V73.5254H758.395V75.0898H758.29C757.71 74.0176 756.673 73.3584 755.337 73.3584C752.858 73.3584 751.329 75.2832 751.329 77.9375V77.9551C751.329 80.6094 752.849 82.5078 755.302 82.5078C756.602 82.5078 757.675 81.9189 758.272 80.873H758.413V82.7891C758.413 84.1865 757.402 84.9863 755.706 84.9863C754.344 84.9863 753.5 84.4766 753.333 83.7559L753.324 83.7471H751.742L751.724 83.7559C751.962 85.3115 753.421 86.3398 755.706 86.3398ZM755.636 81.1543C753.878 81.1543 752.893 79.8359 752.893 77.9551V77.9375C752.893 76.0566 753.878 74.7119 755.636 74.7119C757.385 74.7119 758.448 76.0566 758.448 77.9375V77.9551C758.448 79.8359 757.393 81.1543 755.636 81.1543ZM771.021 83.0703C771.32 83.0703 771.61 83.0352 771.909 82.9824V81.6816C771.627 81.708 771.478 81.7168 771.206 81.7168C770.221 81.7168 769.834 81.2686 769.834 80.1523V74.791H771.909V73.5254H769.834V71.0732H768.252V73.5254H766.758V74.791H768.252V80.5391C768.252 82.3496 769.07 83.0703 771.021 83.0703ZM774.192 83H775.721V77.3926C775.721 75.7314 776.679 74.7119 778.191 74.7119C779.702 74.7119 780.406 75.5293 780.406 77.2344V83H781.935V76.8652C781.935 74.6152 780.748 73.3584 778.621 73.3584C777.224 73.3584 776.336 73.9473 775.862 74.9492H775.721V69.7637H774.192V83ZM789.966 69.0869H791.161C791.803 68.6562 792.075 68.2783 792.075 67.7773C792.075 66.9688 791.267 66.3271 790.247 66.3271C789.737 66.3271 789.219 66.415 789.052 66.5029V67.4609C789.228 67.4258 789.465 67.3906 789.852 67.3906C790.414 67.3906 790.836 67.6016 790.836 67.9971C790.836 68.2871 790.572 68.5771 789.966 68.9902V69.0869ZM785.457 72.4443H786.881L788.41 70.5986L789.94 72.4443H791.363L789.175 69.8076H787.646L785.457 72.4443ZM788.481 83.167C790.713 83.167 792.067 81.9014 792.392 80.6182L792.409 80.5479H790.88L790.845 80.627C790.59 81.1982 789.799 81.8047 788.516 81.8047C786.828 81.8047 785.747 80.6621 785.703 78.7021H792.524V78.1045C792.524 75.2744 790.959 73.3584 788.384 73.3584C785.809 73.3584 784.139 75.3623 784.139 78.2891V78.2979C784.139 81.2686 785.774 83.167 788.481 83.167ZM788.375 74.7207C789.773 74.7207 790.81 75.6084 790.968 77.4805H785.73C785.897 75.6787 786.969 74.7207 788.375 74.7207ZM803.655 83.167C805.931 83.167 807.206 81.9453 807.593 80.2314L807.61 80.1348L806.098 80.1436L806.081 80.1963C805.729 81.251 804.921 81.8135 803.646 81.8135C801.959 81.8135 800.869 80.416 800.869 78.2363V78.2188C800.869 76.083 801.941 74.7119 803.646 74.7119C805.009 74.7119 805.852 75.4678 806.09 76.3994L806.098 76.4258H807.619L807.61 76.373C807.329 74.6855 805.949 73.3584 803.646 73.3584C800.992 73.3584 799.305 75.2744 799.305 78.2188V78.2363C799.305 81.2422 801.001 83.167 803.655 83.167ZM809.849 83H811.379V77.3926C811.379 75.7314 812.337 74.7119 813.848 74.7119C815.36 74.7119 816.063 75.5293 816.063 77.2344V83H817.592V76.8652C817.592 74.6152 816.406 73.3584 814.279 73.3584C812.882 73.3584 811.994 73.9473 811.519 74.9492H811.379V69.7637H809.849V83ZM824.165 83.167C826.863 83.167 828.533 81.3037 828.533 78.2715V78.2539C828.533 75.2129 826.863 73.3584 824.165 73.3584C821.466 73.3584 819.796 75.2129 819.796 78.2539V78.2715C819.796 81.3037 821.466 83.167 824.165 83.167ZM824.165 81.8135C822.372 81.8135 821.361 80.5039 821.361 78.2715V78.2539C821.361 76.0127 822.372 74.7119 824.165 74.7119C825.958 74.7119 826.968 76.0127 826.968 78.2539V78.2715C826.968 80.5039 825.958 81.8135 824.165 81.8135ZM839.286 83.167C840.605 83.167 841.659 82.543 842.239 81.4883H842.38V83H843.909V69.7637H842.38V75.0195H842.239C841.721 74.0088 840.587 73.3584 839.286 73.3584C836.878 73.3584 835.314 75.2832 835.314 78.2539V78.2715C835.314 81.2246 836.887 83.167 839.286 83.167ZM839.638 81.8135C837.906 81.8135 836.878 80.4775 836.878 78.2715V78.2539C836.878 76.0479 837.906 74.7119 839.638 74.7119C841.361 74.7119 842.415 76.0654 842.415 78.2539V78.2715C842.415 80.46 841.361 81.8135 839.638 81.8135ZM849.928 83.167C851.316 83.167 852.274 82.5957 852.74 81.585H852.881V83H854.41V74.3516C856.247 73.9561 856.871 73.1211 856.871 70.8711H855.447C855.447 72.5938 855.078 73.4199 852.881 73.5254V79.1328C852.881 80.7939 851.993 81.8135 850.323 81.8135C848.812 81.8135 848.196 80.9961 848.196 79.291V73.5254H846.667V79.6602C846.667 81.9014 847.774 83.167 849.928 83.167ZM850.534 86.9375C851.114 86.9375 851.589 86.4629 851.589 85.8828C851.589 85.3027 851.114 84.8281 850.534 84.8281C849.954 84.8281 849.48 85.3027 849.48 85.8828C849.48 86.4629 849.954 86.9375 850.534 86.9375ZM866.755 72.207L868.785 69.2188H866.974L865.419 72.207H866.755ZM865.243 83.167C866.517 83.167 867.51 82.6133 868.108 81.6025H868.249V83H869.778V76.5137C869.778 74.5449 868.486 73.3584 866.175 73.3584C864.153 73.3584 862.712 74.3604 862.466 75.8457L862.457 75.8984H863.986L863.995 75.8721C864.241 75.1338 864.988 74.7119 866.122 74.7119C867.537 74.7119 868.249 75.3447 868.249 76.5137V77.375L865.533 77.542C863.327 77.6738 862.079 78.6494 862.079 80.3369V80.3545C862.079 82.0771 863.441 83.167 865.243 83.167ZM863.643 80.3193V80.3018C863.643 79.3613 864.276 78.8516 865.717 78.7637L868.249 78.6055V79.4668C868.249 80.8203 867.115 81.8398 865.559 81.8398C864.461 81.8398 863.643 81.2773 863.643 80.3193ZM872.483 83H874.012V77.3926C874.012 75.7314 874.97 74.7119 876.482 74.7119C877.994 74.7119 878.697 75.5293 878.697 77.2344V83H880.226V76.8652C880.226 74.6152 879.04 73.3584 876.913 73.3584C875.515 73.3584 874.628 73.9473 874.153 74.9492H874.012V73.5254H872.483V83ZM889.907 79.0801H891.446V78.5088C891.446 77.5859 891.762 77.0938 892.878 76.4346C894.003 75.7578 894.715 74.7822 894.715 73.4111V73.3936C894.715 71.5918 893.203 70.2207 890.989 70.2207C888.519 70.2207 887.253 71.7324 887.156 73.6221V73.6396L888.651 73.6309L888.668 73.6221C888.756 72.374 889.6 71.5918 890.927 71.5918C892.237 71.5918 893.08 72.3916 893.08 73.4727V73.4902C893.08 74.4219 892.685 74.9756 891.665 75.5996C890.461 76.3203 889.899 77.1113 889.907 78.2715V79.0801ZM890.795 83.1582C891.507 83.1582 892.008 82.6484 892.008 81.9365C892.008 81.2158 891.507 80.7061 890.795 80.7061C890.083 80.7061 889.573 81.2158 889.573 81.9365C889.573 82.6484 890.083 83.1582 890.795 83.1582ZM907.508 83.2988C908.36 83.2988 909.134 83.1582 909.828 82.877L910.953 84.4326H912.728L911.076 82.165C912.517 81.0312 913.326 79.1152 913.326 76.6631V76.6455C913.326 72.585 911.111 70.0186 907.508 70.0186C903.922 70.0186 901.689 72.5762 901.689 76.6455V76.6631C901.689 80.7148 903.869 83.2988 907.508 83.2988ZM907.508 81.8398C904.871 81.8398 903.307 79.8008 903.307 76.6631V76.6455C903.307 73.4814 904.924 71.4775 907.508 71.4775C910.1 71.4775 911.709 73.4814 911.709 76.6455V76.6631C911.709 78.5176 911.146 79.9941 910.153 80.8906L909.046 79.3701H907.27L908.905 81.6201C908.483 81.7607 908.009 81.8398 907.508 81.8398ZM918.958 83.167C920.346 83.167 921.304 82.5957 921.77 81.585H921.911V83H923.44V73.5254H921.911V79.1328C921.911 80.7939 921.023 81.8135 919.353 81.8135C917.842 81.8135 917.226 80.9961 917.226 79.291V73.5254H915.697V79.6602C915.697 81.9014 916.804 83.167 918.958 83.167ZM930.206 72.207L932.236 69.2188H930.425L928.87 72.207H930.206ZM927.015 86.3223C928.694 86.3223 929.476 85.707 930.258 83.5801L933.959 73.5254H932.35L929.757 81.3213H929.617L927.015 73.5254H925.38L928.887 83.0088L928.712 83.5713C928.369 84.6611 927.841 85.0566 926.971 85.0566C926.76 85.0566 926.523 85.0479 926.338 85.0127V86.2695C926.549 86.3047 926.813 86.3223 927.015 86.3223ZM940.95 83H942.48V79.4053L943.367 78.5439L946.918 83H948.843L944.44 77.5068L948.571 73.5254H946.716L942.62 77.665H942.48V69.7637H940.95V83ZM950.634 83H952.163V77.3926C952.163 75.7314 953.121 74.7119 954.633 74.7119C956.145 74.7119 956.848 75.5293 956.848 77.2344V83H958.377V76.8652C958.377 74.6152 957.191 73.3584 955.064 73.3584C953.666 73.3584 952.778 73.9473 952.304 74.9492H952.163V69.7637H950.634V83ZM965.169 72.207L967.199 69.2188H965.389L963.833 72.207H965.169ZM963.657 83.167C964.932 83.167 965.925 82.6133 966.522 81.6025H966.663V83H968.192V76.5137C968.192 74.5449 966.9 73.3584 964.589 73.3584C962.567 73.3584 961.126 74.3604 960.88 75.8457L960.871 75.8984H962.4L962.409 75.8721C962.655 75.1338 963.402 74.7119 964.536 74.7119C965.951 74.7119 966.663 75.3447 966.663 76.5137V77.375L963.947 77.542C961.741 77.6738 960.493 78.6494 960.493 80.3369V80.3545C960.493 82.0771 961.855 83.167 963.657 83.167ZM962.058 80.3193V80.3018C962.058 79.3613 962.69 78.8516 964.132 78.7637L966.663 78.6055V79.4668C966.663 80.8203 965.529 81.8398 963.974 81.8398C962.875 81.8398 962.058 81.2773 962.058 80.3193ZM974.773 83.167C977.05 83.167 978.324 81.9453 978.711 80.2314L978.728 80.1348L977.217 80.1436L977.199 80.1963C976.847 81.251 976.039 81.8135 974.764 81.8135C973.077 81.8135 971.987 80.416 971.987 78.2363V78.2188C971.987 76.083 973.059 74.7119 974.764 74.7119C976.127 74.7119 976.971 75.4678 977.208 76.3994L977.217 76.4258H978.737L978.728 76.373C978.447 74.6855 977.067 73.3584 974.764 73.3584C972.11 73.3584 970.423 75.2744 970.423 78.2188V78.2363C970.423 81.2422 972.119 83.167 974.773 83.167ZM980.967 83H982.497V77.3926C982.497 75.7314 983.455 74.7119 984.966 74.7119C986.478 74.7119 987.181 75.5293 987.181 77.2344V83H988.711V76.8652C988.711 74.6152 987.524 73.3584 985.397 73.3584C984 73.3584 983.112 73.9473 982.637 74.9492H982.497V69.7637H980.967V83ZM999.042 83H1000.59L1004.1 73.5254H1002.48L999.886 81.3301H999.745L997.153 73.5254H995.535L999.042 83ZM1009.2 83.167C1010.59 83.167 1011.55 82.5957 1012.01 81.585H1012.15V83H1013.68V73.5254H1012.15V79.1328C1012.15 80.7939 1011.27 81.8135 1009.6 81.8135C1008.08 81.8135 1007.47 80.9961 1007.47 79.291V73.5254H1005.94V79.6602C1005.94 81.9014 1007.05 83.167 1009.2 83.167ZM1017.26 71.6973C1017.84 71.6973 1018.31 71.2227 1018.31 70.6426C1018.31 70.0625 1017.84 69.5879 1017.26 69.5879C1016.68 69.5879 1016.2 70.0625 1016.2 70.6426C1016.2 71.2227 1016.68 71.6973 1017.26 71.6973ZM1016.48 83H1018.01V73.5254H1016.48V83ZM580.512 111H582.041V97.7637H580.512V111ZM588.2 100.207H589.536L587.98 97.2188H586.17L588.2 100.207ZM588.78 111.167C591.478 111.167 593.148 109.304 593.148 106.271V106.254C593.148 103.213 591.478 101.358 588.78 101.358C586.082 101.358 584.412 103.213 584.412 106.254V106.271C584.412 109.304 586.082 111.167 588.78 111.167ZM588.78 109.813C586.987 109.813 585.976 108.504 585.976 106.271V106.254C585.976 104.013 586.987 102.712 588.78 102.712C590.573 102.712 591.584 104.013 591.584 106.254V106.271C591.584 108.504 590.573 109.813 588.78 109.813ZM595.431 111H596.961V105.393C596.961 103.731 597.919 102.712 599.43 102.712C600.942 102.712 601.645 103.529 601.645 105.234V111H603.174V104.865C603.174 102.615 601.988 101.358 599.861 101.358C598.464 101.358 597.576 101.947 597.101 102.949H596.961V101.525H595.431V111ZM609.755 114.34C612.339 114.34 613.974 112.986 613.974 110.868V101.525H612.445V103.09H612.339C611.759 102.018 610.722 101.358 609.386 101.358C606.908 101.358 605.378 103.283 605.378 105.938V105.955C605.378 108.609 606.899 110.508 609.351 110.508C610.652 110.508 611.724 109.919 612.322 108.873H612.462V110.789C612.462 112.187 611.452 112.986 609.755 112.986C608.393 112.986 607.549 112.477 607.382 111.756L607.374 111.747H605.792L605.774 111.756C606.011 113.312 607.47 114.34 609.755 114.34ZM609.685 109.154C607.927 109.154 606.943 107.836 606.943 105.955V105.938C606.943 104.057 607.927 102.712 609.685 102.712C611.434 102.712 612.498 104.057 612.498 105.938V105.955C612.498 107.836 611.443 109.154 609.685 109.154ZM621.704 111H623.234V105.393C623.234 103.731 624.192 102.712 625.703 102.712C627.215 102.712 627.918 103.529 627.918 105.234V111H629.447V104.865C629.447 102.615 628.261 101.358 626.134 101.358C624.737 101.358 623.849 101.947 623.374 102.949H623.234V101.525H621.704V111ZM632.214 111H633.743V105.393C633.743 103.731 634.701 102.712 636.213 102.712C637.725 102.712 638.428 103.529 638.428 105.234V111H639.957V104.865C639.957 102.615 638.771 101.358 636.644 101.358C635.246 101.358 634.358 101.947 633.884 102.949H633.743V97.7637H632.214V111ZM645.536 97.0869H646.714L648.551 94.4502H646.951L645.536 97.0869ZM646.169 100.436C647.927 100.436 649.025 99.3984 649.025 97.9219V97.834H647.9V97.8779C647.9 98.6602 647.259 99.3457 646.169 99.3457C645.079 99.3457 644.437 98.6602 644.437 97.8779V97.834H643.312V97.9219C643.312 99.3984 644.411 100.436 646.169 100.436ZM645.237 111.167C646.512 111.167 647.505 110.613 648.102 109.603H648.243V111H649.772V104.514C649.772 102.545 648.48 101.358 646.169 101.358C644.147 101.358 642.706 102.36 642.46 103.846L642.451 103.898H643.98L643.989 103.872C644.235 103.134 644.982 102.712 646.116 102.712C647.531 102.712 648.243 103.345 648.243 104.514V105.375L645.527 105.542C643.321 105.674 642.073 106.649 642.073 108.337V108.354C642.073 110.077 643.435 111.167 645.237 111.167ZM643.638 108.319V108.302C643.638 107.361 644.27 106.852 645.712 106.764L648.243 106.605V107.467C648.243 108.82 647.109 109.84 645.554 109.84C644.455 109.84 643.638 109.277 643.638 108.319ZM652.477 111H654.007V105.393C654.007 103.731 654.965 102.712 656.476 102.712C657.988 102.712 658.691 103.529 658.691 105.234V111H660.22V104.865C660.22 102.615 659.034 101.358 656.907 101.358C655.509 101.358 654.622 101.947 654.147 102.949H654.007V101.525H652.477V111ZM671.238 111.07C671.537 111.07 671.827 111.035 672.125 110.982V109.682C671.844 109.708 671.695 109.717 671.422 109.717C670.438 109.717 670.051 109.269 670.051 108.152V102.791H672.125V101.525H670.051V99.0732H668.469V101.525H666.975V102.791H668.469V108.539C668.469 110.35 669.287 111.07 671.238 111.07ZM675.129 99.6973C675.709 99.6973 676.184 99.2227 676.184 98.6426C676.184 98.0625 675.709 97.5879 675.129 97.5879C674.549 97.5879 674.074 98.0625 674.074 98.6426C674.074 99.2227 674.549 99.6973 675.129 99.6973ZM674.356 111H675.885V101.525H674.356V111ZM678.678 111H680.207V105.393C680.207 103.731 681.165 102.712 682.677 102.712C684.189 102.712 684.892 103.529 684.892 105.234V111H686.421V104.865C686.421 102.615 685.234 101.358 683.107 101.358C681.71 101.358 680.822 101.947 680.348 102.949H680.207V101.525H678.678V111ZM696.753 111H698.3L701.806 101.525H700.189L697.596 109.33H697.456L694.863 101.525H693.246L696.753 111ZM707.034 100.207L709.064 97.2188H707.254L705.698 100.207H707.034ZM707.28 111.167C709.978 111.167 711.648 109.304 711.648 106.271V106.254C711.648 104.32 710.971 102.861 709.785 102.062C711.209 101.64 711.736 100.761 711.762 98.8711H710.338C710.312 100.488 709.881 101.279 707.28 101.358C704.582 101.358 702.912 103.213 702.912 106.254V106.271C702.912 109.304 704.582 111.167 707.28 111.167ZM707.28 109.813C705.487 109.813 704.476 108.504 704.476 106.271V106.254C704.476 104.013 705.487 102.712 707.28 102.712C709.073 102.712 710.084 104.013 710.084 106.254V106.271C710.084 108.504 709.073 109.813 707.28 109.813ZM714.74 99.6973C715.32 99.6973 715.794 99.2227 715.794 98.6426C715.794 98.0625 715.32 97.5879 714.74 97.5879C714.16 97.5879 713.685 98.0625 713.685 98.6426C713.685 99.2227 714.16 99.6973 714.74 99.6973ZM713.966 111H715.496V101.525H713.966V111ZM727.137 111.167C729.413 111.167 730.688 109.945 731.074 108.231L731.092 108.135L729.58 108.144L729.563 108.196C729.211 109.251 728.402 109.813 727.128 109.813C725.441 109.813 724.351 108.416 724.351 106.236V106.219C724.351 104.083 725.423 102.712 727.128 102.712C728.49 102.712 729.334 103.468 729.571 104.399L729.58 104.426H731.101L731.092 104.373C730.811 102.686 729.431 101.358 727.128 101.358C724.474 101.358 722.786 103.274 722.786 106.219V106.236C722.786 109.242 724.483 111.167 727.137 111.167ZM733.331 111H734.86V105.393C734.86 103.731 735.818 102.712 737.33 102.712C738.842 102.712 739.545 103.529 739.545 105.234V111H741.074V104.865C741.074 102.615 739.888 101.358 737.761 101.358C736.363 101.358 735.476 101.947 735.001 102.949H734.86V97.7637H733.331V111ZM748.112 100.207L750.142 97.2188H748.332L746.776 100.207H748.112ZM746.926 111.167C748.314 111.167 749.272 110.596 749.738 109.585H749.879V111H751.408V101.525H749.879V107.133C749.879 108.794 748.991 109.813 747.321 109.813C745.809 109.813 745.194 108.996 745.194 107.291V101.525H743.665V107.66C743.665 109.901 744.772 111.167 746.926 111.167ZM754.174 111H755.704V105.393C755.704 103.731 756.662 102.712 758.173 102.712C759.685 102.712 760.388 103.529 760.388 105.234V111H761.918V104.865C761.918 102.615 760.731 101.358 758.604 101.358C757.207 101.358 756.319 101.947 755.844 102.949H755.704V101.525H754.174V111ZM768.499 114.34C771.083 114.34 772.717 112.986 772.717 110.868V101.525H771.188V103.09H771.083C770.502 102.018 769.465 101.358 768.129 101.358C765.651 101.358 764.122 103.283 764.122 105.938V105.955C764.122 108.609 765.642 110.508 768.094 110.508C769.395 110.508 770.467 109.919 771.065 108.873H771.206V110.789C771.206 112.187 770.195 112.986 768.499 112.986C767.136 112.986 766.292 112.477 766.125 111.756L766.117 111.747H764.535L764.517 111.756C764.754 113.312 766.213 114.34 768.499 114.34ZM768.428 109.154C766.67 109.154 765.686 107.836 765.686 105.955V105.938C765.686 104.057 766.67 102.712 768.428 102.712C770.177 102.712 771.241 104.057 771.241 105.938V105.955C771.241 107.836 770.186 109.154 768.428 109.154ZM783.814 111.07C784.112 111.07 784.402 111.035 784.701 110.982V109.682C784.42 109.708 784.271 109.717 783.998 109.717C783.014 109.717 782.627 109.269 782.627 108.152V102.791H784.701V101.525H782.627V99.0732H781.045V101.525H779.551V102.791H781.045V108.539C781.045 110.35 781.862 111.07 783.814 111.07ZM787.6 100.207H789.217L790.579 98.2119H790.72L792.082 100.207H793.699L791.572 97.2188H789.727L787.6 100.207ZM790.649 111.167C793.348 111.167 795.018 109.304 795.018 106.271V106.254C795.018 103.213 793.348 101.358 790.649 101.358C787.951 101.358 786.281 103.213 786.281 106.254V106.271C786.281 109.304 787.951 111.167 790.649 111.167ZM790.649 109.813C788.856 109.813 787.846 108.504 787.846 106.271V106.254C787.846 104.013 788.856 102.712 790.649 102.712C792.442 102.712 793.453 104.013 793.453 106.254V106.271C793.453 108.504 792.442 109.813 790.649 109.813ZM798.109 99.6973C798.689 99.6973 799.164 99.2227 799.164 98.6426C799.164 98.0625 798.689 97.5879 798.109 97.5879C797.529 97.5879 797.055 98.0625 797.055 98.6426C797.055 99.2227 797.529 99.6973 798.109 99.6973ZM797.336 111H798.865V101.525H797.336V111ZM810.128 111.167C811.447 111.167 812.501 110.543 813.082 109.488H813.222V111H814.751V100.154H816.263V98.9941H814.751V97.7637H813.222V98.9941H810.585V100.154H813.222V103.02H813.082C812.563 102.009 811.429 101.358 810.128 101.358C807.72 101.358 806.156 103.283 806.156 106.254V106.271C806.156 109.225 807.729 111.167 810.128 111.167ZM810.48 109.813C808.749 109.813 807.72 108.478 807.72 106.271V106.254C807.72 104.048 808.749 102.712 810.48 102.712C812.203 102.712 813.257 104.065 813.257 106.254V106.271C813.257 108.46 812.203 109.813 810.48 109.813ZM823.459 97.0869H824.655C825.296 96.6562 825.569 96.2783 825.569 95.7773C825.569 94.9688 824.76 94.3271 823.741 94.3271C823.231 94.3271 822.712 94.415 822.545 94.5029V95.4609C822.721 95.4258 822.958 95.3906 823.345 95.3906C823.908 95.3906 824.329 95.6016 824.329 95.9971C824.329 96.2871 824.066 96.5771 823.459 96.9902V97.0869ZM818.951 100.444H820.374L821.904 98.5986L823.433 100.444H824.857L822.668 97.8076H821.139L818.951 100.444ZM821.974 111.167C824.206 111.167 825.56 109.901 825.885 108.618L825.903 108.548H824.373L824.338 108.627C824.083 109.198 823.292 109.805 822.009 109.805C820.322 109.805 819.241 108.662 819.197 106.702H826.017V106.104C826.017 103.274 824.452 101.358 821.877 101.358C819.302 101.358 817.632 103.362 817.632 106.289V106.298C817.632 109.269 819.267 111.167 821.974 111.167ZM821.869 102.721C823.266 102.721 824.303 103.608 824.461 105.48H819.223C819.39 103.679 820.462 102.721 821.869 102.721ZM836.771 111.167C838.089 111.167 839.144 110.543 839.724 109.488H839.864V111H841.394V100.154H842.905V98.9941H841.394V97.7637H839.864V98.9941H837.228V100.154H839.864V103.02H839.724C839.205 102.009 838.071 101.358 836.771 101.358C834.362 101.358 832.798 103.283 832.798 106.254V106.271C832.798 109.225 834.371 111.167 836.771 111.167ZM837.122 109.813C835.391 109.813 834.362 108.478 834.362 106.271V106.254C834.362 104.048 835.391 102.712 837.122 102.712C838.845 102.712 839.899 104.065 839.899 106.254V106.271C839.899 108.46 838.845 109.813 837.122 109.813ZM847.922 111.167C849.31 111.167 850.268 110.596 850.734 109.585H850.875V111H852.404V102.352C854.241 101.956 854.865 101.121 854.865 98.8711H853.441C853.441 100.594 853.072 101.42 850.875 101.525V107.133C850.875 108.794 849.987 109.813 848.317 109.813C846.806 109.813 846.19 108.996 846.19 107.291V101.525H844.661V107.66C844.661 109.901 845.768 111.167 847.922 111.167ZM859.029 111.167C861.727 111.167 863.397 109.304 863.397 106.271V106.254C863.397 104.32 862.72 102.861 861.534 102.062C862.958 101.64 863.485 100.761 863.511 98.8711H862.088C862.061 100.488 861.631 101.279 859.029 101.358C856.331 101.358 854.661 103.213 854.661 106.254V106.271C854.661 109.304 856.331 111.167 859.029 111.167ZM859.029 109.813C857.236 109.813 856.225 108.504 856.225 106.271V106.254C856.225 104.013 857.236 102.712 859.029 102.712C860.822 102.712 861.833 104.013 861.833 106.254V106.271C861.833 108.504 860.822 109.813 859.029 109.813ZM859.029 114.938C859.609 114.938 860.084 114.463 860.084 113.883C860.084 113.303 859.609 112.828 859.029 112.828C858.449 112.828 857.974 113.303 857.974 113.883C857.974 114.463 858.449 114.938 859.029 114.938ZM869.556 111.167C871.833 111.167 873.107 109.945 873.494 108.231L873.511 108.135L872 108.144L871.982 108.196C871.63 109.251 870.822 109.813 869.547 109.813C867.86 109.813 866.77 108.416 866.77 106.236V106.219C866.77 104.083 867.842 102.712 869.547 102.712C870.91 102.712 871.753 103.468 871.991 104.399L872 104.426H873.52L873.511 104.373C873.23 102.686 871.85 101.358 869.547 101.358C866.893 101.358 865.206 103.274 865.206 106.219V106.236C865.206 109.242 866.902 111.167 869.556 111.167ZM884.001 111.07C884.3 111.07 884.59 111.035 884.889 110.982V109.682C884.608 109.708 884.458 109.717 884.186 109.717C883.201 109.717 882.815 109.269 882.815 108.152V102.791H884.889V101.525H882.815V99.0732H881.233V101.525H879.739V102.791H881.233V108.539C881.233 110.35 882.05 111.07 884.001 111.07ZM890.257 111.167C891.646 111.167 892.604 110.596 893.069 109.585H893.21V111H894.739V102.352C896.576 101.956 897.2 101.121 897.2 98.8711H895.776C895.776 100.594 895.407 101.42 893.21 101.525V107.133C893.21 108.794 892.322 109.813 890.652 109.813C889.141 109.813 888.525 108.996 888.525 107.291V101.525H886.996V107.66C886.996 109.901 888.104 111.167 890.257 111.167ZM905.651 111H907.198L910.705 101.525H909.088L906.495 109.33H906.354L903.761 101.525H902.144L905.651 111ZM917.462 97.0869H918.639L920.476 94.4502H918.877L917.462 97.0869ZM912.865 100.444H914.289L915.818 98.5986L917.347 100.444H918.771L916.583 97.8076H915.053L912.865 100.444ZM914.886 111.167C916.161 111.167 917.154 110.613 917.752 109.603H917.892V111H919.421V104.514C919.421 102.545 918.129 101.358 915.818 101.358C913.796 101.358 912.355 102.36 912.109 103.846L912.1 103.898H913.629L913.638 103.872C913.884 103.134 914.631 102.712 915.765 102.712C917.18 102.712 917.892 103.345 917.892 104.514V105.375L915.176 105.542C912.97 105.674 911.722 106.649 911.722 108.337V108.354C911.722 110.077 913.085 111.167 914.886 111.167ZM913.287 108.319V108.302C913.287 107.361 913.92 106.852 915.361 106.764L917.892 106.605V107.467C917.892 108.82 916.758 109.84 915.203 109.84C914.104 109.84 913.287 109.277 913.287 108.319ZM922.126 111H923.656V105.393C923.656 103.731 924.614 102.712 926.125 102.712C927.637 102.712 928.34 103.529 928.34 105.234V111H929.87V104.865C929.87 102.615 928.683 101.358 926.556 101.358C925.159 101.358 924.271 101.947 923.796 102.949H923.656V101.525H922.126V111ZM940.201 111H941.748L945.255 101.525H943.638L941.045 109.33H940.904L938.312 101.525H936.694L940.201 111ZM949.788 100.207H951.124L949.568 97.2188H947.758L949.788 100.207ZM949.436 111.167C950.711 111.167 951.704 110.613 952.302 109.603H952.442V111H953.972V104.514C953.972 102.545 952.68 101.358 950.368 101.358C948.347 101.358 946.905 102.36 946.659 103.846L946.65 103.898H948.18L948.188 103.872C948.435 103.134 949.182 102.712 950.315 102.712C951.73 102.712 952.442 103.345 952.442 104.514V105.375L949.727 105.542C947.52 105.674 946.272 106.649 946.272 108.337V108.354C946.272 110.077 947.635 111.167 949.436 111.167ZM947.837 108.319V108.302C947.837 107.361 948.47 106.852 949.911 106.764L952.442 106.605V107.467C952.442 108.82 951.309 109.84 949.753 109.84C948.654 109.84 947.837 109.277 947.837 108.319ZM966.36 111.167C968.759 111.167 970.333 109.225 970.333 106.271V106.254C970.333 103.283 968.768 101.358 966.36 101.358C965.059 101.358 963.925 102.009 963.407 103.02H963.266V97.7637H961.737V111H963.266V109.488H963.407C963.987 110.543 965.042 111.167 966.36 111.167ZM966.008 109.813C964.286 109.813 963.231 108.46 963.231 106.271V106.254C963.231 104.065 964.286 102.712 966.008 102.712C967.74 102.712 968.768 104.048 968.768 106.254V106.271C968.768 108.478 967.74 109.813 966.008 109.813ZM976.729 100.207L978.759 97.2188H976.949L975.393 100.207H976.729ZM975.217 111.167C976.492 111.167 977.485 110.613 978.082 109.603H978.223V111H979.752V104.514C979.752 102.545 978.46 101.358 976.149 101.358C974.127 101.358 972.686 102.36 972.44 103.846L972.431 103.898H973.96L973.969 103.872C974.215 103.134 974.962 102.712 976.096 102.712C977.511 102.712 978.223 103.345 978.223 104.514V105.375L975.507 105.542C973.301 105.674 972.053 106.649 972.053 108.337V108.354C972.053 110.077 973.415 111.167 975.217 111.167ZM973.618 108.319V108.302C973.618 107.361 974.25 106.852 975.692 106.764L978.223 106.605V107.467C978.223 108.82 977.089 109.84 975.534 109.84C974.435 109.84 973.618 109.277 973.618 108.319ZM986.351 111.167C989.049 111.167 990.719 109.304 990.719 106.271V106.254C990.719 103.213 989.049 101.358 986.351 101.358C983.653 101.358 981.983 103.213 981.983 106.254V106.271C981.983 109.304 983.653 111.167 986.351 111.167ZM986.351 109.813C984.558 109.813 983.547 108.504 983.547 106.271V106.254C983.547 104.013 984.558 102.712 986.351 102.712C988.144 102.712 989.155 104.013 989.155 106.254V106.271C989.155 108.504 988.144 109.813 986.351 109.813ZM1001.88 114.34C1004.46 114.34 1006.1 112.986 1006.1 110.868V101.525H1004.57V103.09H1004.46C1003.88 102.018 1002.84 101.358 1001.51 101.358C999.029 101.358 997.5 103.283 997.5 105.938V105.955C997.5 108.609 999.021 110.508 1001.47 110.508C1002.77 110.508 1003.85 109.919 1004.44 108.873H1004.58V110.789C1004.58 112.187 1003.57 112.986 1001.88 112.986C1000.51 112.986 999.671 112.477 999.504 111.756L999.495 111.747H997.913L997.896 111.756C998.133 113.312 999.592 114.34 1001.88 114.34ZM1001.81 109.154C1000.05 109.154 999.064 107.836 999.064 105.955V105.938C999.064 104.057 1000.05 102.712 1001.81 102.712C1003.56 102.712 1004.62 104.057 1004.62 105.938V105.955C1004.62 107.836 1003.56 109.154 1001.81 109.154ZM1009.66 99.6973C1010.24 99.6973 1010.72 99.2227 1010.72 98.6426C1010.72 98.0625 1010.24 97.5879 1009.66 97.5879C1009.08 97.5879 1008.61 98.0625 1008.61 98.6426C1008.61 99.2227 1009.08 99.6973 1009.66 99.6973ZM1008.89 111H1010.42V101.525H1008.89V111ZM1017.32 100.207L1019.35 97.2188H1017.54L1015.99 100.207H1017.32ZM1015.81 111.167C1017.09 111.167 1018.08 110.613 1018.68 109.603H1018.82V111H1020.35V104.514C1020.35 102.545 1019.06 101.358 1016.74 101.358C1014.72 101.358 1013.28 102.36 1013.03 103.846L1013.03 103.898H1014.56L1014.56 103.872C1014.81 103.134 1015.56 102.712 1016.69 102.712C1018.11 102.712 1018.82 103.345 1018.82 104.514V105.375L1016.1 105.542C1013.9 105.674 1012.65 106.649 1012.65 108.337V108.354C1012.65 110.077 1014.01 111.167 1015.81 111.167ZM1014.21 108.319V108.302C1014.21 107.361 1014.85 106.852 1016.29 106.764L1018.82 106.605V107.467C1018.82 108.82 1017.68 109.84 1016.13 109.84C1015.03 109.84 1014.21 109.277 1014.21 108.319ZM584.3 139.167C586.576 139.167 587.851 137.945 588.237 136.231L588.255 136.135L586.743 136.144L586.726 136.196C586.374 137.251 585.565 137.813 584.291 137.813C582.604 137.813 581.514 136.416 581.514 134.236V134.219C581.514 132.083 582.586 130.712 584.291 130.712C585.653 130.712 586.497 131.468 586.734 132.399L586.743 132.426H588.264L588.255 132.373C587.974 130.686 586.594 129.358 584.291 129.358C581.637 129.358 579.949 131.274 579.949 134.219V134.236C579.949 137.242 581.646 139.167 584.3 139.167ZM593.579 139.167C594.968 139.167 595.926 138.596 596.391 137.585H596.532V139H598.061V129.525H596.532V135.133C596.532 136.794 595.644 137.813 593.974 137.813C592.463 137.813 591.847 136.996 591.847 135.291V129.525H590.318V135.66C590.318 137.901 591.426 139.167 593.579 139.167ZM594.185 142.938C594.765 142.938 595.24 142.463 595.24 141.883C595.24 141.303 594.765 140.828 594.185 140.828C593.605 140.828 593.131 141.303 593.131 141.883C593.131 142.463 593.605 142.938 594.185 142.938ZM609.167 139.07C609.465 139.07 609.755 139.035 610.054 138.982V137.682C609.773 137.708 609.624 137.717 609.351 137.717C608.367 137.717 607.98 137.269 607.98 136.152V130.791H610.054V129.525H607.98V127.073H606.398V129.525H604.904V130.791H606.398V136.539C606.398 138.35 607.215 139.07 609.167 139.07ZM612.337 139H613.867V133.393C613.867 131.731 614.825 130.712 616.336 130.712C617.848 130.712 618.551 131.529 618.551 133.234V139H620.08V132.865C620.08 130.615 618.894 129.358 616.767 129.358C615.369 129.358 614.482 129.947 614.007 130.949H613.867V125.764H612.337V139ZM628.112 125.087H629.307C629.948 124.656 630.221 124.278 630.221 123.777C630.221 122.969 629.412 122.327 628.393 122.327C627.883 122.327 627.364 122.415 627.197 122.503V123.461C627.373 123.426 627.611 123.391 627.997 123.391C628.56 123.391 628.982 123.602 628.982 123.997C628.982 124.287 628.718 124.577 628.112 124.99V125.087ZM623.603 128.444H625.027L626.556 126.599L628.085 128.444H629.509L627.321 125.808H625.791L623.603 128.444ZM626.626 139.167C628.859 139.167 630.212 137.901 630.537 136.618L630.555 136.548H629.026L628.99 136.627C628.736 137.198 627.945 137.805 626.661 137.805C624.974 137.805 623.893 136.662 623.849 134.702H630.669V134.104C630.669 131.274 629.105 129.358 626.529 129.358C623.954 129.358 622.284 131.362 622.284 134.289V134.298C622.284 137.269 623.919 139.167 626.626 139.167ZM626.521 130.721C627.918 130.721 628.955 131.608 629.113 133.48H623.875C624.042 131.679 625.114 130.721 626.521 130.721ZM638.566 134.781H640.025L640.175 126.309H638.417L638.566 134.781ZM639.305 139.158C640.016 139.158 640.517 138.648 640.517 137.937C640.517 137.216 640.016 136.706 639.305 136.706C638.593 136.706 638.083 137.216 638.083 137.937C638.083 138.648 638.593 139.158 639.305 139.158Z" fill="#24262E"/>
<defs>
<filter id="filter0_d" x="1102" y="39" width="230" height="56" filterUnits="userSpaceOnUse" color-interpolation-filters="sRGB">
<feFlood flood-opacity="0" result="BackgroundImageFix"/>
<feColorMatrix in="SourceAlpha" type="matrix" values="0 0 0 0 0 0 0 0 0 0 0 0 0 0 0 0 0 0 127 0" result="hardAlpha"/>
<feOffset dy="3"/>
<feGaussianBlur stdDeviation="2"/>
<feComposite in2="hardAlpha" operator="out"/>
<feColorMatrix type="matrix" values="0 0 0 0 0 0 0 0 0 0 0 0 0 0 0 0 0 0 0.12 0"/>
<feBlend mode="normal" in2="BackgroundImageFix" result="effect1_dropShadow"/>
<feBlend mode="normal" in="SourceGraphic" in2="effect1_dropShadow" result="shape"/>
</filter>
<filter id="filter1_d" x="1102" y="94" width="230" height="56" filterUnits="userSpaceOnUse" color-interpolation-filters="sRGB">
<feFlood flood-opacity="0" result="BackgroundImageFix"/>
<feColorMatrix in="SourceAlpha" type="matrix" values="0 0 0 0 0 0 0 0 0 0 0 0 0 0 0 0 0 0 127 0" result="hardAlpha"/>
<feOffset dy="3"/>
<feGaussianBlur stdDeviation="2"/>
<feComposite in2="hardAlpha" operator="out"/>
<feColorMatrix type="matrix" values="0 0 0 0 0 0 0 0 0 0 0 0 0 0 0 0 0 0 0.12 0"/>
<feBlend mode="normal" in2="BackgroundImageFix" result="effect1_dropShadow"/>
<feBlend mode="normal" in="SourceGraphic" in2="effect1_dropShadow" result="shape"/>
</filter>
</defs>
</svg>
