<svg width="169" height="28" viewBox="0 0 169 28" fill="none" xmlns="http://www.w3.org/2000/svg">
<path d="M25.8125 3.9375H2.1875C0.981367 3.9375 0 4.91887 0 6.125V21.875C0 23.0811 0.981367 24.0625 2.1875 24.0625H25.8125C27.0186 24.0625 28 23.0811 28 21.875V6.125C28 4.91887 27.0186 3.9375 25.8125 3.9375Z" fill="#5D647F"/>
<path d="M9.625 12.6875H4.375C3.89173 12.6875 3.5 12.2958 3.5 11.8125V8.3125C3.5 7.82923 3.89173 7.4375 4.375 7.4375H9.625C10.1083 7.4375 10.5 7.82923 10.5 8.3125V11.8125C10.5 12.2958 10.1083 12.6875 9.625 12.6875Z" fill="#FFD100"/>
<path d="M6.5625 18.375H4.375C3.89173 18.375 3.5 17.9833 3.5 17.5V17.0625C3.5 16.5792 3.89173 16.1875 4.375 16.1875H6.5625C7.04577 16.1875 7.4375 16.5792 7.4375 17.0625V17.5C7.4375 17.9833 7.04577 18.375 6.5625 18.375Z" fill="#B8BAC0"/>
<path d="M12.25 18.375H10.0625C9.57923 18.375 9.1875 17.9833 9.1875 17.5V17.0625C9.1875 16.5792 9.57923 16.1875 10.0625 16.1875H12.25C12.7333 16.1875 13.125 16.5792 13.125 17.0625V17.5C13.125 17.9833 12.7333 18.375 12.25 18.375Z" fill="#B8BAC0"/>
<path d="M17.9375 18.375H15.75C15.2667 18.375 14.875 17.9833 14.875 17.5V17.0625C14.875 16.5792 15.2667 16.1875 15.75 16.1875H17.9375C18.4208 16.1875 18.8125 16.5792 18.8125 17.0625V17.5C18.8125 17.9833 18.4208 18.375 17.9375 18.375Z" fill="#B8BAC0"/>
<path d="M23.625 18.375H21.4375C20.9542 18.375 20.5625 17.9833 20.5625 17.5V17.0625C20.5625 16.5792 20.9542 16.1875 21.4375 16.1875H23.625C24.1083 16.1875 24.5 16.5792 24.5 17.0625V17.5C24.5 17.9833 24.1083 18.375 23.625 18.375Z" fill="#B8BAC0"/>
<path d="M12.6875 21H3.9375C3.69567 21 3.5 20.8041 3.5 20.5625C3.5 20.3209 3.69567 20.125 3.9375 20.125H12.6875C12.9293 20.125 13.125 20.3209 13.125 20.5625C13.125 20.8041 12.9293 21 12.6875 21Z" fill="#8A8895"/>
<path d="M18.375 21H14.4375C14.1957 21 14 20.8041 14 20.5625C14 20.3209 14.1957 20.125 14.4375 20.125H18.375C18.6168 20.125 18.8125 20.3209 18.8125 20.5625C18.8125 20.8041 18.6168 21 18.375 21Z" fill="#8A8895"/>
<path d="M20.125 11.8126C19.6443 12.3496 18.9458 12.6875 18.1685 12.6875C16.7187 12.6875 15.5435 11.5123 15.5435 10.0625C15.5435 8.61273 16.7187 7.4375 18.1685 7.4375C18.9457 7.4375 19.6441 7.7753 20.1247 8.31212" fill="#FF4F19"/>
<path d="M10.5 10.5H6.125V9.625H10.5V8.75H6.125V7.4375H5.25V12.6875H6.125V11.375H10.5V10.5Z" fill="#FF9500"/>
<path d="M21.875 12.6875C23.3247 12.6875 24.5 11.5122 24.5 10.0625C24.5 8.61275 23.3247 7.4375 21.875 7.4375C20.4253 7.4375 19.25 8.61275 19.25 10.0625C19.25 11.5122 20.4253 12.6875 21.875 12.6875Z" fill="#FFD100"/>
<path d="M51.0526 20.3164C53.9794 20.3164 56.08 18.6201 56.4139 16.0801V16.0186H54.1903L54.1815 16.0625C53.8563 17.46 52.661 18.3564 51.0526 18.3564C48.8905 18.3564 47.5458 16.5547 47.5458 13.6631V13.6455C47.5458 10.7627 48.8905 8.96094 51.0438 8.96094C52.6434 8.96094 53.8563 9.9541 54.1815 11.457L54.1903 11.4922H56.4139V11.4219C56.1151 8.8291 53.9266 7.00098 51.0438 7.00098C47.4491 7.00098 45.2255 9.54102 45.2255 13.6543V13.6719C45.2255 17.7676 47.4579 20.3164 51.0526 20.3164ZM58.7146 20H60.903V14.4014C60.903 12.96 61.7116 12.0459 63.0124 12.0459C64.3396 12.0459 64.946 12.8018 64.946 14.2959V20H67.1345V13.7861C67.1345 11.501 65.9655 10.209 63.821 10.209C62.4323 10.209 61.5095 10.833 61.0525 11.8613H60.903V6.67578H58.7146V20ZM72.8101 20.1934C74.1988 20.1934 75.1744 19.5693 75.6226 18.541H75.772V20H77.9605V10.3936H75.772V15.9922C75.772 17.4336 75.0162 18.3477 73.6011 18.3477C72.2828 18.3477 71.7291 17.5918 71.7291 16.1064V10.3936H69.5406V16.6074C69.5406 18.8926 70.648 20.1934 72.8101 20.1934ZM81.5707 23.375C83.6977 23.375 84.7963 22.6104 85.6225 20.2021L89.0678 10.3936H86.765L84.5326 17.8994H84.3656L82.1244 10.3936H79.7338L83.1703 20.0088L83.0561 20.4482C82.8187 21.3184 82.2826 21.6875 81.3861 21.6875C81.1576 21.6875 80.9115 21.6787 80.7357 21.6611V23.3398C80.9994 23.3662 81.307 23.375 81.5707 23.375ZM96.1936 6.03418H97.4944C98.1184 5.62988 98.426 5.2168 98.426 4.68066C98.426 3.82812 97.6086 3.2041 96.4573 3.2041C95.9387 3.2041 95.4377 3.2832 95.2004 3.37988V4.4873C95.3674 4.46094 95.6311 4.42578 95.9651 4.42578C96.5715 4.42578 96.9846 4.63672 96.9846 5.02344C96.9846 5.32227 96.7297 5.58594 96.1936 5.94629V6.03418ZM91.342 9.35645H93.0998L94.5149 7.57227L95.9651 9.35645H97.7141L95.508 6.6582H93.5393L91.342 9.35645ZM94.5852 20.1934C97.1955 20.1934 98.4787 18.6904 98.7864 17.4512L98.8127 17.3721H96.7297L96.7034 17.4336C96.4924 17.873 95.8157 18.4707 94.6291 18.4707C93.1438 18.4707 92.2121 17.4688 92.1858 15.7461H98.9006V15.0254C98.9006 12.125 97.2131 10.209 94.4797 10.209C91.7463 10.209 89.9973 12.1865 89.9973 15.21V15.2188C89.9973 18.2773 91.7287 20.1934 94.5852 20.1934ZM94.5061 11.9229C95.7278 11.9229 96.6155 12.7051 96.7649 14.2783H92.2034C92.3703 12.749 93.2844 11.9229 94.5061 11.9229ZM100.999 20H103.188V14.4014C103.188 12.96 103.996 12.0459 105.297 12.0459C106.624 12.0459 107.231 12.8018 107.231 14.2959V20H109.419V13.7861C109.419 11.501 108.25 10.209 106.106 10.209C104.717 10.209 103.794 10.833 103.337 11.8613H103.188V10.3936H100.999V20ZM116.71 20H118.898V16.625L119.663 15.8428L122.748 20H125.385L121.254 14.4541L125.121 10.3936H122.59L119.048 14.3311H118.898V6.67578H116.71V20ZM127.061 20H129.25V14.4014C129.25 12.96 130.058 12.0459 131.359 12.0459C132.686 12.0459 133.293 12.8018 133.293 14.2959V20H135.481V13.7861C135.481 11.501 134.312 10.209 132.168 10.209C130.779 10.209 129.856 10.833 129.399 11.8613H129.25V6.67578H127.061V20ZM142.123 20.1934C144.997 20.1934 146.747 18.3125 146.747 15.2012V15.1836C146.747 12.0898 144.989 10.209 142.123 10.209C139.267 10.209 137.5 12.0986 137.5 15.1836V15.2012C137.5 18.3125 139.241 20.1934 142.123 20.1934ZM142.123 18.418C140.603 18.418 139.733 17.2314 139.733 15.21V15.1924C139.733 13.1709 140.603 11.9756 142.123 11.9756C143.635 11.9756 144.505 13.1709 144.505 15.1924V15.21C144.505 17.2314 143.644 18.418 142.123 18.418ZM151.948 9.09277H153.31C154.013 8.61816 154.408 8.13477 154.408 7.49316C154.408 6.49121 153.371 5.73535 151.991 5.73535C151.473 5.73535 150.981 5.82324 150.735 5.91992V7.13281C150.928 7.09766 151.192 7.0625 151.517 7.0625C152.308 7.0625 152.862 7.32617 152.862 7.79199C152.862 8.17871 152.536 8.56543 151.948 8.97852V9.09277ZM151.473 20.1582C152.739 20.1582 153.758 19.6133 154.285 18.6816H154.435V20H156.597V13.4346C156.597 11.4043 155.208 10.209 152.739 10.209C150.453 10.209 148.907 11.2812 148.696 12.8984L148.687 12.9775H150.752L150.761 12.9424C150.981 12.3096 151.631 11.9492 152.633 11.9492C153.811 11.9492 154.435 12.4766 154.435 13.4346V14.2607L151.965 14.4102C149.627 14.5508 148.318 15.5527 148.318 17.2666V17.2842C148.318 19.0332 149.645 20.1582 151.473 20.1582ZM150.48 17.1787V17.1611C150.48 16.3701 151.051 15.9219 152.273 15.8428L154.435 15.7021V16.4756C154.435 17.6182 153.459 18.4795 152.141 18.4795C151.174 18.4795 150.48 17.9961 150.48 17.1787ZM159.135 20H161.323V14.4014C161.323 12.96 162.132 12.0459 163.433 12.0459C164.76 12.0459 165.366 12.8018 165.366 14.2959V20H167.555V13.7861C167.555 11.501 166.386 10.209 164.241 10.209C162.853 10.209 161.93 10.833 161.473 11.8613H161.323V10.3936H159.135V20Z" fill="#24262E"/>
</svg>
