<svg width="49" height="48" viewBox="0 0 49 48" fill="none" xmlns="http://www.w3.org/2000/svg">
<g clip-path="url(#clip0)">
<path d="M44.5393 6.75H4.03931C1.97165 6.75 0.289307 8.43234 0.289307 10.5V37.5C0.289307 39.5677 1.97165 41.25 4.03931 41.25H44.5393C46.607 41.25 48.2893 39.5677 48.2893 37.5V10.5C48.2893 8.43234 46.607 6.75 44.5393 6.75Z" fill="#5D647F"/>
<path d="M16.7893 21.75H7.78931C6.96084 21.75 6.28931 21.0785 6.28931 20.25V14.25C6.28931 13.4215 6.96084 12.75 7.78931 12.75H16.7893C17.6178 12.75 18.2893 13.4215 18.2893 14.25V20.25C18.2893 21.0785 17.6178 21.75 16.7893 21.75Z" fill="#FFD100"/>
<path d="M11.5393 31.5H7.78931C6.96084 31.5 6.28931 30.8285 6.28931 30V29.25C6.28931 28.4215 6.96084 27.75 7.78931 27.75H11.5393C12.3678 27.75 13.0393 28.4215 13.0393 29.25V30C13.0393 30.8285 12.3678 31.5 11.5393 31.5Z" fill="#B8BAC0"/>
<path d="M21.2893 31.5H17.5393C16.7108 31.5 16.0393 30.8285 16.0393 30V29.25C16.0393 28.4215 16.7108 27.75 17.5393 27.75H21.2893C22.1178 27.75 22.7893 28.4215 22.7893 29.25V30C22.7893 30.8285 22.1178 31.5 21.2893 31.5Z" fill="#B8BAC0"/>
<path d="M31.0393 31.5H27.2893C26.4608 31.5 25.7893 30.8285 25.7893 30V29.25C25.7893 28.4215 26.4608 27.75 27.2893 27.75H31.0393C31.8678 27.75 32.5393 28.4215 32.5393 29.25V30C32.5393 30.8285 31.8678 31.5 31.0393 31.5Z" fill="#B8BAC0"/>
<path d="M40.7893 31.5H37.0393C36.2108 31.5 35.5393 30.8285 35.5393 30V29.25C35.5393 28.4215 36.2108 27.75 37.0393 27.75H40.7893C41.6178 27.75 42.2893 28.4215 42.2893 29.25V30C42.2893 30.8285 41.6178 31.5 40.7893 31.5Z" fill="#B8BAC0"/>
<path d="M22.0393 36H7.03931C6.62474 36 6.28931 35.6642 6.28931 35.25C6.28931 34.8358 6.62474 34.5 7.03931 34.5H22.0393C22.4539 34.5 22.7893 34.8358 22.7893 35.25C22.7893 35.6642 22.4539 36 22.0393 36Z" fill="#8A8895"/>
<path d="M31.7893 36H25.0393C24.6247 36 24.2893 35.6642 24.2893 35.25C24.2893 34.8358 24.6247 34.5 25.0393 34.5H31.7893C32.2039 34.5 32.5393 34.8358 32.5393 35.25C32.5393 35.6642 32.2039 36 31.7893 36Z" fill="#8A8895"/>
<path d="M34.7893 20.2502C33.9653 21.1707 32.768 21.75 31.4353 21.75C28.95 21.75 26.9353 19.7353 26.9353 17.25C26.9353 14.7647 28.95 12.75 31.4353 12.75C32.7678 12.75 33.965 13.3291 34.7889 14.2493" fill="#FF4F19"/>
<path d="M18.2893 18H10.7893V16.5H18.2893V15H10.7893V12.75H9.28931V21.75H10.7893V19.5H18.2893V18Z" fill="#FF9500"/>
<path d="M37.7893 21.75C40.2746 21.75 42.2893 19.7353 42.2893 17.25C42.2893 14.7647 40.2746 12.75 37.7893 12.75C35.304 12.75 33.2893 14.7647 33.2893 17.25C33.2893 19.7353 35.304 21.75 37.7893 21.75Z" fill="#FFD100"/>
</g>
<defs>
<clipPath id="clip0">
<rect width="48" height="48" fill="white" transform="translate(0.289307)"/>
</clipPath>
</defs>
</svg>
