<svg width="60" height="60" viewBox="0 0 60 60" fill="none" xmlns="http://www.w3.org/2000/svg">
<rect width="60" height="60" fill="white"/>
<path d="M8.12109 52.9609C11.5156 56.291 16.0273 56.3125 19.3574 53.0039C23.0098 49.3301 22.3867 45.8926 30.0996 36.6543L40.3477 46.8809L40.6699 49.1367C40.7344 49.6953 40.9922 50.1465 41.5508 50.5117L48.2324 55.0664C48.7695 55.4102 49.1777 55.3887 49.5645 55.002L52.207 52.3594C52.5938 51.9512 52.5938 51.5215 52.2715 51.0488L47.7168 44.3027C47.3945 43.8301 46.9219 43.5293 46.3633 43.4219L44.0645 43.1426L33.6016 32.7012C34.8477 31.3691 36.2441 29.9297 37.8125 28.4043C42.0449 30.4883 47.2871 29.8008 50.7891 26.3203C54.248 22.8613 54.957 17.5977 52.8516 13.3438L51.7559 14.4609L47.6953 18.5215C46.793 19.4238 45.8906 19.4023 45.0312 18.5645L42.5391 16.0508C41.6797 15.2129 41.6582 14.2891 42.5605 13.3867L46.6211 9.34766L47.7383 8.23047C43.4844 6.08203 38.2207 6.8125 34.7617 10.293C31.2598 13.7734 30.5723 19.0586 32.6777 23.291C32.4414 23.5488 32.1836 23.7852 31.9473 24.0215L17.8535 9.90625C15.5332 7.60742 12.5898 7.75781 10.2051 10.1211L7.36914 12.9785C4.94141 15.4062 4.85547 18.3281 7.13281 20.6055L20.5391 34.0117C14.1367 38.6094 11.1934 38.6309 8.09961 41.7246C4.79102 45.0547 4.79102 49.5664 8.12109 52.9609ZM41.4219 17.0176L44.043 19.6387C45.5254 21.1211 47.1367 21.0781 48.6191 19.6172L52.2715 15.9648C53.1094 19.209 52.2715 22.7754 49.7578 25.2891C45.9121 29.1133 39.7246 29.0703 35.8574 25.2246C31.9902 21.3359 31.9688 15.1484 35.7715 11.3027C38.3066 8.81055 41.873 7.95117 45.1172 8.81055L41.4648 12.4629C39.9824 13.9453 39.9609 15.5566 41.4219 17.0176ZM23.332 24.1934L14.7598 15.5996C14.502 15.3418 14.502 14.9766 14.7598 14.7402C14.9961 14.5039 15.3613 14.4824 15.5977 14.7402L24.1914 23.3125C24.4492 23.5488 24.4492 23.9141 24.1914 24.1934C23.9766 24.4082 23.5898 24.4297 23.332 24.1934ZM20.5391 26.9863L11.9453 18.3926C11.6875 18.1562 11.752 17.748 11.9453 17.5332C12.2031 17.2754 12.6113 17.3184 12.8262 17.5332L21.3984 26.1055C21.6348 26.3633 21.6562 26.7285 21.4199 26.9648C21.1836 27.2012 20.7754 27.2227 20.5391 26.9863ZM34.8262 26.2344C35.3203 26.75 35.8789 27.2012 36.459 27.6094C20.2383 44.0664 22.4297 47.7402 18.2617 51.9297C15.5762 54.6152 11.9668 54.6367 9.19531 51.8867C6.44531 49.1152 6.48828 45.5059 9.15234 42.8203C13.3418 38.6523 17.0156 40.8438 33.4727 24.6445C33.8594 25.2031 34.3105 25.7402 34.8262 26.2344ZM13.6855 49.8887C15.0176 49.8887 16.0488 48.8359 16.0488 47.4824C16.0488 46.1504 15.0176 45.0762 13.6855 45.0762C12.332 45.0762 11.2578 46.1504 11.2578 47.4824C11.2578 48.8359 12.332 49.8887 13.6855 49.8887Z" fill="#24262E" fill-opacity="0.8"/>
</svg>
