<svg width="51" height="43" viewBox="0 0 51 43" fill="none" xmlns="http://www.w3.org/2000/svg">
<path d="M21.5671 42.543C24.8542 42.543 28.0125 41.7695 30.8054 40.373C30.4402 39.9648 30.1394 39.5137 29.8816 39.041C27.3679 40.2441 24.532 40.9102 21.5671 40.9102C10.825 40.9102 2.14526 32.209 2.14526 21.4883C2.14526 10.7676 10.825 2.04492 21.5671 2.04492C31.8796 2.04492 40.3445 10.1445 40.9246 20.3281C41.4617 20.3281 42.0632 20.3711 42.6003 20.5C42.0632 9.39258 32.782 0.412109 21.5671 0.412109C9.98706 0.412109 0.490967 9.9082 0.490967 21.4883C0.490967 33.0469 9.98706 42.543 21.5671 42.543ZM9.29956 23.3145H21.5671C21.9968 23.3145 22.3191 22.9922 22.3191 22.541V6.72852C22.3191 6.32031 21.9968 5.99805 21.5671 5.99805C21.1589 5.99805 20.8367 6.32031 20.8367 6.72852V21.8105H9.29956C8.86987 21.8105 8.54761 22.1543 8.54761 22.541C8.54761 22.9922 8.86987 23.3145 9.29956 23.3145ZM40.2585 42.9297C45.9304 42.9297 50.6355 38.2461 50.6355 32.5527C50.6355 26.8594 45.9519 22.1758 40.2585 22.1758C34.5867 22.1758 29.8816 26.8809 29.8816 32.5527C29.8816 38.2676 34.5867 42.9297 40.2585 42.9297ZM39.0769 38.418C38.7976 38.418 38.5183 38.2891 38.3035 38.0527L34.3289 33.6914C34.157 33.498 34.071 33.2402 34.071 33.0039C34.071 32.4668 34.4792 32.0801 34.9949 32.0801C35.3601 32.0801 35.575 32.2949 35.7683 32.4668L39.0125 35.9688L44.7703 28.0625C44.9636 27.8262 45.2429 27.6543 45.5652 27.6543C46.0593 27.6543 46.4675 28.0625 46.4675 28.5566C46.4675 28.793 46.3816 28.9863 46.2527 29.1582L39.8289 38.0312C39.6785 38.2891 39.4207 38.418 39.0769 38.418Z" fill="#24262E" fill-opacity="0.8"/>
</svg>
