<svg width="61" height="60" viewBox="0 0 61 60" fill="none" xmlns="http://www.w3.org/2000/svg">
<rect width="60" height="60" transform="translate(0.666748)" fill="white"/>
<path d="M8.81189 18.0703C8.81189 18.8438 9.26306 19.2734 10.0795 19.2734H16.2455V46.5801C16.2455 50.3828 18.2435 52.3809 22.0463 52.3809H46.2592C49.8256 52.3809 52.1029 50.0176 52.1029 46.2793V40.4355C52.1029 39.6621 51.6732 39.2324 50.8353 39.2324H48.4506V14.3965C48.4506 10.5938 46.474 8.5957 42.6713 8.5957H13.3236C10.724 8.5957 8.81189 10.293 8.81189 13.3652V18.0703ZM17.8568 46.5371V13.3652C17.8568 12.0117 17.5345 10.9375 16.89 10.1855H42.5853C45.3998 10.1855 46.8607 11.668 46.8607 14.4395V39.2324H27.4603C26.6439 39.2324 26.2142 39.6621 26.2142 40.4355V46.5371C26.2142 49.2656 24.7318 50.748 22.0463 50.7695C19.3177 50.748 17.8568 49.2441 17.8568 46.5371ZM10.4017 17.6836V13.3652C10.4017 11.3027 11.7552 10.1855 13.3236 10.1855C15.1498 10.1855 16.2455 11.3027 16.2455 13.3652V17.6836H10.4017ZM23.7006 19.2734H41.017C41.4252 19.2734 41.7474 18.9512 41.7474 18.5645C41.7474 18.1777 41.4252 17.8555 41.017 17.8555H23.7006C23.2709 17.8555 22.9486 18.1777 22.9486 18.5645C22.9486 18.9512 23.2709 19.2734 23.7006 19.2734ZM23.7006 26.8789H32.3802C32.7885 26.8789 33.1107 26.5566 33.1107 26.1699C33.1107 25.7617 32.7885 25.4395 32.3802 25.4395H23.7006C23.2709 25.4395 22.9486 25.7617 22.9486 26.1699C22.9486 26.5566 23.2709 26.8789 23.7006 26.8789ZM26.2357 50.7695C27.267 49.8457 27.8041 48.4277 27.8041 46.5371V40.8223H50.5131V46.2793C50.5131 48.9219 48.7513 50.7695 46.2592 50.7695H26.2357Z" fill="#24262E" fill-opacity="0.8"/>
</svg>
