<svg width="1440" height="244" viewBox="0 0 1440 244" fill="none" xmlns="http://www.w3.org/2000/svg">
<g clip-path="url(#clip0)">
<rect width="1440" height="244" fill="white"/>
<path d="M560.451 113.06V114.74H565.591C565.211 116.92 563.411 118.44 560.611 118.44C558.971 118.44 557.631 117.92 556.591 116.88C555.571 115.84 555.051 114.54 555.051 113C555.051 111.46 555.571 110.16 556.591 109.12C557.611 108.06 558.931 107.54 560.531 107.54C562.471 107.54 564.211 108.54 565.011 110.06L566.611 109.12C566.031 108.1 565.191 107.3 564.111 106.68C563.031 106.06 561.851 105.74 560.551 105.74C558.451 105.74 556.691 106.44 555.291 107.86C553.911 109.26 553.211 110.98 553.211 113C553.211 115.02 553.911 116.74 555.291 118.16C556.691 119.56 558.451 120.26 560.591 120.26C562.651 120.26 564.311 119.66 565.571 118.46C566.831 117.24 567.451 115.72 567.451 113.9V113.06H560.451ZM576.283 108.7H578.023L576.043 106.18H574.263L572.283 108.7H574.023L575.163 107.18L576.283 108.7ZM577.843 111.72C576.983 110.4 575.723 109.74 574.063 109.74C572.663 109.74 571.463 110.26 570.483 111.28C569.503 112.3 569.003 113.54 569.003 115C569.003 116.46 569.503 117.72 570.483 118.74C571.463 119.76 572.663 120.26 574.063 120.26C575.723 120.26 576.983 119.6 577.843 118.28V120H579.583V110H577.843V111.72ZM574.283 118.58C573.283 118.58 572.443 118.24 571.763 117.56C571.083 116.86 570.743 116.02 570.743 115C570.743 113.98 571.083 113.14 571.763 112.46C572.443 111.76 573.283 111.42 574.283 111.42C575.303 111.42 576.143 111.76 576.823 112.46C577.503 113.14 577.843 113.98 577.843 115C577.843 116.02 577.503 116.86 576.823 117.56C576.143 118.24 575.303 118.58 574.283 118.58ZM579.083 106.86L577.583 104.4H575.643L577.503 106.86H579.083ZM587.229 109.74C585.769 109.74 584.689 110.3 583.989 111.44V110H582.249V120H583.989V114.7C583.989 112.46 585.149 111.4 586.889 111.4C588.429 111.4 589.369 112.34 589.369 113.96V120H591.109V113.86C591.109 111.32 589.569 109.74 587.229 109.74ZM603.458 114.84L607.058 110H605.018L602.438 113.48L599.858 110H597.798L601.418 114.86L597.578 120H599.618L602.438 116.22L605.238 120H607.278L603.458 114.84ZM617.361 118.74C618.381 117.72 618.901 116.48 618.901 115C618.901 113.52 618.381 112.28 617.361 111.26C616.341 110.24 615.081 109.74 613.621 109.74C612.161 109.74 610.901 110.24 609.881 111.26C608.861 112.28 608.361 113.52 608.361 115C608.361 116.48 608.861 117.72 609.881 118.74C610.901 119.76 612.161 120.26 613.621 120.26C615.081 120.26 616.341 119.76 617.361 118.74ZM613.621 118.56C612.641 118.56 611.801 118.22 611.121 117.54C610.441 116.86 610.101 116.02 610.101 115C610.101 113.98 610.441 113.14 611.121 112.46C611.801 111.78 612.641 111.44 613.621 111.44C614.621 111.44 615.461 111.78 616.141 112.46C616.821 113.14 617.161 113.98 617.161 115C617.161 116.02 616.821 116.86 616.141 117.54C615.461 118.22 614.621 118.56 613.621 118.56ZM625.962 109.74C624.502 109.74 623.422 110.3 622.722 111.44V110H620.982V120H622.722V114.7C622.722 112.46 623.882 111.4 625.622 111.4C627.162 111.4 628.102 112.34 628.102 113.96V120H629.842V113.86C629.842 111.32 628.302 109.74 625.962 109.74ZM640.601 111.72C639.741 110.4 638.481 109.74 636.841 109.74C635.421 109.74 634.201 110.24 633.221 111.26C632.241 112.26 631.741 113.48 631.741 114.94C631.741 116.4 632.241 117.62 633.221 118.64C634.201 119.66 635.421 120.16 636.841 120.16C638.461 120.16 639.721 119.5 640.601 118.16V119.58C640.601 121.48 639.341 122.64 637.261 122.64C635.641 122.64 634.541 122.08 634.001 120.96L632.481 121.82C633.301 123.4 634.981 124.26 637.221 124.26C638.621 124.26 639.821 123.84 640.821 123.02C641.821 122.2 642.321 121.06 642.321 119.58V110H640.601V111.72ZM640.601 114.94C640.601 115.96 640.261 116.8 639.581 117.48C638.901 118.16 638.061 118.5 637.041 118.5C636.021 118.5 635.181 118.16 634.501 117.48C633.821 116.8 633.481 115.96 633.481 114.94C633.481 113.94 633.821 113.1 634.501 112.42C635.181 111.74 636.021 111.4 637.041 111.4C638.061 111.4 638.901 111.74 639.581 112.42C640.261 113.1 640.601 113.94 640.601 114.94ZM651.758 110H650.018V120H651.758V114.7C651.758 113.6 652.058 112.82 652.678 112.32C653.298 111.82 654.018 111.6 654.878 111.64V109.82C653.378 109.82 652.338 110.44 651.758 111.68V110ZM662.41 108.64H664.15L662.17 106.12H660.39L658.41 108.64H660.15L661.29 107.12L662.41 108.64ZM657.57 111.26C656.55 112.28 656.05 113.52 656.05 115C656.05 116.48 656.55 117.72 657.57 118.74C658.59 119.76 659.85 120.26 661.31 120.26C662.77 120.26 664.03 119.76 665.05 118.74C666.07 117.72 666.59 116.48 666.59 115C666.59 113.52 666.07 112.28 665.05 111.26C664.03 110.24 662.77 109.74 661.31 109.74C659.85 109.74 658.59 110.24 657.57 111.26ZM661.31 118.56C660.33 118.56 659.49 118.22 658.81 117.54C658.13 116.86 657.79 116.02 657.79 115C657.79 113.98 658.13 113.14 658.81 112.46C659.49 111.78 660.33 111.44 661.31 111.44C662.31 111.44 663.15 111.78 663.83 112.46C664.51 113.14 664.85 113.98 664.85 115C664.85 116.02 664.51 116.86 663.83 117.54C663.15 118.22 662.31 118.56 661.31 118.56ZM665.21 106.8L663.71 104.34H661.77L663.63 106.8H665.21ZM669.551 108.76C670.191 108.76 670.711 108.24 670.711 107.6C670.711 106.96 670.191 106.42 669.551 106.42C668.891 106.42 668.371 106.96 668.371 107.6C668.371 108.24 668.891 108.76 669.551 108.76ZM670.411 120V110H668.671V120H670.411ZM674.876 115.9L675.256 110V106H673.156V110L673.536 115.9H674.876ZM674.196 120.22C674.936 120.22 675.496 119.64 675.496 118.92C675.496 118.2 674.936 117.62 674.196 117.62C673.476 117.62 672.896 118.2 672.896 118.92C672.896 119.64 673.476 120.22 674.196 120.22ZM689.779 120.26C691.059 120.26 692.239 119.96 693.319 119.34C694.399 118.72 695.239 117.88 695.819 116.84L694.199 115.92C693.399 117.44 691.699 118.44 689.779 118.44C688.159 118.44 686.839 117.92 685.819 116.88C684.799 115.84 684.299 114.54 684.299 113C684.299 111.44 684.799 110.14 685.819 109.1C686.839 108.06 688.159 107.54 689.779 107.54C691.699 107.54 693.399 108.54 694.199 110.08L695.819 109.14C694.619 107.06 692.339 105.74 689.779 105.74C687.659 105.74 685.899 106.44 684.519 107.84C683.139 109.24 682.459 110.96 682.459 113C682.459 115.04 683.139 116.76 684.519 118.16C685.899 119.56 687.659 120.26 689.779 120.26ZM703.954 108.58L702.354 105.94H700.254L702.274 108.58H703.954ZM706.274 118.74C705.254 119.76 703.994 120.26 702.534 120.26C701.074 120.26 699.814 119.76 698.794 118.74C697.774 117.72 697.274 116.48 697.274 115C697.274 113.52 697.774 112.28 698.794 111.26C699.814 110.24 701.074 109.74 702.534 109.74C703.994 109.74 705.254 110.24 706.274 111.26C707.294 112.28 707.814 113.52 707.814 115C707.814 116.48 707.294 117.72 706.274 118.74ZM702.534 118.56C703.534 118.56 704.374 118.22 705.054 117.54C705.734 116.86 706.074 116.02 706.074 115C706.074 113.98 705.734 113.14 705.054 112.46C704.374 111.78 703.534 111.44 702.534 111.44C701.554 111.44 700.714 111.78 700.034 112.46C699.354 113.14 699.014 113.98 699.014 115C699.014 116.02 699.354 116.86 700.034 117.54C700.714 118.22 701.554 118.56 702.534 118.56ZM714.875 109.74C713.415 109.74 712.335 110.3 711.635 111.44V110H709.895V120H711.635V114.7C711.635 112.46 712.795 111.4 714.535 111.4C716.075 111.4 717.015 112.34 717.015 113.96V120H718.755V113.86C718.755 111.32 717.215 109.74 714.875 109.74ZM737.045 109.74C735.645 109.74 734.605 110.3 733.905 111.44C733.285 110.3 732.305 109.74 730.965 109.74C729.665 109.74 728.665 110.28 727.985 111.34V110H726.245V120H727.985V114.44C727.985 112.42 729.085 111.4 730.545 111.4C731.845 111.4 732.665 112.3 732.665 113.84V120H734.405V114.44C734.405 112.38 735.365 111.4 736.865 111.4C738.205 111.4 739.065 112.3 739.065 113.84V120H740.805V113.78C740.805 111.3 739.285 109.74 737.045 109.74ZM749.047 108.64H750.787L748.807 106.12H747.027L745.047 108.64H746.787L747.927 107.12L749.047 108.64ZM744.207 111.26C743.187 112.28 742.687 113.52 742.687 115C742.687 116.48 743.187 117.72 744.207 118.74C745.227 119.76 746.487 120.26 747.947 120.26C749.407 120.26 750.667 119.76 751.687 118.74C752.707 117.72 753.227 116.48 753.227 115C753.227 113.52 752.707 112.28 751.687 111.26C750.667 110.24 749.407 109.74 747.947 109.74C746.487 109.74 745.227 110.24 744.207 111.26ZM747.947 118.56C746.967 118.56 746.127 118.22 745.447 117.54C744.767 116.86 744.427 116.02 744.427 115C744.427 113.98 744.767 113.14 745.447 112.46C746.127 111.78 746.967 111.44 747.947 111.44C748.947 111.44 749.787 111.78 750.467 112.46C751.147 113.14 751.487 113.98 751.487 115C751.487 116.02 751.147 116.86 750.467 117.54C749.787 118.22 748.947 118.56 747.947 118.56ZM747.947 124.04C748.587 124.04 749.107 123.52 749.107 122.88C749.107 122.24 748.587 121.7 747.947 121.7C747.287 121.7 746.767 122.24 746.767 122.88C746.767 123.52 747.287 124.04 747.947 124.04ZM760.748 110H758.088V107.2L756.348 107.72V110H754.368V111.68H756.348V117.1C756.348 119.58 757.708 120.4 760.748 120V118.44C758.968 118.52 758.088 118.64 758.088 117.1V111.68H760.748V110ZM772.627 120.26C774.567 120.26 776.267 119.24 777.127 117.66L775.647 116.8C775.087 117.86 773.967 118.54 772.627 118.54C771.627 118.54 770.787 118.2 770.107 117.52C769.447 116.84 769.107 116 769.107 115C769.107 113.98 769.447 113.14 770.107 112.46C770.787 111.78 771.627 111.44 772.627 111.44C773.967 111.44 775.087 112.14 775.587 113.2L777.047 112.36C776.267 110.76 774.607 109.74 772.627 109.74C771.127 109.74 769.867 110.24 768.867 111.26C767.867 112.26 767.367 113.5 767.367 115C767.367 116.5 767.867 117.74 768.867 118.76C769.867 119.76 771.127 120.26 772.627 120.26ZM783.875 109.74C782.415 109.74 781.335 110.3 780.635 111.44V106H778.895V120H780.635V114.7C780.635 112.46 781.795 111.4 783.535 111.4C785.075 111.4 786.015 112.34 786.015 113.96V120H787.755V113.86C787.755 111.32 786.215 109.74 783.875 109.74ZM795.314 106L793.714 108.64H795.394L797.414 106H795.314ZM797.114 115.3C797.114 117.54 795.954 118.6 794.214 118.6C792.674 118.6 791.734 117.66 791.734 116.04V110H789.994V116.14C789.994 118.68 791.534 120.26 793.874 120.26C795.334 120.26 796.414 119.7 797.114 118.56V120H798.854V110H797.114V115.3ZM806.973 110H804.313V107.2L802.573 107.72V110H800.593V111.68H802.573V117.1C802.573 119.58 803.933 120.4 806.973 120V118.44C805.193 118.52 804.313 118.64 804.313 117.1V111.68H806.973V110ZM819.131 109.74C817.671 109.74 816.591 110.3 815.891 111.44V110H814.151V120H815.891V114.7C815.891 112.46 817.051 111.4 818.791 111.4C820.331 111.4 821.271 112.34 821.271 113.96V120H823.011V113.86C823.011 111.32 821.471 109.74 819.131 109.74ZM834.19 108.76C834.19 109.64 834.05 110 833.17 110H832.37V115.3C832.37 117.54 831.21 118.6 829.47 118.6C827.93 118.6 826.99 117.66 826.99 116.04V110H825.25V116.14C825.25 118.68 826.79 120.26 829.13 120.26C830.59 120.26 831.67 119.7 832.37 118.56V120H834.11V111.26C835.33 111.02 835.73 110.2 835.73 108.76V108.52H834.19V108.76ZM828.11 108.54C828.11 107.24 828.59 107.26 829.55 108.06C831.07 109.12 832.63 108.76 832.63 106.1H831.17C831.17 107.38 830.71 107.36 829.73 106.56C828.25 105.5 826.65 105.86 826.65 108.54H828.11ZM845.069 111.72C844.209 110.4 842.949 109.74 841.289 109.74C839.889 109.74 838.689 110.26 837.709 111.28C836.729 112.3 836.229 113.54 836.229 115C836.229 116.46 836.729 117.72 837.709 118.74C838.689 119.76 839.889 120.26 841.289 120.26C842.949 120.26 844.209 119.6 845.069 118.28V120H846.809V110H845.069V111.72ZM841.509 118.58C840.509 118.58 839.669 118.24 838.989 117.56C838.309 116.86 837.969 116.02 837.969 115C837.969 113.98 838.309 113.14 838.989 112.46C839.669 111.76 840.509 111.42 841.509 111.42C842.529 111.42 843.369 111.76 844.049 112.46C844.729 113.14 845.069 113.98 845.069 115C845.069 116.02 844.729 116.86 844.049 117.56C843.369 118.24 842.529 118.58 841.509 118.58ZM859.946 110H857.286V107.2L855.546 107.72V110H853.566V111.68H855.546V117.1C855.546 119.58 856.906 120.4 859.946 120V118.44C858.166 118.52 857.286 118.64 857.286 117.1V111.68H859.946V110ZM867.074 109.74C865.614 109.74 864.534 110.3 863.834 111.44V106H862.094V120H863.834V114.7C863.834 112.46 864.994 111.4 866.734 111.4C868.274 111.4 869.214 112.34 869.214 113.96V120H870.954V113.86C870.954 111.32 869.414 109.74 867.074 109.74ZM879.313 108.64H881.173L879.053 105.94H877.133L875.013 108.64H876.873L878.093 107.02L879.313 108.64ZM874.373 111.26C873.353 112.28 872.853 113.52 872.853 115C872.853 116.48 873.353 117.72 874.373 118.74C875.393 119.76 876.653 120.26 878.113 120.26C879.573 120.26 880.833 119.76 881.853 118.74C882.873 117.72 883.393 116.48 883.393 115C883.393 113.52 882.873 112.28 881.853 111.26C880.833 110.24 879.573 109.74 878.113 109.74C876.653 109.74 875.393 110.24 874.373 111.26ZM878.113 118.56C877.133 118.56 876.293 118.22 875.613 117.54C874.933 116.86 874.593 116.02 874.593 115C874.593 113.98 874.933 113.14 875.613 112.46C876.293 111.78 877.133 111.44 878.113 111.44C879.113 111.44 879.953 111.78 880.633 112.46C881.313 113.14 881.653 113.98 881.653 115C881.653 116.02 881.313 116.86 880.633 117.54C879.953 118.22 879.113 118.56 878.113 118.56ZM886.355 108.76C886.995 108.76 887.515 108.24 887.515 107.6C887.515 106.96 886.995 106.42 886.355 106.42C885.695 106.42 885.175 106.96 885.175 107.6C885.175 108.24 885.695 108.76 886.355 108.76ZM887.215 120V110H885.475V120H887.215Z" fill="#24262E" fill-opacity="0.6"/>
<line x1="0.5" y1="179.5" x2="709.5" y2="179.5" stroke="#3A75EA"/>
<line x1="0.5" y1="179.5" x2="709.5" y2="179.5" stroke="white" stroke-opacity="0.2"/>
<line x1="1440.5" y1="179.5" x2="709.5" y2="179.5" stroke="#24262E" stroke-opacity="0.2"/>
<path d="M508.718 154.232V156.428H512.534C512.084 157.922 510.788 158.822 508.862 158.822C507.566 158.822 506.522 158.444 505.73 157.67C504.956 156.896 504.56 155.906 504.56 154.718C504.56 153.512 504.938 152.522 505.712 151.748C506.486 150.956 507.476 150.56 508.682 150.56C510.176 150.56 511.472 151.28 512.066 152.306L514.19 151.082C513.11 149.3 511.058 148.148 508.7 148.148C506.828 148.148 505.262 148.778 503.984 150.056C502.724 151.334 502.094 152.882 502.094 154.718C502.094 156.536 502.724 158.084 504.002 159.362C505.28 160.622 506.9 161.252 508.844 161.252C510.662 161.252 512.156 160.694 513.308 159.578C514.46 158.462 515.036 157.004 515.036 155.204V154.232H508.718ZM518.072 151.208C518.864 151.208 519.512 150.578 519.512 149.822C519.512 149.066 518.864 148.418 518.072 148.418C517.298 148.418 516.65 149.066 516.65 149.822C516.65 150.578 517.298 151.208 518.072 151.208ZM519.242 161V152H516.92V161H519.242ZM527.064 151.01C527.01 150.578 527.136 150.47 527.37 150.362C527.748 150.164 528.09 149.732 528.09 149.03C528.09 148.076 527.316 147.536 526.29 147.536C525.282 147.536 524.598 147.986 524.202 148.886L525.552 149.39C525.714 148.94 525.966 148.868 526.254 148.868C526.47 148.868 526.542 148.976 526.542 149.084C526.542 149.282 526.416 149.408 526.326 149.462C526.344 149.444 526.164 149.57 526.164 149.57C525.696 149.804 525.534 149.984 525.534 151.01H527.064ZM529.26 159.884C530.178 158.966 530.646 157.832 530.646 156.5C530.646 155.168 530.178 154.052 529.26 153.134C528.342 152.216 527.208 151.748 525.876 151.748C524.544 151.748 523.41 152.216 522.492 153.134C521.574 154.052 521.124 155.168 521.124 156.5C521.124 157.832 521.574 158.966 522.492 159.884C523.41 160.802 524.544 161.252 525.876 161.252C527.208 161.252 528.342 160.802 529.26 159.884ZM524.13 158.282C523.68 157.814 523.446 157.22 523.446 156.5C523.446 155.78 523.68 155.186 524.13 154.718C524.598 154.25 525.174 154.016 525.876 154.016C526.578 154.016 527.154 154.25 527.622 154.718C528.09 155.186 528.324 155.78 528.324 156.5C528.324 157.22 528.09 157.814 527.622 158.282C527.154 158.75 526.578 158.984 525.876 158.984C525.174 158.984 524.598 158.75 524.13 158.282ZM542.234 151.748C541.01 151.748 540.11 152.162 539.552 153.008V148.4H537.23V161H539.552V156.14C539.552 154.646 540.326 153.908 541.532 153.908C542.612 153.908 543.314 154.556 543.314 155.762V161H545.636V155.474C545.636 154.304 545.312 153.404 544.664 152.738C544.034 152.072 543.224 151.748 542.234 151.748ZM553.009 148.4H550.219L552.217 150.866H554.449L553.009 148.4ZM554.683 153.062C553.981 152.18 553.009 151.748 551.749 151.748C550.543 151.748 549.517 152.216 548.653 153.134C547.807 154.052 547.375 155.168 547.375 156.5C547.375 157.832 547.807 158.966 548.653 159.884C549.517 160.802 550.543 161.252 551.749 161.252C553.009 161.252 553.981 160.82 554.683 159.938V161H557.005V152H554.683V153.062ZM550.399 158.336C549.931 157.85 549.697 157.238 549.697 156.5C549.697 155.762 549.931 155.15 550.399 154.682C550.867 154.196 551.461 153.962 552.181 153.962C552.901 153.962 553.495 154.196 553.963 154.682C554.449 155.15 554.683 155.762 554.683 156.5C554.683 157.238 554.449 157.85 553.963 158.336C553.495 158.804 552.901 159.038 552.181 159.038C551.461 159.038 550.867 158.804 550.399 158.336ZM564.34 151.748C563.116 151.748 562.216 152.162 561.658 153.008V152H559.336V161H561.658V156.14C561.658 154.646 562.432 153.908 563.638 153.908C564.718 153.908 565.42 154.556 565.42 155.762V161H567.742V155.474C567.742 154.304 567.418 153.404 566.77 152.738C566.14 152.072 565.33 151.748 564.34 151.748ZM576.843 153.116C576.159 152.198 575.205 151.748 573.963 151.748C572.703 151.748 571.641 152.198 570.777 153.098C569.913 153.998 569.481 155.078 569.481 156.356C569.481 157.634 569.913 158.732 570.759 159.632C571.623 160.514 572.685 160.964 573.963 160.964C575.205 160.964 576.159 160.514 576.843 159.596V160.568C576.843 161.99 575.943 162.782 574.485 162.782C573.369 162.782 572.577 162.368 572.127 161.522L570.147 162.656C570.939 164.096 572.469 164.852 574.413 164.852C575.709 164.852 576.807 164.492 577.725 163.754C578.643 163.016 579.111 161.954 579.111 160.568V152H576.843V153.116ZM576.843 156.356C576.843 157.796 575.781 158.822 574.323 158.822C572.865 158.822 571.803 157.796 571.803 156.356C571.803 155.654 572.037 155.06 572.505 154.61C572.991 154.142 573.585 153.908 574.323 153.908C575.061 153.908 575.655 154.142 576.123 154.61C576.609 155.06 576.843 155.654 576.843 156.356Z" fill="#3A75EA"/>
<path d="M508.718 154.232V156.428H512.534C512.084 157.922 510.788 158.822 508.862 158.822C507.566 158.822 506.522 158.444 505.73 157.67C504.956 156.896 504.56 155.906 504.56 154.718C504.56 153.512 504.938 152.522 505.712 151.748C506.486 150.956 507.476 150.56 508.682 150.56C510.176 150.56 511.472 151.28 512.066 152.306L514.19 151.082C513.11 149.3 511.058 148.148 508.7 148.148C506.828 148.148 505.262 148.778 503.984 150.056C502.724 151.334 502.094 152.882 502.094 154.718C502.094 156.536 502.724 158.084 504.002 159.362C505.28 160.622 506.9 161.252 508.844 161.252C510.662 161.252 512.156 160.694 513.308 159.578C514.46 158.462 515.036 157.004 515.036 155.204V154.232H508.718ZM518.072 151.208C518.864 151.208 519.512 150.578 519.512 149.822C519.512 149.066 518.864 148.418 518.072 148.418C517.298 148.418 516.65 149.066 516.65 149.822C516.65 150.578 517.298 151.208 518.072 151.208ZM519.242 161V152H516.92V161H519.242ZM527.064 151.01C527.01 150.578 527.136 150.47 527.37 150.362C527.748 150.164 528.09 149.732 528.09 149.03C528.09 148.076 527.316 147.536 526.29 147.536C525.282 147.536 524.598 147.986 524.202 148.886L525.552 149.39C525.714 148.94 525.966 148.868 526.254 148.868C526.47 148.868 526.542 148.976 526.542 149.084C526.542 149.282 526.416 149.408 526.326 149.462C526.344 149.444 526.164 149.57 526.164 149.57C525.696 149.804 525.534 149.984 525.534 151.01H527.064ZM529.26 159.884C530.178 158.966 530.646 157.832 530.646 156.5C530.646 155.168 530.178 154.052 529.26 153.134C528.342 152.216 527.208 151.748 525.876 151.748C524.544 151.748 523.41 152.216 522.492 153.134C521.574 154.052 521.124 155.168 521.124 156.5C521.124 157.832 521.574 158.966 522.492 159.884C523.41 160.802 524.544 161.252 525.876 161.252C527.208 161.252 528.342 160.802 529.26 159.884ZM524.13 158.282C523.68 157.814 523.446 157.22 523.446 156.5C523.446 155.78 523.68 155.186 524.13 154.718C524.598 154.25 525.174 154.016 525.876 154.016C526.578 154.016 527.154 154.25 527.622 154.718C528.09 155.186 528.324 155.78 528.324 156.5C528.324 157.22 528.09 157.814 527.622 158.282C527.154 158.75 526.578 158.984 525.876 158.984C525.174 158.984 524.598 158.75 524.13 158.282ZM542.234 151.748C541.01 151.748 540.11 152.162 539.552 153.008V148.4H537.23V161H539.552V156.14C539.552 154.646 540.326 153.908 541.532 153.908C542.612 153.908 543.314 154.556 543.314 155.762V161H545.636V155.474C545.636 154.304 545.312 153.404 544.664 152.738C544.034 152.072 543.224 151.748 542.234 151.748ZM553.009 148.4H550.219L552.217 150.866H554.449L553.009 148.4ZM554.683 153.062C553.981 152.18 553.009 151.748 551.749 151.748C550.543 151.748 549.517 152.216 548.653 153.134C547.807 154.052 547.375 155.168 547.375 156.5C547.375 157.832 547.807 158.966 548.653 159.884C549.517 160.802 550.543 161.252 551.749 161.252C553.009 161.252 553.981 160.82 554.683 159.938V161H557.005V152H554.683V153.062ZM550.399 158.336C549.931 157.85 549.697 157.238 549.697 156.5C549.697 155.762 549.931 155.15 550.399 154.682C550.867 154.196 551.461 153.962 552.181 153.962C552.901 153.962 553.495 154.196 553.963 154.682C554.449 155.15 554.683 155.762 554.683 156.5C554.683 157.238 554.449 157.85 553.963 158.336C553.495 158.804 552.901 159.038 552.181 159.038C551.461 159.038 550.867 158.804 550.399 158.336ZM564.34 151.748C563.116 151.748 562.216 152.162 561.658 153.008V152H559.336V161H561.658V156.14C561.658 154.646 562.432 153.908 563.638 153.908C564.718 153.908 565.42 154.556 565.42 155.762V161H567.742V155.474C567.742 154.304 567.418 153.404 566.77 152.738C566.14 152.072 565.33 151.748 564.34 151.748ZM576.843 153.116C576.159 152.198 575.205 151.748 573.963 151.748C572.703 151.748 571.641 152.198 570.777 153.098C569.913 153.998 569.481 155.078 569.481 156.356C569.481 157.634 569.913 158.732 570.759 159.632C571.623 160.514 572.685 160.964 573.963 160.964C575.205 160.964 576.159 160.514 576.843 159.596V160.568C576.843 161.99 575.943 162.782 574.485 162.782C573.369 162.782 572.577 162.368 572.127 161.522L570.147 162.656C570.939 164.096 572.469 164.852 574.413 164.852C575.709 164.852 576.807 164.492 577.725 163.754C578.643 163.016 579.111 161.954 579.111 160.568V152H576.843V153.116ZM576.843 156.356C576.843 157.796 575.781 158.822 574.323 158.822C572.865 158.822 571.803 157.796 571.803 156.356C571.803 155.654 572.037 155.06 572.505 154.61C572.991 154.142 573.585 153.908 574.323 153.908C575.061 153.908 575.655 154.142 576.123 154.61C576.609 155.06 576.843 155.654 576.843 156.356Z" fill="white" fill-opacity="0.2"/>
<circle cx="541" cy="180" r="7.5" fill="white"/>
<circle cx="541" cy="180" r="7.5" stroke="#3A75EA"/>
<circle cx="541" cy="180" r="7.5" stroke="white" stroke-opacity="0.2"/>
<circle cx="541" cy="180" r="2" fill="#3A75EA"/>
<circle cx="541" cy="180" r="2" fill="white" fill-opacity="0.2"/>
<path d="M533.284 209V207.38H527.578L530.8 204.176C532.294 202.682 533.05 201.296 533.05 200.018C533.05 198.848 532.654 197.912 531.88 197.21C531.106 196.508 530.188 196.166 529.126 196.166C527.416 196.166 525.94 197.012 525.148 198.65L526.552 199.478C527.092 198.344 527.956 197.786 529.144 197.786C530.386 197.786 531.376 198.614 531.376 200.036C531.376 200.882 530.782 201.908 529.594 203.096L525.148 207.632V209H533.284ZM537.101 201.314L537.317 197.966H542.699V196.4H535.805L535.337 202.934H538.901C540.431 202.934 541.529 203.816 541.529 205.274C541.529 206.732 540.449 207.596 538.865 207.596C537.479 207.596 536.471 206.948 536.129 205.724L534.707 206.534C535.301 208.28 536.939 209.234 538.865 209.234C540.071 209.234 541.079 208.874 541.925 208.172C542.771 207.47 543.185 206.498 543.185 205.274C543.185 204.032 542.771 203.078 541.943 202.376C541.133 201.674 540.125 201.314 538.937 201.314H537.101ZM547.557 201.746C548.385 201.746 549.069 201.476 549.591 200.936C550.131 200.396 550.401 199.73 550.401 198.956C550.401 198.182 550.131 197.516 549.591 196.976C549.051 196.436 548.367 196.166 547.557 196.166C546.747 196.166 546.081 196.436 545.523 196.994C544.983 197.534 544.713 198.182 544.713 198.956C544.713 199.73 544.983 200.396 545.523 200.936C546.063 201.476 546.747 201.746 547.557 201.746ZM546.117 198.956C546.117 198.146 546.711 197.498 547.557 197.498C548.403 197.498 548.997 198.146 548.997 198.956C548.997 199.766 548.403 200.432 547.557 200.432C546.711 200.432 546.117 199.802 546.117 198.956ZM546.423 207.722L554.811 198.344L553.929 197.858L545.559 207.218L546.423 207.722ZM555.027 208.406C555.567 207.866 555.837 207.2 555.837 206.426C555.837 205.652 555.567 204.986 555.027 204.446C554.487 203.906 553.803 203.636 552.993 203.636C552.183 203.636 551.499 203.906 550.959 204.446C550.419 204.986 550.149 205.652 550.149 206.426C550.149 207.2 550.419 207.866 550.959 208.406C551.499 208.946 552.183 209.216 552.993 209.216C553.803 209.216 554.487 208.946 555.027 208.406ZM551.949 207.47C551.427 206.894 551.427 205.958 551.949 205.4C552.219 205.112 552.579 204.968 552.993 204.968C553.407 204.968 553.749 205.112 554.019 205.4C554.577 205.958 554.577 206.894 554.019 207.47C553.749 207.74 553.407 207.884 552.993 207.884C552.579 207.884 552.219 207.74 551.949 207.47Z" fill="#3A75EA"/>
<path d="M533.284 209V207.38H527.578L530.8 204.176C532.294 202.682 533.05 201.296 533.05 200.018C533.05 198.848 532.654 197.912 531.88 197.21C531.106 196.508 530.188 196.166 529.126 196.166C527.416 196.166 525.94 197.012 525.148 198.65L526.552 199.478C527.092 198.344 527.956 197.786 529.144 197.786C530.386 197.786 531.376 198.614 531.376 200.036C531.376 200.882 530.782 201.908 529.594 203.096L525.148 207.632V209H533.284ZM537.101 201.314L537.317 197.966H542.699V196.4H535.805L535.337 202.934H538.901C540.431 202.934 541.529 203.816 541.529 205.274C541.529 206.732 540.449 207.596 538.865 207.596C537.479 207.596 536.471 206.948 536.129 205.724L534.707 206.534C535.301 208.28 536.939 209.234 538.865 209.234C540.071 209.234 541.079 208.874 541.925 208.172C542.771 207.47 543.185 206.498 543.185 205.274C543.185 204.032 542.771 203.078 541.943 202.376C541.133 201.674 540.125 201.314 538.937 201.314H537.101ZM547.557 201.746C548.385 201.746 549.069 201.476 549.591 200.936C550.131 200.396 550.401 199.73 550.401 198.956C550.401 198.182 550.131 197.516 549.591 196.976C549.051 196.436 548.367 196.166 547.557 196.166C546.747 196.166 546.081 196.436 545.523 196.994C544.983 197.534 544.713 198.182 544.713 198.956C544.713 199.73 544.983 200.396 545.523 200.936C546.063 201.476 546.747 201.746 547.557 201.746ZM546.117 198.956C546.117 198.146 546.711 197.498 547.557 197.498C548.403 197.498 548.997 198.146 548.997 198.956C548.997 199.766 548.403 200.432 547.557 200.432C546.711 200.432 546.117 199.802 546.117 198.956ZM546.423 207.722L554.811 198.344L553.929 197.858L545.559 207.218L546.423 207.722ZM555.027 208.406C555.567 207.866 555.837 207.2 555.837 206.426C555.837 205.652 555.567 204.986 555.027 204.446C554.487 203.906 553.803 203.636 552.993 203.636C552.183 203.636 551.499 203.906 550.959 204.446C550.419 204.986 550.149 205.652 550.149 206.426C550.149 207.2 550.419 207.866 550.959 208.406C551.499 208.946 552.183 209.216 552.993 209.216C553.803 209.216 554.487 208.946 555.027 208.406ZM551.949 207.47C551.427 206.894 551.427 205.958 551.949 205.4C552.219 205.112 552.579 204.968 552.993 204.968C553.407 204.968 553.749 205.112 554.019 205.4C554.577 205.958 554.577 206.894 554.019 207.47C553.749 207.74 553.407 207.884 552.993 207.884C552.579 207.884 552.219 207.74 551.949 207.47Z" fill="white" fill-opacity="0.4"/>
<path d="M660.734 148.4V150.776H664.118V161H666.602V150.776H670.004V148.4H660.734ZM676.512 151.748C675.288 151.748 674.388 152.162 673.83 153.008V148.4H671.508V161H673.83V156.14C673.83 154.646 674.604 153.908 675.81 153.908C676.89 153.908 677.592 154.556 677.592 155.762V161H679.914V155.474C679.914 154.304 679.59 153.404 678.942 152.738C678.312 152.072 677.502 151.748 676.512 151.748ZM688.961 153.062C688.259 152.18 687.287 151.748 686.027 151.748C684.821 151.748 683.795 152.216 682.931 153.134C682.085 154.052 681.653 155.168 681.653 156.5C681.653 157.832 682.085 158.966 682.931 159.884C683.795 160.802 684.821 161.252 686.027 161.252C687.287 161.252 688.259 160.82 688.961 159.938V161H691.283V152H688.961V153.062ZM684.677 158.336C684.209 157.85 683.975 157.238 683.975 156.5C683.975 155.762 684.209 155.15 684.677 154.682C685.145 154.196 685.739 153.962 686.459 153.962C687.179 153.962 687.773 154.196 688.241 154.682C688.727 155.15 688.961 155.762 688.961 156.5C688.961 157.238 688.727 157.85 688.241 158.336C687.773 158.804 687.179 159.038 686.459 159.038C685.739 159.038 685.145 158.804 684.677 158.336ZM698.618 151.748C697.394 151.748 696.494 152.162 695.936 153.008V152H693.614V161H695.936V156.14C695.936 154.646 696.71 153.908 697.916 153.908C698.996 153.908 699.698 154.556 699.698 155.762V161H702.02V155.474C702.02 154.304 701.696 153.404 701.048 152.738C700.418 152.072 699.608 151.748 698.618 151.748ZM709.232 151.748C708.008 151.748 707.108 152.162 706.55 153.008V148.4H704.228V161H706.55V156.14C706.55 154.646 707.324 153.908 708.53 153.908C709.61 153.908 710.312 154.556 710.312 155.762V161H712.634V155.474C712.634 154.304 712.31 153.404 711.662 152.738C711.032 152.072 710.222 151.748 709.232 151.748ZM724.714 152H722.68V149.48L720.358 150.182V152H718.792V154.232H720.358V157.976C720.358 160.442 721.528 161.36 724.714 161V158.894C723.382 158.966 722.68 158.948 722.68 157.976V154.232H724.714V152ZM734.385 159.884C735.303 158.966 735.771 157.832 735.771 156.5C735.771 155.168 735.303 154.052 734.385 153.134C733.467 152.216 732.333 151.748 731.001 151.748C729.669 151.748 728.535 152.216 727.617 153.134C726.699 154.052 726.249 155.168 726.249 156.5C726.249 157.832 726.699 158.966 727.617 159.884C728.535 160.802 729.669 161.252 731.001 161.252C732.333 161.252 733.467 160.802 734.385 159.884ZM729.255 158.282C728.805 157.814 728.571 157.22 728.571 156.5C728.571 155.78 728.805 155.186 729.255 154.718C729.723 154.25 730.299 154.016 731.001 154.016C731.703 154.016 732.279 154.25 732.747 154.718C733.215 155.186 733.449 155.78 733.449 156.5C733.449 157.22 733.215 157.814 732.747 158.282C732.279 158.75 731.703 158.984 731.001 158.984C730.299 158.984 729.723 158.75 729.255 158.282ZM742.832 148.4L741.392 150.866H743.624L745.622 148.4H742.832ZM744.47 153.062C743.768 152.18 742.796 151.748 741.536 151.748C740.33 151.748 739.304 152.216 738.44 153.134C737.594 154.052 737.162 155.168 737.162 156.5C737.162 157.832 737.594 158.966 738.44 159.884C739.304 160.802 740.33 161.252 741.536 161.252C742.796 161.252 743.768 160.82 744.47 159.938V161H746.792V152H744.47V153.062ZM740.186 158.336C739.718 157.85 739.484 157.238 739.484 156.5C739.484 155.762 739.718 155.15 740.186 154.682C740.654 154.196 741.248 153.962 741.968 153.962C742.688 153.962 743.282 154.196 743.75 154.682C744.236 155.15 744.47 155.762 744.47 156.5C744.47 157.238 744.236 157.85 743.75 158.336C743.282 158.804 742.688 159.038 741.968 159.038C741.248 159.038 740.654 158.804 740.186 158.336ZM754.126 151.748C752.902 151.748 752.002 152.162 751.444 153.008V152H749.122V161H751.444V156.14C751.444 154.646 752.218 153.908 753.424 153.908C754.504 153.908 755.206 154.556 755.206 155.762V161H757.528V155.474C757.528 154.304 757.204 153.404 756.556 152.738C755.926 152.072 755.116 151.748 754.126 151.748Z" fill="#3A75EA"/>
<path d="M660.734 148.4V150.776H664.118V161H666.602V150.776H670.004V148.4H660.734ZM676.512 151.748C675.288 151.748 674.388 152.162 673.83 153.008V148.4H671.508V161H673.83V156.14C673.83 154.646 674.604 153.908 675.81 153.908C676.89 153.908 677.592 154.556 677.592 155.762V161H679.914V155.474C679.914 154.304 679.59 153.404 678.942 152.738C678.312 152.072 677.502 151.748 676.512 151.748ZM688.961 153.062C688.259 152.18 687.287 151.748 686.027 151.748C684.821 151.748 683.795 152.216 682.931 153.134C682.085 154.052 681.653 155.168 681.653 156.5C681.653 157.832 682.085 158.966 682.931 159.884C683.795 160.802 684.821 161.252 686.027 161.252C687.287 161.252 688.259 160.82 688.961 159.938V161H691.283V152H688.961V153.062ZM684.677 158.336C684.209 157.85 683.975 157.238 683.975 156.5C683.975 155.762 684.209 155.15 684.677 154.682C685.145 154.196 685.739 153.962 686.459 153.962C687.179 153.962 687.773 154.196 688.241 154.682C688.727 155.15 688.961 155.762 688.961 156.5C688.961 157.238 688.727 157.85 688.241 158.336C687.773 158.804 687.179 159.038 686.459 159.038C685.739 159.038 685.145 158.804 684.677 158.336ZM698.618 151.748C697.394 151.748 696.494 152.162 695.936 153.008V152H693.614V161H695.936V156.14C695.936 154.646 696.71 153.908 697.916 153.908C698.996 153.908 699.698 154.556 699.698 155.762V161H702.02V155.474C702.02 154.304 701.696 153.404 701.048 152.738C700.418 152.072 699.608 151.748 698.618 151.748ZM709.232 151.748C708.008 151.748 707.108 152.162 706.55 153.008V148.4H704.228V161H706.55V156.14C706.55 154.646 707.324 153.908 708.53 153.908C709.61 153.908 710.312 154.556 710.312 155.762V161H712.634V155.474C712.634 154.304 712.31 153.404 711.662 152.738C711.032 152.072 710.222 151.748 709.232 151.748ZM724.714 152H722.68V149.48L720.358 150.182V152H718.792V154.232H720.358V157.976C720.358 160.442 721.528 161.36 724.714 161V158.894C723.382 158.966 722.68 158.948 722.68 157.976V154.232H724.714V152ZM734.385 159.884C735.303 158.966 735.771 157.832 735.771 156.5C735.771 155.168 735.303 154.052 734.385 153.134C733.467 152.216 732.333 151.748 731.001 151.748C729.669 151.748 728.535 152.216 727.617 153.134C726.699 154.052 726.249 155.168 726.249 156.5C726.249 157.832 726.699 158.966 727.617 159.884C728.535 160.802 729.669 161.252 731.001 161.252C732.333 161.252 733.467 160.802 734.385 159.884ZM729.255 158.282C728.805 157.814 728.571 157.22 728.571 156.5C728.571 155.78 728.805 155.186 729.255 154.718C729.723 154.25 730.299 154.016 731.001 154.016C731.703 154.016 732.279 154.25 732.747 154.718C733.215 155.186 733.449 155.78 733.449 156.5C733.449 157.22 733.215 157.814 732.747 158.282C732.279 158.75 731.703 158.984 731.001 158.984C730.299 158.984 729.723 158.75 729.255 158.282ZM742.832 148.4L741.392 150.866H743.624L745.622 148.4H742.832ZM744.47 153.062C743.768 152.18 742.796 151.748 741.536 151.748C740.33 151.748 739.304 152.216 738.44 153.134C737.594 154.052 737.162 155.168 737.162 156.5C737.162 157.832 737.594 158.966 738.44 159.884C739.304 160.802 740.33 161.252 741.536 161.252C742.796 161.252 743.768 160.82 744.47 159.938V161H746.792V152H744.47V153.062ZM740.186 158.336C739.718 157.85 739.484 157.238 739.484 156.5C739.484 155.762 739.718 155.15 740.186 154.682C740.654 154.196 741.248 153.962 741.968 153.962C742.688 153.962 743.282 154.196 743.75 154.682C744.236 155.15 744.47 155.762 744.47 156.5C744.47 157.238 744.236 157.85 743.75 158.336C743.282 158.804 742.688 159.038 741.968 159.038C741.248 159.038 740.654 158.804 740.186 158.336ZM754.126 151.748C752.902 151.748 752.002 152.162 751.444 153.008V152H749.122V161H751.444V156.14C751.444 154.646 752.218 153.908 753.424 153.908C754.504 153.908 755.206 154.556 755.206 155.762V161H757.528V155.474C757.528 154.304 757.204 153.404 756.556 152.738C755.926 152.072 755.116 151.748 754.126 151.748Z" fill="white" fill-opacity="0.2"/>
<circle cx="709.5" cy="180" r="7.5" fill="white"/>
<circle cx="709.5" cy="180" r="7.5" stroke="#3A75EA"/>
<circle cx="709.5" cy="180" r="7.5" stroke="white" stroke-opacity="0.2"/>
<path d="M708.587 184C708.849 184 709.054 183.895 709.196 183.676L713.353 177.072C713.46 176.908 713.5 176.762 713.5 176.62C713.5 176.26 713.242 176 712.883 176C712.634 176 712.483 176.091 712.332 176.338L708.569 182.458L706.642 179.95C706.495 179.763 706.344 179.681 706.126 179.681C705.762 179.681 705.5 179.945 705.5 180.31C705.5 180.47 705.553 180.62 705.682 180.78L707.983 183.69C708.152 183.904 708.338 184 708.587 184Z" fill="#3A75EA"/>
<path d="M708.587 184C708.849 184 709.054 183.895 709.196 183.676L713.353 177.072C713.46 176.908 713.5 176.762 713.5 176.62C713.5 176.26 713.242 176 712.883 176C712.634 176 712.483 176.091 712.332 176.338L708.569 182.458L706.642 179.95C706.495 179.763 706.344 179.681 706.126 179.681C705.762 179.681 705.5 179.945 705.5 180.31C705.5 180.47 705.553 180.62 705.682 180.78L707.983 183.69C708.152 183.904 708.338 184 708.587 184Z" fill="white" fill-opacity="0.2"/>
<path d="M695.024 201.314L695.24 197.966H700.622V196.4H693.728L693.26 202.934H696.824C698.354 202.934 699.452 203.816 699.452 205.274C699.452 206.732 698.372 207.596 696.788 207.596C695.402 207.596 694.394 206.948 694.052 205.724L692.63 206.534C693.224 208.28 694.862 209.234 696.788 209.234C697.994 209.234 699.002 208.874 699.848 208.172C700.694 207.47 701.108 206.498 701.108 205.274C701.108 204.032 700.694 203.078 699.866 202.376C699.056 201.674 698.048 201.314 696.86 201.314H695.024ZM711.092 207.452C711.938 206.264 712.37 204.68 712.37 202.7C712.37 200.72 711.938 199.136 711.092 197.948C710.246 196.76 709.04 196.166 707.51 196.166C705.98 196.166 704.774 196.76 703.928 197.948C703.082 199.136 702.65 200.72 702.65 202.7C702.65 204.68 703.082 206.264 703.928 207.452C704.774 208.64 705.98 209.234 707.51 209.234C709.04 209.234 710.246 208.64 711.092 207.452ZM704.324 202.7C704.324 199.55 705.476 197.786 707.51 197.786C709.544 197.786 710.714 199.586 710.714 202.7C710.714 205.814 709.544 207.596 707.51 207.596C705.476 207.596 704.324 205.814 704.324 202.7ZM716.886 201.746C717.714 201.746 718.398 201.476 718.92 200.936C719.46 200.396 719.73 199.73 719.73 198.956C719.73 198.182 719.46 197.516 718.92 196.976C718.38 196.436 717.696 196.166 716.886 196.166C716.076 196.166 715.41 196.436 714.852 196.994C714.312 197.534 714.042 198.182 714.042 198.956C714.042 199.73 714.312 200.396 714.852 200.936C715.392 201.476 716.076 201.746 716.886 201.746ZM715.446 198.956C715.446 198.146 716.04 197.498 716.886 197.498C717.732 197.498 718.326 198.146 718.326 198.956C718.326 199.766 717.732 200.432 716.886 200.432C716.04 200.432 715.446 199.802 715.446 198.956ZM715.752 207.722L724.14 198.344L723.258 197.858L714.888 207.218L715.752 207.722ZM724.356 208.406C724.896 207.866 725.166 207.2 725.166 206.426C725.166 205.652 724.896 204.986 724.356 204.446C723.816 203.906 723.132 203.636 722.322 203.636C721.512 203.636 720.828 203.906 720.288 204.446C719.748 204.986 719.478 205.652 719.478 206.426C719.478 207.2 719.748 207.866 720.288 208.406C720.828 208.946 721.512 209.216 722.322 209.216C723.132 209.216 723.816 208.946 724.356 208.406ZM721.278 207.47C720.756 206.894 720.756 205.958 721.278 205.4C721.548 205.112 721.908 204.968 722.322 204.968C722.736 204.968 723.078 205.112 723.348 205.4C723.906 205.958 723.906 206.894 723.348 207.47C723.078 207.74 722.736 207.884 722.322 207.884C721.908 207.884 721.548 207.74 721.278 207.47Z" fill="#3A75EA"/>
<path d="M695.024 201.314L695.24 197.966H700.622V196.4H693.728L693.26 202.934H696.824C698.354 202.934 699.452 203.816 699.452 205.274C699.452 206.732 698.372 207.596 696.788 207.596C695.402 207.596 694.394 206.948 694.052 205.724L692.63 206.534C693.224 208.28 694.862 209.234 696.788 209.234C697.994 209.234 699.002 208.874 699.848 208.172C700.694 207.47 701.108 206.498 701.108 205.274C701.108 204.032 700.694 203.078 699.866 202.376C699.056 201.674 698.048 201.314 696.86 201.314H695.024ZM711.092 207.452C711.938 206.264 712.37 204.68 712.37 202.7C712.37 200.72 711.938 199.136 711.092 197.948C710.246 196.76 709.04 196.166 707.51 196.166C705.98 196.166 704.774 196.76 703.928 197.948C703.082 199.136 702.65 200.72 702.65 202.7C702.65 204.68 703.082 206.264 703.928 207.452C704.774 208.64 705.98 209.234 707.51 209.234C709.04 209.234 710.246 208.64 711.092 207.452ZM704.324 202.7C704.324 199.55 705.476 197.786 707.51 197.786C709.544 197.786 710.714 199.586 710.714 202.7C710.714 205.814 709.544 207.596 707.51 207.596C705.476 207.596 704.324 205.814 704.324 202.7ZM716.886 201.746C717.714 201.746 718.398 201.476 718.92 200.936C719.46 200.396 719.73 199.73 719.73 198.956C719.73 198.182 719.46 197.516 718.92 196.976C718.38 196.436 717.696 196.166 716.886 196.166C716.076 196.166 715.41 196.436 714.852 196.994C714.312 197.534 714.042 198.182 714.042 198.956C714.042 199.73 714.312 200.396 714.852 200.936C715.392 201.476 716.076 201.746 716.886 201.746ZM715.446 198.956C715.446 198.146 716.04 197.498 716.886 197.498C717.732 197.498 718.326 198.146 718.326 198.956C718.326 199.766 717.732 200.432 716.886 200.432C716.04 200.432 715.446 199.802 715.446 198.956ZM715.752 207.722L724.14 198.344L723.258 197.858L714.888 207.218L715.752 207.722ZM724.356 208.406C724.896 207.866 725.166 207.2 725.166 206.426C725.166 205.652 724.896 204.986 724.356 204.446C723.816 203.906 723.132 203.636 722.322 203.636C721.512 203.636 720.828 203.906 720.288 204.446C719.748 204.986 719.478 205.652 719.478 206.426C719.478 207.2 719.748 207.866 720.288 208.406C720.828 208.946 721.512 209.216 722.322 209.216C723.132 209.216 723.816 208.946 724.356 208.406ZM721.278 207.47C720.756 206.894 720.756 205.958 721.278 205.4C721.548 205.112 721.908 204.968 722.322 204.968C722.736 204.968 723.078 205.112 723.348 205.4C723.906 205.958 723.906 206.894 723.348 207.47C723.078 207.74 722.736 207.884 722.322 207.884C721.908 207.884 721.548 207.74 721.278 207.47Z" fill="white" fill-opacity="0.4"/>
<path d="M846.834 153.404H842.154V148.4H839.67V161H842.154V155.78H846.834V161H849.3V148.4H846.834V153.404ZM859.426 159.884C860.344 158.966 860.812 157.832 860.812 156.5C860.812 155.168 860.344 154.052 859.426 153.134C858.508 152.216 857.374 151.748 856.042 151.748C854.71 151.748 853.576 152.216 852.658 153.134C851.74 154.052 851.29 155.168 851.29 156.5C851.29 157.832 851.74 158.966 852.658 159.884C853.576 160.802 854.71 161.252 856.042 161.252C857.374 161.252 858.508 160.802 859.426 159.884ZM854.296 158.282C853.846 157.814 853.612 157.22 853.612 156.5C853.612 155.78 853.846 155.186 854.296 154.718C854.764 154.25 855.34 154.016 856.042 154.016C856.744 154.016 857.32 154.25 857.788 154.718C858.256 155.186 858.49 155.78 858.49 156.5C858.49 157.22 858.256 157.814 857.788 158.282C857.32 158.75 856.744 158.984 856.042 158.984C855.34 158.984 854.764 158.75 854.296 158.282ZM867.836 148.4H865.046L867.044 150.866H869.276L867.836 148.4ZM869.51 153.062C868.808 152.18 867.836 151.748 866.576 151.748C865.37 151.748 864.344 152.216 863.48 153.134C862.634 154.052 862.202 155.168 862.202 156.5C862.202 157.832 862.634 158.966 863.48 159.884C864.344 160.802 865.37 161.252 866.576 161.252C867.836 161.252 868.808 160.82 869.51 159.938V161H871.832V152H869.51V153.062ZM865.226 158.336C864.758 157.85 864.524 157.238 864.524 156.5C864.524 155.762 864.758 155.15 865.226 154.682C865.694 154.196 866.288 153.962 867.008 153.962C867.728 153.962 868.322 154.196 868.79 154.682C869.276 155.15 869.51 155.762 869.51 156.5C869.51 157.238 869.276 157.85 868.79 158.336C868.322 158.804 867.728 159.038 867.008 159.038C866.288 159.038 865.694 158.804 865.226 158.336ZM879.167 151.748C877.943 151.748 877.043 152.162 876.485 153.008V152H874.163V161H876.485V156.14C876.485 154.646 877.259 153.908 878.465 153.908C879.545 153.908 880.247 154.556 880.247 155.762V161H882.569V155.474C882.569 154.304 882.245 153.404 881.597 152.738C880.967 152.072 880.157 151.748 879.167 151.748ZM894.649 152H892.615V149.48L890.293 150.182V152H888.727V154.232H890.293V157.976C890.293 160.442 891.463 161.36 894.649 161V158.894C893.317 158.966 892.615 158.948 892.615 157.976V154.232H894.649V152ZM901.656 151.748C900.432 151.748 899.532 152.162 898.974 153.008V148.4H896.652V161H898.974V156.14C898.974 154.646 899.748 153.908 900.954 153.908C902.034 153.908 902.736 154.556 902.736 155.762V161H905.058V155.474C905.058 154.304 904.734 153.404 904.086 152.738C903.456 152.072 902.646 151.748 901.656 151.748ZM912.432 148.4H909.642L911.64 150.866H913.872L912.432 148.4ZM914.106 153.062C913.404 152.18 912.432 151.748 911.172 151.748C909.966 151.748 908.94 152.216 908.076 153.134C907.23 154.052 906.798 155.168 906.798 156.5C906.798 157.832 907.23 158.966 908.076 159.884C908.94 160.802 909.966 161.252 911.172 161.252C912.432 161.252 913.404 160.82 914.106 159.938V161H916.428V152H914.106V153.062ZM909.822 158.336C909.354 157.85 909.12 157.238 909.12 156.5C909.12 155.762 909.354 155.15 909.822 154.682C910.29 154.196 910.884 153.962 911.604 153.962C912.324 153.962 912.918 154.196 913.386 154.682C913.872 155.15 914.106 155.762 914.106 156.5C914.106 157.238 913.872 157.85 913.386 158.336C912.918 158.804 912.324 159.038 911.604 159.038C910.884 159.038 910.29 158.804 909.822 158.336ZM923.762 151.748C922.538 151.748 921.638 152.162 921.08 153.008V152H918.758V161H921.08V156.14C921.08 154.646 921.854 153.908 923.06 153.908C924.14 153.908 924.842 154.556 924.842 155.762V161H927.164V155.474C927.164 154.304 926.84 153.404 926.192 152.738C925.562 152.072 924.752 151.748 923.762 151.748ZM934.376 151.748C933.152 151.748 932.252 152.162 931.694 153.008V148.4H929.372V161H931.694V156.14C931.694 154.646 932.468 153.908 933.674 153.908C934.754 153.908 935.456 154.556 935.456 155.762V161H937.778V155.474C937.778 154.304 937.454 153.404 936.806 152.738C936.176 152.072 935.366 151.748 934.376 151.748Z" fill="#24262E" fill-opacity="0.6"/>
<path d="M894.9 192.67L884.529 174.711C884.09 173.949 883.455 173.715 882.723 173.783C882.117 173.861 881.326 174.164 880.574 174.604C878.182 175.99 877.225 178.168 874.93 179.486C873.934 180.062 873.045 180.287 872.605 180.541C872.02 180.883 871.756 181.479 872.107 182.084L876.033 188.881C876.473 189.643 877.107 189.867 877.84 189.799C878.445 189.74 879.236 189.418 879.988 188.979C882.381 187.592 883.338 185.424 885.623 184.096C886.326 183.695 886.971 183.471 887.391 183.305L893.328 193.578C893.572 194.018 894.129 194.174 894.568 193.92C894.998 193.666 895.154 193.1 894.9 192.67ZM890.213 182.074L891.268 183.9L891.6 183.305C892.029 183.471 892.664 183.695 893.367 184.096C895.652 185.424 896.609 187.592 899.012 188.979C899.754 189.418 900.545 189.74 901.15 189.799C901.883 189.867 902.527 189.643 902.967 188.881L906.883 182.084C907.234 181.479 906.98 180.883 906.395 180.541C905.945 180.287 905.057 180.062 904.061 179.486C901.775 178.168 900.818 175.99 898.416 174.604C897.674 174.164 896.883 173.861 896.268 173.783C895.535 173.715 894.91 173.949 894.461 174.711L890.213 182.074ZM888.787 188.188L887.732 186.361L884.09 192.67C883.846 193.1 883.992 193.666 884.432 193.92C884.871 194.174 885.418 194.018 885.672 193.578L888.787 188.188Z" fill="#CECECE"/>
<g style="mix-blend-mode:multiply" opacity="0.5">
<rect opacity="0.7" width="154.622" height="514.18" transform="matrix(0.837892 -0.545836 0.45675 0.889595 -214.44 50.543)" fill="#24262E" fill-opacity="0.2"/>
<rect opacity="0.3" width="154.622" height="514.18" transform="matrix(0.837892 -0.545836 0.45675 0.889595 -84.8828 -33.8545)" fill="#24262E" fill-opacity="0.2"/>
</g>
<g style="mix-blend-mode:multiply" opacity="0.2">
<path d="M1244 66H1204L1244 106V66Z" fill="#24262E" fill-opacity="0.2"/>
<path d="M1244 26H1204L1244 66V26Z" fill="#24262E" fill-opacity="0.2"/>
<path d="M1284 66H1244L1284 106V66Z" fill="#24262E" fill-opacity="0.2"/>
<path d="M1284 26H1244L1284 66V26Z" fill="#24262E" fill-opacity="0.2"/>
<path d="M1324 66H1284L1324 106V66Z" fill="#24262E" fill-opacity="0.2"/>
<path d="M1324 26H1284L1324 66V26Z" fill="#24262E" fill-opacity="0.2"/>
<path d="M1364 66H1324L1364 106V66Z" fill="#24262E" fill-opacity="0.2"/>
<path d="M1364 26H1324L1364 66V26Z" fill="#24262E" fill-opacity="0.2"/>
</g>
</g>
<defs>
<clipPath id="clip0">
<rect width="1440" height="244" fill="white"/>
</clipPath>
</defs>
</svg>
