<svg width="72" height="80" viewBox="0 0 72 80" fill="none" xmlns="http://www.w3.org/2000/svg">
<path d="M4.18958 77.6345C12.7551 61.6312 7.75854 34.1334 4.18958 22.385C4.18958 22.385 45.1551 22.385 65.1723 5.71533C65.1723 5.71533 80.5344 43.3421 65.1723 71.919C41.3379 82.9689 14.5861 80.3335 4.18958 77.6345Z" fill="#24262E" fill-opacity="0.8"/>
<path d="M-0.00012207 72.3952C8.5654 56.3919 3.56884 28.8942 -0.00012207 17.1457C-0.00012207 17.1457 40.9654 17.1457 60.9826 0.476074C60.9826 0.476074 76.3447 38.1029 60.9826 66.6797C37.1482 77.7297 10.3964 75.0942 -0.00012207 72.3952Z" fill="#FCFCFD"/>
<ellipse cx="21.4137" cy="16.1938" rx="3.25862" ry="8.5732" fill="#FCFCFD"/>
<path d="M24.1723 16.1938C24.1723 18.5165 23.8136 20.5968 23.2505 22.0783C22.9682 22.8208 22.6444 23.3872 22.3102 23.7591C21.9758 24.1312 21.6719 24.267 21.4136 24.267C21.1554 24.267 20.8515 24.1312 20.5171 23.7591C20.1829 23.3872 19.8591 22.8208 19.5768 22.0783C19.0137 20.5968 18.655 18.5165 18.655 16.1938C18.655 13.8711 19.0137 11.7908 19.5768 10.3093C19.8591 9.56679 20.1829 9.00044 20.5171 8.62853C20.8515 8.25644 21.1554 8.12061 21.4136 8.12061C21.6719 8.12061 21.9758 8.25644 22.3102 8.62853C22.6444 9.00044 22.9682 9.56679 23.2505 10.3093C23.8136 11.7908 24.1723 13.8711 24.1723 16.1938Z" stroke="#24262E" stroke-opacity="0.8"/>
<ellipse cx="32.5861" cy="12.3837" rx="3.25862" ry="8.5732" fill="#FCFCFD"/>
<path d="M35.3448 12.3837C35.3448 14.7064 34.9861 16.7868 34.423 18.2683C34.1407 19.0108 33.8169 19.5771 33.4826 19.949C33.1483 20.3211 32.8444 20.4569 32.5861 20.4569C32.3279 20.4569 32.024 20.3211 31.6896 19.949C31.3554 19.5771 31.0315 19.0108 30.7493 18.2683C30.1862 16.7868 29.8275 14.7064 29.8275 12.3837C29.8275 10.0611 30.1862 7.9807 30.7493 6.49923C31.0315 5.75674 31.3554 5.19038 31.6896 4.81847C32.024 4.44638 32.3279 4.31055 32.5861 4.31055C32.8444 4.31055 33.1483 4.44638 33.4826 4.81847C33.8169 5.19038 34.1407 5.75674 34.423 6.49923C34.9861 7.9807 35.3448 10.0611 35.3448 12.3837Z" stroke="#24262E" stroke-opacity="0.8"/>
<ellipse cx="44.6895" cy="8.5732" rx="3.25862" ry="8.5732" fill="#FCFCFD"/>
<path d="M47.4481 8.5732C47.4481 10.8959 47.0894 12.9762 46.5263 14.4577C46.2441 15.2002 45.9202 15.7666 45.586 16.1385C45.2517 16.5106 44.9478 16.6464 44.6895 16.6464C44.4313 16.6464 44.1274 16.5106 43.793 16.1385C43.4588 15.7666 43.1349 15.2002 42.8527 14.4577C42.2896 12.9762 41.9309 10.8959 41.9309 8.5732C41.9309 6.25051 42.2896 4.17016 42.8527 2.68868C43.1349 1.94619 43.4588 1.37984 43.793 1.00793C44.1274 0.635837 44.4313 0.5 44.6895 0.5C44.9478 0.5 45.2517 0.635837 45.586 1.00793C45.9202 1.37984 46.2441 1.94619 46.5263 2.68868C47.0894 4.17016 47.4481 6.25051 47.4481 8.5732Z" stroke="#24262E" stroke-opacity="0.8"/>
<g clip-path="url(#clip0)">
<path d="M23.966 62.9697L10.4632 64.9095L10.636 63.8966C12.3468 63.6467 13.535 63.2386 14.2445 62.6217C15.0877 61.9011 15.6674 60.672 15.9836 58.9345L20.3153 36.1417C20.5992 34.6448 20.2315 33.9519 19.2613 34.1079C18.8925 34.1786 17.6662 34.7323 15.6756 35.7631L15.8484 34.7502L26.0097 28.3903L20.3457 58.567C20.0266 60.257 20.1847 61.3446 20.8636 61.7794C21.3452 62.0357 22.4224 62.1116 24.1388 61.9569L23.966 62.9697Z" fill="#24262E" fill-opacity="0.8"/>
<path d="M56.7861 48.6599L51.4681 49.4211L49.6241 59.175L45.0439 59.7947L46.8879 50.0408L32.0869 52.1092L33.0412 46.9917L54.4836 19.4097L57.1672 19.0514L52.279 45.0282L57.5971 44.267L56.7861 48.6599ZM47.7016 45.6955L51.2434 26.8648L35.076 47.4851L47.7016 45.6955Z" fill="#24262E" fill-opacity="0.8"/>
</g>
<defs>
<clipPath id="clip0">
<rect width="49.3491" height="42.8624" fill="white" transform="matrix(0.99806 -0.0622547 0.0594808 0.998229 7.9137 22.1235)"/>
</clipPath>
</defs>
</svg>
