<svg width="73" height="49" viewBox="0 0 73 49" fill="none" xmlns="http://www.w3.org/2000/svg">
<path d="M6.58492 45.2228L3.84047 8.4405C3.71065 6.70055 5.08736 5.21729 6.83215 5.21729H65.3108C66.8607 5.21729 68.1554 6.3979 68.298 7.94122L71.6972 44.7235C71.8597 46.4819 70.4758 47.9995 68.71 47.9995H9.5766C8.00634 47.9995 6.70175 46.7887 6.58492 45.2228Z" fill="#24262E" fill-opacity="0.8" stroke="#FCFCFD" stroke-linecap="round"/>
<path d="M2.98482 40.0055L0.240373 3.22322C0.110549 1.48326 1.48726 0 3.23206 0H61.7107C63.2606 0 64.5553 1.18062 64.6979 2.72393L68.0971 39.5062C68.2596 41.2646 66.8757 42.7823 65.1099 42.7823H5.9765C4.40624 42.7823 3.10166 41.5714 2.98482 40.0055Z" fill="#FCFCFD"/>
<path d="M42.7804 34.6691L42.4588 30.3214C42.373 29.1619 43.2907 28.1738 44.4533 28.1738H60.3324C61.3573 28.1738 62.2163 28.9486 62.3218 29.968L62.7717 34.3157C62.8937 35.4954 61.9683 36.5216 60.7823 36.5216H44.775C43.7277 36.5216 42.8577 35.7136 42.7804 34.6691Z" fill="#24262E" fill-opacity="0.8"/>
<path d="M7.19983 29.2173H19.7998" stroke="#24262E" stroke-opacity="0.8" stroke-width="2" stroke-linecap="round"/>
<path d="M8.09998 35.478H32.4" stroke="#24262E" stroke-opacity="0.8" stroke-width="2" stroke-linecap="round"/>
</svg>
