<svg width="48" height="48" viewBox="0 0 48 48" fill="none" xmlns="http://www.w3.org/2000/svg">
<path d="M47.3309 39.2443C46.3323 37.3166 44.3189 36 41.9994 36H2.31799L8.30514 24H35.9994C38.3103 24 40.316 25.3063 41.318 27.2211L41.324 27.2331L41.4072 27.3986L41.4174 27.42L47.3309 39.2443Z" fill="url(#paint0_linear)"/>
<path d="M32.291 36L36.5802 44.5774C37.5444 46.6011 39.6084 48 41.9999 48C45.3136 48 47.9999 45.3137 47.9999 42C47.9999 41.0674 47.7865 40.1854 47.4085 39.3986L47.3313 39.2451V39.2443C46.3327 37.3166 44.3193 36 41.9999 36H32.291Z" fill="url(#paint1_linear)"/>
<path d="M15.7089 36L11.4137 44.5903L11.4086 44.6006L11.3254 44.766C10.3251 46.6886 8.31515 48 6 48C2.68629 48 0 45.3137 0 42C0 41.2149 0.150857 40.464 0.425143 39.7766L0.428572 39.7714L0.869143 38.8886L0.870858 38.886L8.30572 24L2.31857 36H15.7089Z" fill="white"/>
<path d="M31.9717 8.53115C31.7051 8.11115 31.2371 7.83258 30.704 7.83258L28.2946 10.8283L24.0106 19.3946L23.9994 19.4177L21.7083 24L15.7083 36H2.31799L8.30514 24L18.56 3.46714C19.514 1.41943 21.5909 0 23.9994 0C26.4131 0 28.4934 1.42457 29.4457 3.48L31.9717 8.53115Z" fill="white"/>
<path d="M24.0111 19.3947C24.9917 21.3712 27.0308 22.7281 29.3871 22.7281C32.7008 22.7281 35.3871 20.0418 35.3871 16.7281C35.3871 15.9489 35.2388 15.2049 34.968 14.5218V14.5209L34.506 13.5969L34.5043 13.5944L32.1128 8.80979L31.9723 8.53036C31.7057 8.11036 31.2377 7.83179 30.7045 7.83179C30.1774 7.83179 29.7145 8.10436 29.4471 8.51579C29.1385 9.1355 24.0111 19.3947 24.0111 19.3947Z" fill="url(#paint2_linear)"/>
<defs>
<linearGradient id="paint0_linear" x1="26.6666" y1="34" x2="10.3333" y2="29.3334" gradientUnits="userSpaceOnUse">
<stop stop-color="white"/>
<stop offset="1" stop-color="#9C9C9C"/>
</linearGradient>
<linearGradient id="paint1_linear" x1="40.7883" y1="43.8718" x2="26.7011" y2="31.4105" gradientUnits="userSpaceOnUse">
<stop stop-color="white"/>
<stop offset="1" stop-color="#505050"/>
</linearGradient>
<linearGradient id="paint2_linear" x1="33.3333" y1="21.6666" x2="25.9999" y2="13.6666" gradientUnits="userSpaceOnUse">
<stop stop-color="white"/>
<stop offset="1" stop-color="#C9C9C9"/>
</linearGradient>
</defs>
</svg>
