<svg width="72" height="80" viewBox="0 0 72 80" fill="none" xmlns="http://www.w3.org/2000/svg">
<path d="M25.4354 7.66793C19.018 13.3578 7.72737 17.8386 6.65383 21.5857C2.36123 31.2213 13.0934 82.0757 41.5335 79.9345C68.0194 77.9404 76.9531 20.3712 69.4374 17.3038C57.632 12.4857 46.8998 8.95303 40.4605 5.52693C34.0212 2.10083 30.2649 3.38597 25.4354 7.66793Z" fill="#24262E" fill-opacity="0.8"/>
<path d="M19.6936 4.10153C13.2762 9.79137 1.98555 14.2722 0.912005 18.0193C-3.38059 27.6549 7.35155 78.5093 35.7917 76.3681C62.2776 74.374 71.2113 16.8047 63.6956 13.7374C51.8902 8.91931 41.158 5.38662 34.7187 1.96052C28.2794 -1.46558 24.5231 -0.18044 19.6936 4.10153Z" fill="#FCFCFD"/>
<path d="M19.2528 42.4208C19.2528 42.4208 28.8626 49.9826 31.843 48.9377C34.8235 47.8928 46.6989 23.8196 46.6989 23.8196" stroke="#24262E" stroke-opacity="0.8" stroke-width="2" stroke-linecap="round"/>
</svg>
