<svg width="160" height="160" viewBox="0 0 160 160" fill="none" xmlns="http://www.w3.org/2000/svg">
<path d="M17.1431 75.4898L64.9402 104.906L78.286 96.6909C78.7826 96.3855 79.3886 96.2203 80.0117 96.2203C80.6348 96.2203 81.2408 96.3855 81.7374 96.6909L95.0717 104.897L142.857 75.4898V31.3213H17.1431V75.4898ZM80.0003 42.9116C86.8178 42.9178 93.3539 45.1178 98.1747 49.0289C102.995 52.9401 105.707 58.243 105.715 63.7743V68.4104C105.718 69.9188 105.115 71.387 103.998 72.5926C102.88 73.7983 101.309 74.6758 99.5225 75.0923C97.7356 75.5089 95.8301 75.4417 94.0944 74.9011C92.3587 74.3605 90.8874 73.3758 89.9031 72.0962C87.532 73.9433 84.4469 75.0688 81.1703 75.2824C77.8936 75.4959 74.6267 74.7842 71.9226 73.2678C69.2184 71.7514 67.2432 69.5235 66.3313 66.9612C65.4194 64.3989 65.6268 61.6597 66.9184 59.2072C68.2101 56.7548 70.5066 54.7398 73.4191 53.5033C76.3317 52.2669 79.6814 51.885 82.9012 52.4223C86.121 52.9596 89.013 54.3831 91.0877 56.4518C93.1624 58.5205 94.2922 61.1073 94.286 63.7743V68.4104C94.286 69.0252 94.587 69.6148 95.1228 70.0495C95.6586 70.4843 96.3854 70.7285 97.1431 70.7285C97.9009 70.7285 98.6276 70.4843 99.1634 70.0495C99.6993 69.6148 100 69.0252 100 68.4104V63.7743C100 60.565 98.8273 57.4278 96.6297 54.7593C94.432 52.0909 91.3085 50.0111 87.6539 48.783C83.9994 47.5548 79.9781 47.2335 76.0984 47.8596C72.2188 48.4857 68.6552 50.0311 65.8581 52.3004C63.0611 54.5697 61.1562 57.461 60.3845 60.6086C59.6128 63.7563 60.0089 67.0189 61.5227 69.9839C63.0364 72.9489 65.5999 75.4831 68.8888 77.2661C72.1778 79.0491 76.0446 80.0008 80.0003 80.0008H88.5717C89.3295 80.0008 90.0562 80.245 90.592 80.6797C91.1278 81.1144 91.4288 81.7041 91.4288 82.3188C91.4288 82.9336 91.1278 83.5233 90.592 83.958C90.0562 84.3927 89.3295 84.6369 88.5717 84.6369H80.0003C73.1804 84.6369 66.6399 82.4389 61.8175 78.5264C56.9951 74.6139 54.286 69.3074 54.286 63.7743C54.286 58.2412 56.9951 52.9347 61.8175 49.0222C66.6399 45.1097 73.1804 42.9116 80.0003 42.9116Z" fill="white"/>
<path d="M17.1431 75.4898L64.9402 104.906L78.286 96.6909C78.7826 96.3855 79.3886 96.2203 80.0117 96.2203C80.6348 96.2203 81.2408 96.3855 81.7374 96.6909L95.0717 104.897L142.857 75.4898V31.3213H17.1431V75.4898ZM80.0003 42.9116C86.8178 42.9178 93.3539 45.1178 98.1747 49.0289C102.995 52.9401 105.707 58.243 105.715 63.7743V68.4104C105.718 69.9188 105.115 71.387 103.998 72.5926C102.88 73.7983 101.309 74.6758 99.5225 75.0923C97.7356 75.5089 95.8301 75.4417 94.0944 74.9011C92.3587 74.3605 90.8874 73.3758 89.9031 72.0962C87.532 73.9433 84.4469 75.0688 81.1703 75.2824C77.8936 75.4959 74.6267 74.7842 71.9226 73.2678C69.2184 71.7514 67.2432 69.5235 66.3313 66.9612C65.4194 64.3989 65.6268 61.6597 66.9184 59.2072C68.2101 56.7548 70.5066 54.7398 73.4191 53.5033C76.3317 52.2669 79.6814 51.885 82.9012 52.4223C86.121 52.9596 89.013 54.3831 91.0877 56.4518C93.1624 58.5205 94.2922 61.1073 94.286 63.7743V68.4104C94.286 69.0252 94.587 69.6148 95.1228 70.0495C95.6586 70.4843 96.3854 70.7285 97.1431 70.7285C97.9009 70.7285 98.6276 70.4843 99.1634 70.0495C99.6993 69.6148 100 69.0252 100 68.4104V63.7743C100 60.565 98.8273 57.4278 96.6297 54.7593C94.432 52.0909 91.3085 50.0111 87.6539 48.783C83.9994 47.5548 79.9781 47.2335 76.0984 47.8596C72.2188 48.4857 68.6552 50.0311 65.8581 52.3004C63.0611 54.5697 61.1562 57.461 60.3845 60.6086C59.6128 63.7563 60.0089 67.0189 61.5227 69.9839C63.0364 72.9489 65.5999 75.4831 68.8888 77.2661C72.1778 79.0491 76.0446 80.0008 80.0003 80.0008H88.5717C89.3295 80.0008 90.0562 80.245 90.592 80.6797C91.1278 81.1144 91.4288 81.7041 91.4288 82.3188C91.4288 82.9336 91.1278 83.5233 90.592 83.958C90.0562 84.3927 89.3295 84.6369 88.5717 84.6369H80.0003C73.1804 84.6369 66.6399 82.4389 61.8175 78.5264C56.9951 74.6139 54.286 69.3074 54.286 63.7743C54.286 58.2412 56.9951 52.9347 61.8175 49.0222C66.6399 45.1097 73.1804 42.9116 80.0003 42.9116Z" fill="black" fill-opacity="0.06"/>
<path d="M80.0001 60.3778C84.734 60.3778 88.5716 56.3231 88.5716 51.3212C88.5716 46.3194 84.734 42.2646 80.0001 42.2646C75.2663 42.2646 71.4287 46.3194 71.4287 51.3212C71.4287 56.3231 75.2663 60.3778 80.0001 60.3778Z" fill="#24262E" fill-opacity="0.2"/>
<path d="M1.87109 54.3395L11.4282 61.9984V46.6807L1.87109 54.3395Z" fill="#24262E" fill-opacity="0.2"/>
<path d="M0 156.939L60.2115 108.676L0 60.4199V156.939Z" fill="#24262E" fill-opacity="0.2"/>
<path d="M148.571 61.9993L158.128 54.3404L148.571 46.6846V61.9993Z" fill="#24262E" fill-opacity="0.2"/>
<path d="M160 60.4199L99.7886 108.676L160 156.939V60.4199Z" fill="#24262E" fill-opacity="0.2"/>
<path d="M80.0006 100.394L5.6377 160.001H154.364L80.0006 100.394Z" fill="#24262E" fill-opacity="0.2"/>
<rect x="45.3574" y="36.9814" width="67.1429" height="54.3396" fill="#F0F0F0"/>
<circle cx="80" cy="30" r="18" fill="white"/>
<path d="M80.0002 60.3773C95.6693 60.3773 108.572 46.7447 108.572 30.1887C108.572 13.6616 95.6419 0 79.9728 0C64.3311 0 51.4287 13.6616 51.4287 30.1887C51.4287 46.7447 64.3311 60.3773 80.0002 60.3773ZM76.9595 44.5738C75.8363 44.5738 74.9597 44.0529 74.1379 42.9819L67.5361 34.5881C66.9882 33.8645 66.7417 33.1699 66.7417 32.3884C66.7417 30.7675 67.947 29.465 69.481 29.465C70.385 29.465 71.0973 29.8413 71.8095 30.7675L76.8773 37.4826L87.9169 18.8426C88.5743 17.7717 89.3961 17.1928 90.3549 17.1928C91.8342 17.1928 93.2038 18.3216 93.2038 19.9425C93.2038 20.6371 92.8751 21.4186 92.4642 22.0843L79.6714 42.953C79.014 43.995 78.0552 44.5738 76.9595 44.5738Z" fill="#5FC09A"/>
</svg>
