<svg width="29" height="40" viewBox="0 0 29 40" fill="none" xmlns="http://www.w3.org/2000/svg">
<path d="M4.91992 39.3467H24.0449C26.9805 39.3467 28.8086 37.5889 28.8086 34.7412V5.24512C28.8086 2.39746 26.9805 0.62207 24.0449 0.62207H4.91992C2.00195 0.62207 0.173828 2.39746 0.173828 5.24512V34.7412C0.173828 37.5889 2.00195 39.3467 4.91992 39.3467ZM14.4824 4.4541C13.9902 4.4541 13.5859 4.0498 13.5859 3.55762C13.5859 3.08301 13.9902 2.66113 14.4824 2.66113C14.9746 2.66113 15.3965 3.08301 15.3965 3.55762C15.3965 4.0498 14.9746 4.4541 14.4824 4.4541ZM2.35352 33.7744V6.21191H26.6289V33.7744H2.35352ZM14.5176 37.7119C13.7266 37.7119 13.0762 37.0791 13.0762 36.2881C13.0762 35.5146 13.7266 34.8818 14.5176 34.8818C15.291 34.8818 15.9238 35.5146 15.9238 36.2881C15.9238 37.0791 15.291 37.7119 14.5176 37.7119Z" fill="#3A75EA"/>
<path d="M4.91992 39.3467H24.0449C26.9805 39.3467 28.8086 37.5889 28.8086 34.7412V5.24512C28.8086 2.39746 26.9805 0.62207 24.0449 0.62207H4.91992C2.00195 0.62207 0.173828 2.39746 0.173828 5.24512V34.7412C0.173828 37.5889 2.00195 39.3467 4.91992 39.3467ZM14.4824 4.4541C13.9902 4.4541 13.5859 4.0498 13.5859 3.55762C13.5859 3.08301 13.9902 2.66113 14.4824 2.66113C14.9746 2.66113 15.3965 3.08301 15.3965 3.55762C15.3965 4.0498 14.9746 4.4541 14.4824 4.4541ZM2.35352 33.7744V6.21191H26.6289V33.7744H2.35352ZM14.5176 37.7119C13.7266 37.7119 13.0762 37.0791 13.0762 36.2881C13.0762 35.5146 13.7266 34.8818 14.5176 34.8818C15.291 34.8818 15.9238 35.5146 15.9238 36.2881C15.9238 37.0791 15.291 37.7119 14.5176 37.7119Z" fill="white" fill-opacity="0.2"/>
</svg>
