<svg width="32" height="32" viewBox="0 0 32 32" fill="none" xmlns="http://www.w3.org/2000/svg">
<path d="M16.0234 17.9102C16.5039 17.9102 16.9492 17.6875 17.4648 17.1719L27.6602 7.08203C27.2266 6.66016 26.418 6.46094 25.2578 6.46094H6.39062C5.40625 6.46094 4.71484 6.64844 4.32812 7.03516L14.582 17.1719C15.0859 17.6758 15.5312 17.9102 16.0234 17.9102ZM3.35547 24.7656L11.6406 16.5742L3.33203 8.38281C3.15625 8.71094 3.0625 9.27344 3.0625 10.082V23.0195C3.0625 23.8516 3.15625 24.4375 3.35547 24.7656ZM28.6562 24.7539C28.8438 24.4141 28.9375 23.8398 28.9375 23.0195V10.082C28.9375 9.29688 28.8438 8.73438 28.6797 8.41797L20.3945 16.5742L28.6562 24.7539ZM6.74219 26.6523H25.6094C26.5938 26.6523 27.2734 26.4648 27.6602 26.0898L19.2109 17.7227L18.4375 18.5078C17.6289 19.2812 16.8672 19.6328 16.0234 19.6328C15.168 19.6328 14.4062 19.2812 13.6094 18.5078L12.8242 17.7227L4.39844 26.0781C4.84375 26.4648 5.61719 26.6523 6.74219 26.6523Z" fill="#FCFCFD" fill-opacity="0.6"/>
</svg>
