<svg width="24" height="24" viewBox="0 0 24 24" fill="none" xmlns="http://www.w3.org/2000/svg">
<path d="M13.9941 22.7695C14.7363 22.7695 15.2637 22.1641 15.625 21.2266L22.0703 4.38086C22.2363 3.94141 22.334 3.56055 22.334 3.22852C22.334 2.53516 21.8945 2.0957 21.2012 2.0957C20.8789 2.0957 20.4883 2.19336 20.0488 2.35938L3.13477 8.83398C2.29492 9.15625 1.66016 9.68359 1.66016 10.4453C1.66016 11.373 2.35352 11.7246 3.31055 12.0078L8.37891 13.5605C9.0625 13.7656 9.45312 13.7559 9.93164 13.3164L20.8008 3.23828C20.9375 3.12109 21.0938 3.13086 21.2012 3.22852C21.3086 3.33594 21.3184 3.50195 21.1914 3.63867L11.1426 14.5176C10.7324 14.9668 10.6934 15.3867 10.8984 16.0801L12.4023 21.041C12.7051 22.0371 13.0469 22.7695 13.9941 22.7695Z" fill="#FCFCFD"/>
</svg>
