<svg width="32" height="32" viewBox="0 0 32 32" fill="none" xmlns="http://www.w3.org/2000/svg">
<path d="M7.74805 7.41309C7.23047 7.41309 6.99609 7.74512 6.91797 8.13574C6.84961 8.43848 6.83008 8.91699 6.83008 9.49316C6.83008 14.2197 8.72461 16.251 13.3535 16.251H20.1797L22.5723 16.1143L19.2812 19.1123L17.1133 21.3193C16.957 21.4854 16.8789 21.71 16.8789 21.9443C16.8789 22.4326 17.25 22.7842 17.7383 22.7842C17.9629 22.7842 18.1777 22.6963 18.3926 22.4912L24.8574 16.0361C25.0625 15.8408 25.1602 15.6162 25.1602 15.3721C25.1602 15.1377 25.0625 14.9033 24.8574 14.7178L18.373 8.2334C18.1777 8.04785 17.9629 7.96973 17.7383 7.96973C17.25 7.96973 16.8789 8.32129 16.8789 8.80957C16.8789 9.04395 16.9668 9.26855 17.1133 9.4248L19.2812 11.6318L22.582 14.6494L20.1797 14.5029H13.4414C9.85742 14.5029 8.59766 13.0283 8.59766 9.40527C8.59766 8.93652 8.62695 8.62402 8.62695 8.27246C8.62695 7.76465 8.25586 7.41309 7.74805 7.41309Z" fill="#24262E" fill-opacity="0.2"/>
</svg>
