<svg width="24" height="24" viewBox="0 0 24 24" fill="none" xmlns="http://www.w3.org/2000/svg">
<path d="M5.94141 13.1289L10.6465 17.8281C11.543 18.7246 12.4629 18.7305 13.3477 17.8398L18.0703 13.1172C18.9609 12.2266 18.9551 11.3066 18.0586 10.4102L13.3594 5.71094C12.4629 4.81445 11.543 4.80859 10.6523 5.69922L5.92969 10.4219C5.03906 11.3125 5.05078 12.2324 5.94141 13.1289Z" fill="#3A75EA"/>
<path d="M5.94141 13.1289L10.6465 17.8281C11.543 18.7246 12.4629 18.7305 13.3477 17.8398L18.0703 13.1172C18.9609 12.2266 18.9551 11.3066 18.0586 10.4102L13.3594 5.71094C12.4629 4.81445 11.543 4.80859 10.6523 5.69922L5.92969 10.4219C5.03906 11.3125 5.05078 12.2324 5.94141 13.1289Z" fill="white" fill-opacity="0.2"/>
</svg>
