<svg width="24" height="24" viewBox="0 0 24 24" fill="none" xmlns="http://www.w3.org/2000/svg">
<path d="M12 22.0371C17.5176 22.0371 22.0879 17.4766 22.0879 11.9492C22.0879 6.43164 17.5176 1.86133 11.9902 1.86133C6.47266 1.86133 1.91211 6.43164 1.91211 11.9492C1.91211 17.4766 6.48242 22.0371 12 22.0371ZM11.7754 13.9805C11.1504 13.9805 10.8086 13.6777 10.8086 13.1016V12.9941C10.8086 12.0664 11.3359 11.5488 12.0488 11.041C12.918 10.4453 13.3379 10.1328 13.3379 9.48828C13.3379 8.80469 12.791 8.32617 11.9707 8.32617C11.3652 8.32617 10.8965 8.60938 10.5449 9.16602L10.3887 9.38086C10.1836 9.64453 9.92969 9.80078 9.55859 9.80078C9.14844 9.80078 8.75781 9.49805 8.75781 9.00977C8.75781 8.81445 8.79688 8.64844 8.85547 8.47266C9.17773 7.52539 10.3496 6.73438 12.0977 6.73438C13.9043 6.73438 15.4277 7.69141 15.4277 9.39062C15.4277 10.5723 14.7734 11.1582 13.7773 11.8027C13.1133 12.2324 12.7617 12.584 12.7227 13.1113C12.7227 13.1504 12.7227 13.1895 12.7227 13.2285C12.6934 13.6484 12.332 13.9805 11.7754 13.9805ZM11.7559 17.0859C11.1113 17.0859 10.5645 16.6074 10.5645 15.9727C10.5645 15.3379 11.1016 14.8496 11.7559 14.8496C12.4199 14.8496 12.957 15.3281 12.957 15.9727C12.957 16.6172 12.4102 17.0859 11.7559 17.0859Z" fill="#24262E" fill-opacity="0.49"/>
</svg>
