<svg width="36" height="36" viewBox="0 0 36 36" fill="none" xmlns="http://www.w3.org/2000/svg">
<path d="M29.4121 12.4521C32.5762 12.4521 35.2129 9.83301 35.2129 6.65137C35.2129 3.46973 32.5762 0.850586 29.4121 0.850586C26.2305 0.850586 23.6113 3.46973 23.6113 6.65137C23.6113 9.83301 26.2305 12.4521 29.4121 12.4521ZM0.144531 26.7783C0.144531 29.96 0.478516 32.21 2.0957 33.8271C3.74805 35.4619 5.99805 35.8135 9.17969 35.8135H22.8027C26.002 35.8135 28.2695 35.4619 29.8867 33.8271C31.5215 32.21 31.8555 29.96 31.8555 26.7783V14.2627C31.3457 14.4033 30.7832 14.4561 30.2031 14.3857C30.0273 14.4385 29.8691 14.4561 29.6758 14.4736V27.2354C29.6758 29.3271 29.3594 31.1553 28.2871 32.2275C27.2148 33.3174 25.3516 33.6338 23.2773 33.6338H8.72266C6.64844 33.6338 4.78516 33.2998 3.71289 32.2275C2.62305 31.1553 2.32422 29.3271 2.32422 27.2354V12.874C2.32422 10.7119 2.62305 8.84863 3.69531 7.77637C4.76758 6.68652 6.66602 6.37012 8.82812 6.37012H21.5723C21.5898 6.19434 21.6074 6.01855 21.6602 5.84277C21.5898 5.2627 21.6426 4.71777 21.7832 4.20801H9.07422C6.01562 4.20801 3.74805 4.55957 2.11328 6.19434C0.496094 7.81152 0.144531 10.0615 0.144531 13.1377V26.7783Z" fill="#3A75EA"/>
<path d="M29.4121 12.4521C32.5762 12.4521 35.2129 9.83301 35.2129 6.65137C35.2129 3.46973 32.5762 0.850586 29.4121 0.850586C26.2305 0.850586 23.6113 3.46973 23.6113 6.65137C23.6113 9.83301 26.2305 12.4521 29.4121 12.4521ZM0.144531 26.7783C0.144531 29.96 0.478516 32.21 2.0957 33.8271C3.74805 35.4619 5.99805 35.8135 9.17969 35.8135H22.8027C26.002 35.8135 28.2695 35.4619 29.8867 33.8271C31.5215 32.21 31.8555 29.96 31.8555 26.7783V14.2627C31.3457 14.4033 30.7832 14.4561 30.2031 14.3857C30.0273 14.4385 29.8691 14.4561 29.6758 14.4736V27.2354C29.6758 29.3271 29.3594 31.1553 28.2871 32.2275C27.2148 33.3174 25.3516 33.6338 23.2773 33.6338H8.72266C6.64844 33.6338 4.78516 33.2998 3.71289 32.2275C2.62305 31.1553 2.32422 29.3271 2.32422 27.2354V12.874C2.32422 10.7119 2.62305 8.84863 3.69531 7.77637C4.76758 6.68652 6.66602 6.37012 8.82812 6.37012H21.5723C21.5898 6.19434 21.6074 6.01855 21.6602 5.84277C21.5898 5.2627 21.6426 4.71777 21.7832 4.20801H9.07422C6.01562 4.20801 3.74805 4.55957 2.11328 6.19434C0.496094 7.81152 0.144531 10.0615 0.144531 13.1377V26.7783Z" fill="white" fill-opacity="0.2"/>
</svg>
