<svg width="32" height="32" viewBox="0 0 32 32" fill="none" xmlns="http://www.w3.org/2000/svg">
<path d="M11.0898 21.8477C14.4766 25.2344 18.5898 27.8477 21.9531 27.8477C23.4648 27.8477 24.7891 27.3203 25.8555 26.1484C26.4766 25.457 26.8633 24.6484 26.8633 23.8516C26.8633 23.2656 26.6406 22.7031 26.0898 22.3047L22.4922 19.75C21.9414 19.375 21.4844 19.1875 21.0625 19.1875C20.5352 19.1875 20.0547 19.4922 19.5156 20.0195L18.6836 20.8398C18.5547 20.9688 18.3906 21.0273 18.2383 21.0273C18.0625 21.0273 17.8867 20.957 17.7695 20.8984C17.043 20.5117 15.8008 19.4453 14.6406 18.2969C13.4922 17.1484 12.4258 15.9062 12.0508 15.1797C11.9922 15.0508 11.9219 14.8867 11.9219 14.7109C11.9219 14.5586 11.9688 14.4062 12.0977 14.2773L12.9297 13.4219C13.4453 12.8828 13.7617 12.4141 13.7617 11.875C13.7617 11.4531 13.5625 10.9961 13.1758 10.4453L10.6562 6.89453C10.2461 6.33203 9.67188 6.08594 9.03906 6.08594C8.26562 6.08594 7.46875 6.4375 6.77734 7.10547C5.64062 8.19531 5.13672 9.54297 5.13672 11.0312C5.13672 14.3945 7.70312 18.4727 11.0898 21.8477Z" fill="#FCFCFD" fill-opacity="0.6"/>
</svg>
