<svg width="24" height="24" viewBox="0 0 24 24" fill="none" xmlns="http://www.w3.org/2000/svg">
<path d="M6.08203 21.0801H17.9082C20.0176 21.0801 21.1113 19.9863 21.1113 17.9062V6.02148C21.1113 3.93164 20.0176 2.84766 17.9082 2.84766H6.08203C3.97266 2.84766 2.87891 3.93164 2.87891 6.02148V17.9062C2.87891 19.9961 3.97266 21.0801 6.08203 21.0801ZM7.44922 5.63086C7.98633 5.63086 8.38672 5.94336 8.61133 6.36328C8.83594 5.94336 9.24609 5.63086 9.75391 5.63086C10.5645 5.63086 11.1504 6.25586 11.1504 7.10547C11.1504 8.43359 9.72461 9.5957 8.875 10.1133C8.78711 10.1719 8.69922 10.2207 8.62109 10.2207C8.55273 10.2207 8.45508 10.1816 8.36719 10.1133C7.51758 9.53711 6.07227 8.43359 6.07227 7.10547C6.07227 6.25586 6.66797 5.63086 7.44922 5.63086ZM6.7168 14.5859C6.3457 14.5859 6.07227 14.3027 6.07227 13.9414C6.07227 13.5996 6.3457 13.3262 6.7168 13.3262H16.3848C16.7461 13.3262 17.0195 13.5996 17.0195 13.9414C17.0195 14.3027 16.7461 14.5859 16.3848 14.5859H6.7168ZM6.7168 17.9258C6.3457 17.9258 6.07227 17.6621 6.07227 17.3105C6.07227 16.9492 6.3457 16.666 6.7168 16.666H13.9141C14.2754 16.666 14.5488 16.9492 14.5488 17.3105C14.5488 17.6621 14.2754 17.9258 13.9141 17.9258H6.7168Z" fill="#FCFCFD"/>
</svg>
