<svg width="36" height="36" viewBox="0 0 36 36" fill="none" xmlns="http://www.w3.org/2000/svg">
<path d="M6.98828 22.1348C6.75586 22.3535 6.61914 22.668 6.61914 23.0234C6.61914 23.7344 7.15234 24.2676 7.86328 24.2676C8.21875 24.2676 8.54688 24.1445 8.75195 23.9121L18.5 13.959L28.2344 23.9121C28.4531 24.1445 28.7812 24.2676 29.123 24.2676C29.834 24.2676 30.3672 23.7344 30.3672 23.0234C30.3672 22.668 30.2305 22.3535 29.998 22.1348L19.416 11.3066C19.1836 11.0469 18.8418 10.8965 18.5 10.8965C18.1445 10.8965 17.8164 11.0469 17.5703 11.3066L6.98828 22.1348Z" fill="#151516" fill-opacity="0.8"/>
</svg>
