<svg width="24" height="24" viewBox="0 0 24 24" fill="none" xmlns="http://www.w3.org/2000/svg">
<path d="M13.2031 22.5645L22.7637 12.9844C23.5254 12.2227 23.6035 11.7734 23.6035 10.6699V6.95898C23.6035 5.88477 23.3496 5.52344 22.5586 4.73242L20.3223 2.49609C19.5312 1.71484 19.1699 1.45117 18.0957 1.45117H14.3848C13.2812 1.45117 12.8418 1.53906 12.0801 2.30078L2.49023 11.8711C1.04492 13.3164 1.01562 14.8691 2.5 16.3438L8.73047 22.5547C10.2148 24.0391 11.748 24.0293 13.2031 22.5645ZM16.377 9.57617C15.5859 9.57617 14.9805 8.95117 14.9805 8.16992C14.9805 7.38867 15.5859 6.77344 16.377 6.77344C17.1777 6.77344 17.7832 7.38867 17.7832 8.16992C17.7832 8.95117 17.1777 9.57617 16.377 9.57617Z" fill="#5FC09A"/>
</svg>
