<svg width="25" height="24" viewBox="0 0 25 24" fill="none" xmlns="http://www.w3.org/2000/svg">
<path d="M7.77344 21.334H17.2168C18.5254 21.334 19.1699 20.6895 19.1699 19.2734V11.9785C19.1699 10.6992 18.6328 10.0352 17.5586 9.92773V7.51562C17.5586 3.80469 15.0879 2.01758 12.4902 2.01758C9.90234 2.01758 7.43164 3.80469 7.43164 7.51562V9.9668C6.42578 10.123 5.82031 10.7676 5.82031 11.9785V19.2734C5.82031 20.6895 6.46484 21.334 7.77344 21.334ZM9.28711 7.33008C9.28711 5.03516 10.7422 3.79492 12.4902 3.79492C14.2383 3.79492 15.7031 5.03516 15.7031 7.33008V9.91797L9.28711 9.92773V7.33008Z" fill="#FCFCFD"/>
</svg>
