<svg width="32" height="32" viewBox="0 0 32 32" fill="none" xmlns="http://www.w3.org/2000/svg">
<path d="M16.5 28.4922C23.0391 28.4922 28.4531 23.0664 28.4531 16.5391C28.4531 10 23.0273 4.58594 16.4883 4.58594C9.96094 4.58594 4.54688 10 4.54688 16.5391C4.54688 23.0664 9.97266 28.4922 16.5 28.4922ZM16.5 26.5C10.9688 26.5 6.55078 22.0703 6.55078 16.5391C6.55078 11.0078 10.957 6.57812 16.4883 6.57812C22.0195 6.57812 26.4492 11.0078 26.4609 16.5391C26.4727 22.0703 22.0312 26.5 16.5 26.5ZM10.3711 17.8047H16.4883C16.9453 17.8047 17.3086 17.4531 17.3086 16.9844V9.08594C17.3086 8.62891 16.9453 8.27734 16.4883 8.27734C16.0312 8.27734 15.6797 8.62891 15.6797 9.08594V16.1758H10.3711C9.90234 16.1758 9.55078 16.5273 9.55078 16.9844C9.55078 17.4531 9.90234 17.8047 10.3711 17.8047Z" fill="#24262E" fill-opacity="0.49"/>
</svg>
