<svg width="27" height="24" viewBox="0 0 27 24" fill="none" xmlns="http://www.w3.org/2000/svg">
<path d="M5.10742 22.3789C6.29883 22.3789 9.16016 21.1191 10.918 19.8789C11.1035 19.7422 11.2598 19.6934 11.416 19.7031C11.5332 19.7031 11.6504 19.7129 11.7578 19.7129C12.6953 19.7129 13.6035 19.6445 14.4238 19.498V17.623C14.4238 16.4121 15.4102 15.4258 16.6211 15.4258C16.6895 15.4258 16.7676 15.4453 16.8359 15.4648C16.8555 15.377 16.8555 15.3184 16.875 15.2402C17.1387 14.3418 17.9688 13.6973 18.9551 13.6973C19.043 13.6973 19.1211 13.7168 19.1992 13.7363C19.209 13.6582 19.2383 13.5703 19.2578 13.4922C19.5508 12.6719 20.3516 12.0762 21.2793 12.0762C22.1094 12.0762 22.8223 12.5352 23.1641 13.2188C23.2422 13.209 23.3008 13.1992 23.3691 13.209C23.6523 12.3887 23.8086 11.5293 23.8086 10.6211C23.8086 5.58203 18.7793 1.5293 12.5 1.5293C6.2207 1.5293 1.19141 5.58203 1.19141 10.6211C1.19141 13.7656 3.08594 16.5684 6.2793 18.2969C6.46484 18.3945 6.51367 18.541 6.41602 18.7168C5.84961 19.6543 4.90234 20.7188 4.51172 21.2168C4.08203 21.7637 4.32617 22.3789 5.10742 22.3789ZM21.2793 23.1113C21.6016 23.1113 21.8555 22.8574 21.8555 22.5352V14.2832C21.8555 13.9512 21.6016 13.6973 21.2793 13.6973C20.957 13.6973 20.7031 13.9512 20.7031 14.2832V22.5352C20.7031 22.8672 20.9473 23.1113 21.2793 23.1113ZM23.6035 21.998C23.9355 21.998 24.1797 21.7441 24.1797 21.4219V15.377C24.1797 15.0547 23.9258 14.8105 23.6035 14.8105C23.291 14.8105 23.0371 15.0645 23.0371 15.377V21.4219C23.0371 21.7441 23.291 21.998 23.6035 21.998ZM18.9551 21.4902C19.2773 21.4902 19.5312 21.2363 19.5312 20.9043V15.8945C19.5312 15.5723 19.2773 15.3184 18.9551 15.3184C18.6328 15.3184 18.3789 15.5723 18.3789 15.8945V20.9043C18.3789 21.2363 18.6328 21.4902 18.9551 21.4902ZM25.9375 20.2598C26.2695 20.2598 26.5137 20.0156 26.5137 19.6836V17.1152C26.5137 16.793 26.2598 16.5391 25.9375 16.5391C25.6152 16.5391 25.3613 16.8027 25.3613 17.1152V19.6836C25.3613 20.0059 25.6152 20.2598 25.9375 20.2598ZM16.6113 19.752C16.9434 19.752 17.1973 19.498 17.1973 19.1758V17.623C17.1973 17.3008 16.9434 17.0469 16.6113 17.0469C16.2988 17.0469 16.0449 17.3008 16.0449 17.623V19.1758C16.0449 19.498 16.2988 19.752 16.6113 19.752Z" fill="#24262E"/>
</svg>
