<svg width="32" height="32" viewBox="0 0 32 32" fill="none" xmlns="http://www.w3.org/2000/svg">
<path d="M6.14062 17.3828C6.14062 23.1367 10.7578 27.7539 16.5 27.7539C22.2422 27.7539 26.8477 23.1367 26.8477 17.3828C26.8477 11.6406 22.2422 7.03516 16.5 7.03516C15.7734 7.03516 15.082 7.11719 14.4727 7.23438L17.5898 4.15234C17.7656 3.96484 17.8477 3.73047 17.8477 3.48438C17.8477 2.94531 17.4492 2.52344 16.9336 2.52344C16.6406 2.52344 16.4062 2.61719 16.2422 2.80469L11.4141 7.70312C11.2266 7.89062 11.1211 8.14844 11.1211 8.40625C11.1211 8.67578 11.2148 8.91016 11.4141 9.10938L16.2422 13.9609C16.418 14.1367 16.6406 14.2305 16.9219 14.2305C17.4492 14.2305 17.8477 13.832 17.8477 13.293C17.8477 13.0469 17.7656 12.8125 17.5781 12.625L14.0859 9.15625C14.7656 8.99219 15.5977 8.92188 16.5 8.92188C21.1992 8.92188 24.9609 12.6836 24.9609 17.3828C24.9609 22.0938 21.1992 25.8672 16.5 25.8672C11.8008 25.8672 8.02734 22.0938 8.02734 17.3828C8.02734 16.8203 7.67578 16.4102 7.11328 16.4102C6.53906 16.4102 6.14062 16.8203 6.14062 17.3828Z" fill="#24262E" fill-opacity="0.49"/>
</svg>
