<svg width="22" height="38" viewBox="0 0 22 38" fill="none" xmlns="http://www.w3.org/2000/svg">
<path d="M4.86523 37.0635H17.1348C19.9648 37.0635 21.7051 35.376 21.7051 32.6338V5.31738C21.7051 2.5752 19.9648 0.870117 17.1348 0.870117H4.86523C2.03516 0.870117 0.294922 2.5752 0.294922 5.31738V32.6338C0.294922 35.376 2.03516 37.0635 4.86523 37.0635ZM5.11133 34.9014C3.35352 34.9014 2.47461 34.04 2.47461 32.3174V5.61621C2.47461 3.91113 3.35352 3.0498 5.11133 3.0498H6.27148C6.53516 3.0498 6.67578 3.19043 6.67578 3.43652V3.75293C6.67578 4.40332 7.09766 4.86035 7.74805 4.86035H14.2695C14.9199 4.86035 15.3418 4.40332 15.3418 3.75293V3.43652C15.3418 3.19043 15.4824 3.0498 15.7285 3.0498H16.8887C18.6465 3.0498 19.543 3.91113 19.543 5.61621V32.3174C19.543 34.04 18.6465 34.9014 16.8887 34.9014H5.11133ZM7.36133 33.6533H14.6562C15.043 33.6533 15.3418 33.3721 15.3418 32.9678C15.3418 32.5459 15.043 32.2646 14.6562 32.2646H7.36133C6.95703 32.2646 6.67578 32.5459 6.67578 32.9678C6.67578 33.3721 6.95703 33.6533 7.36133 33.6533Z" fill="#3A75EA"/>
<path d="M4.86523 37.0635H17.1348C19.9648 37.0635 21.7051 35.376 21.7051 32.6338V5.31738C21.7051 2.5752 19.9648 0.870117 17.1348 0.870117H4.86523C2.03516 0.870117 0.294922 2.5752 0.294922 5.31738V32.6338C0.294922 35.376 2.03516 37.0635 4.86523 37.0635ZM5.11133 34.9014C3.35352 34.9014 2.47461 34.04 2.47461 32.3174V5.61621C2.47461 3.91113 3.35352 3.0498 5.11133 3.0498H6.27148C6.53516 3.0498 6.67578 3.19043 6.67578 3.43652V3.75293C6.67578 4.40332 7.09766 4.86035 7.74805 4.86035H14.2695C14.9199 4.86035 15.3418 4.40332 15.3418 3.75293V3.43652C15.3418 3.19043 15.4824 3.0498 15.7285 3.0498H16.8887C18.6465 3.0498 19.543 3.91113 19.543 5.61621V32.3174C19.543 34.04 18.6465 34.9014 16.8887 34.9014H5.11133ZM7.36133 33.6533H14.6562C15.043 33.6533 15.3418 33.3721 15.3418 32.9678C15.3418 32.5459 15.043 32.2646 14.6562 32.2646H7.36133C6.95703 32.2646 6.67578 32.5459 6.67578 32.9678C6.67578 33.3721 6.95703 33.6533 7.36133 33.6533Z" fill="white" fill-opacity="0.2"/>
</svg>
