<svg width="32" height="32" viewBox="0 0 32 32" fill="none" xmlns="http://www.w3.org/2000/svg">
<path d="M15.8999 29.874C23.5288 29.874 29.8452 23.5439 29.8452 15.9287C29.8452 8.2998 23.5151 1.9834 15.8862 1.9834C8.271 1.9834 1.95459 8.2998 1.95459 15.9287C1.95459 23.5439 8.28467 29.874 15.8999 29.874ZM15.8999 27.5498C9.44678 27.5498 4.29248 22.3818 4.29248 15.9287C4.29248 9.47559 9.43311 4.30762 15.8862 4.30762C22.3394 4.30762 27.5073 9.47559 27.521 15.9287C27.5347 22.3818 22.353 27.5498 15.8999 27.5498ZM8.85889 21.5068H14.519C14.9565 21.5068 15.2847 21.1787 15.2847 20.6865C15.2847 20.1807 14.9565 19.8936 14.519 19.8936H10.5405V19.7979L13.2339 16.6807C14.2319 15.5049 14.9839 14.5205 14.9839 13.1533C14.9839 11.2529 13.603 10.0361 11.4565 10.0361C9.82959 10.0361 8.38037 11.0752 8.0249 12.4697C7.99756 12.6475 7.95654 12.7979 7.95654 12.9619C7.95654 13.4541 8.24365 13.7822 8.72217 13.7822C9.11865 13.7822 9.32373 13.5498 9.50146 13.1396C9.85693 12.1143 10.5405 11.6084 11.5249 11.6084C12.6187 11.6084 13.3433 12.292 13.3433 13.3037C13.3433 14.1924 12.6187 14.958 11.9761 15.7236L8.3667 19.9619C8.14795 20.1943 8.06592 20.4268 8.06592 20.7002C8.06592 21.1924 8.38037 21.5068 8.85889 21.5068ZM22.312 21.7939C22.8726 21.7939 23.1597 21.4111 23.1597 20.8779V19.2646H23.8979C24.3628 19.2646 24.6636 18.9912 24.6636 18.5127C24.6636 18.0205 24.3628 17.7334 23.8979 17.7334H23.1597V11.335C23.1597 10.542 22.5991 10.0361 21.8062 10.0361C21.0132 10.0361 20.521 10.3369 20.0835 11.0889C18.9351 13.0029 17.5542 15.3545 16.6382 17.0088C16.4194 17.4326 16.3374 17.7334 16.3374 18.1025C16.3374 18.8271 16.8159 19.2646 17.5132 19.2646H21.4917V20.8779C21.4917 21.3975 21.7788 21.7939 22.312 21.7939ZM21.4917 17.7334H18.1284V17.6787C18.9351 16.1338 20.3296 13.7275 21.4233 11.8818H21.4917V17.7334Z" fill="#FCFCFD"/>
</svg>
