<svg width="24" height="24" viewBox="0 0 24 24" fill="none" xmlns="http://www.w3.org/2000/svg">
<path d="M13.9629 11.0801C14.1875 11.0801 14.3828 11.002 14.5586 10.8359L18.5137 6.87109L19.8711 5.39648L19.7051 7.95508V9.36133C19.7051 9.80078 20.0371 10.1426 20.4863 10.1621C20.9453 10.1816 21.3262 9.82031 21.3262 9.37109V3.85352C21.3262 3.22852 20.9941 2.88672 20.3594 2.88672H14.8125C14.3633 2.88672 14.002 3.26758 14.0215 3.72656C14.0312 4.17578 14.373 4.50781 14.8223 4.50781H16.2578L18.8457 4.35156L17.3418 5.69922L13.3867 9.66406C13.2012 9.84961 13.123 10.0547 13.123 10.2988C13.123 10.7383 13.4844 11.0801 13.9629 11.0801ZM7.6543 16.4316C10.5352 19.3125 14.0312 21.5293 16.8828 21.5293C18.1621 21.5293 19.2852 21.0898 20.1836 20.0938C20.7012 19.5078 21.0234 18.834 21.0234 18.1602C21.0234 17.6426 20.8281 17.1445 20.3301 16.793L17.332 14.6641C16.8535 14.332 16.4629 14.1758 16.1113 14.1758C15.6523 14.1758 15.252 14.4297 14.8027 14.8789L14.0898 15.582C13.9824 15.6895 13.8457 15.7285 13.7188 15.7285C13.5625 15.7285 13.416 15.6699 13.3086 15.6211C12.7031 15.2891 11.6484 14.3809 10.6719 13.4141C9.70508 12.4375 8.79688 11.3926 8.47461 10.7773C8.41602 10.6699 8.35742 10.5234 8.35742 10.377C8.35742 10.25 8.39648 10.1133 8.51367 10.0059L9.20703 9.29297C9.65625 8.83398 9.91992 8.43359 9.91992 7.97461C9.91992 7.62305 9.75391 7.23242 9.42188 6.75391L7.3125 3.78516C6.95117 3.28711 6.44336 3.07227 5.88672 3.07227C5.23242 3.07227 4.56836 3.36523 3.98242 3.92188C3.01562 4.83984 2.58594 5.97266 2.58594 7.24219C2.58594 10.0938 4.77344 13.5508 7.6543 16.4316Z" fill="#FCFCFD"/>
</svg>
