<svg width="42" height="35" viewBox="0 0 42 35" fill="none" xmlns="http://www.w3.org/2000/svg">
<path d="M4.32617 28.7881H16.1035V32.6025H15.8926C15.2773 32.6025 14.7852 33.0771 14.7852 33.6924C14.7852 34.3076 15.2773 34.7822 15.8926 34.7822H27.0898C27.6875 34.7822 28.1797 34.3076 28.1797 33.6924C28.1797 33.0771 27.6875 32.6025 27.0898 32.6025H26.8789V28.7881H38.6387C40.7129 28.7881 41.9961 27.5049 41.9961 25.4307V3.65137C41.9961 1.57715 40.7129 0.311523 38.6387 0.311523H4.32617C2.25195 0.311523 0.986328 1.57715 0.986328 3.65137V25.4307C0.986328 27.5049 2.25195 28.7881 4.32617 28.7881ZM3.99219 21.458C3.42969 21.458 3.16602 21.2119 3.16602 20.6318V3.7041C3.16602 2.94824 3.64062 2.49121 4.37891 2.49121H38.5859C39.3418 2.49121 39.8164 2.94824 39.8164 3.7041V20.6318C39.8164 21.2119 39.5527 21.458 38.9727 21.458H3.99219Z" fill="#3A75EA"/>
<path d="M4.32617 28.7881H16.1035V32.6025H15.8926C15.2773 32.6025 14.7852 33.0771 14.7852 33.6924C14.7852 34.3076 15.2773 34.7822 15.8926 34.7822H27.0898C27.6875 34.7822 28.1797 34.3076 28.1797 33.6924C28.1797 33.0771 27.6875 32.6025 27.0898 32.6025H26.8789V28.7881H38.6387C40.7129 28.7881 41.9961 27.5049 41.9961 25.4307V3.65137C41.9961 1.57715 40.7129 0.311523 38.6387 0.311523H4.32617C2.25195 0.311523 0.986328 1.57715 0.986328 3.65137V25.4307C0.986328 27.5049 2.25195 28.7881 4.32617 28.7881ZM3.99219 21.458C3.42969 21.458 3.16602 21.2119 3.16602 20.6318V3.7041C3.16602 2.94824 3.64062 2.49121 4.37891 2.49121H38.5859C39.3418 2.49121 39.8164 2.94824 39.8164 3.7041V20.6318C39.8164 21.2119 39.5527 21.458 38.9727 21.458H3.99219Z" fill="white" fill-opacity="0.2"/>
</svg>
