<svg width="37" height="36" viewBox="0 0 37 36" fill="none" xmlns="http://www.w3.org/2000/svg">
<path d="M18.5 35.6064C28.1504 35.6064 36.1309 27.626 36.1309 17.9756C36.1309 8.30762 28.1504 0.344727 18.4824 0.344727C8.83203 0.344727 0.869141 8.30762 0.869141 17.9756C0.869141 27.626 8.84961 35.6064 18.5 35.6064ZM7.68945 6.56738C9.64062 4.72168 12.0664 3.35059 14.7383 2.68262C13.3672 3.93066 12.1895 5.84668 11.3281 8.27246C9.9043 7.85059 8.67383 7.27051 7.68945 6.56738ZM22.2617 2.68262C24.9512 3.36816 27.3594 4.72168 29.3105 6.56738C28.3086 7.27051 27.0957 7.85059 25.6719 8.27246C24.8105 5.84668 23.6328 3.93066 22.2617 2.68262ZM13.1387 8.72949C14.2285 5.61816 15.8281 3.45605 17.5859 2.87598V9.2041C15.9688 9.15137 14.4922 8.99316 13.1387 8.72949ZM19.4141 2.87598C21.1719 3.45605 22.7715 5.61816 23.8613 8.72949C22.5078 8.99316 21.0312 9.15137 19.4141 9.2041V2.87598ZM2.78516 17.0615C2.97852 13.5811 4.33203 10.3994 6.45898 7.86816C7.58398 8.72949 9.06055 9.43262 10.8008 9.95996C10.2383 12.0518 9.88672 14.4424 9.81641 17.0615H2.78516ZM27.1836 17.0615C27.1133 14.4424 26.7617 12.0518 26.1992 9.95996C27.9395 9.43262 29.416 8.72949 30.541 7.88574C32.668 10.3994 34.0215 13.5811 34.2148 17.0615H27.1836ZM19.4141 17.0615V11.0146C21.1719 10.9619 22.8594 10.7686 24.3887 10.4346C24.916 12.4209 25.2324 14.6709 25.3027 17.0615H19.4141ZM11.6973 17.0615C11.7676 14.6709 12.1016 12.4209 12.6113 10.4346C14.1582 10.7686 15.8281 10.9619 17.5859 11.0146V17.0615H11.6973ZM2.78516 18.8896H9.81641C9.88672 21.5264 10.2383 23.9521 10.8008 26.0615C9.0957 26.5889 7.61914 27.292 6.51172 28.1182C4.34961 25.5869 2.97852 22.3877 2.78516 18.8896ZM11.6973 18.8896H17.5859V25.0244C15.8457 25.0596 14.1758 25.2705 12.6465 25.5869C12.1016 23.583 11.75 21.2803 11.6973 18.8896ZM19.4141 25.0244V18.8896H25.3203C25.25 21.2803 24.8984 23.583 24.3535 25.5869C22.8242 25.2705 21.1719 25.0596 19.4141 25.0244ZM26.1992 26.0615C26.7617 23.9521 27.1133 21.5264 27.1836 18.8896H34.2148C34.0215 22.3877 32.6504 25.5869 30.4883 28.1182C29.3809 27.292 27.9043 26.5889 26.1992 26.0615ZM19.4141 26.835C21.0137 26.8877 22.4902 27.0459 23.8262 27.3096C22.7363 30.3506 21.1543 32.5303 19.4141 33.1104V26.835ZM13.1738 27.3096C14.5273 27.0459 15.9863 26.8877 17.5859 26.835V33.1104C15.8457 32.5303 14.2637 30.3506 13.1738 27.3096ZM25.6719 27.7666C27.0605 28.1885 28.2734 28.751 29.2578 29.4189C27.3242 31.2295 24.9512 32.583 22.332 33.251C23.668 32.0029 24.8105 30.1221 25.6719 27.7666ZM7.74219 29.4189C8.72656 28.751 9.93945 28.1885 11.3457 27.7666C12.1895 30.1221 13.332 32.0029 14.668 33.251C12.0488 32.583 9.67578 31.2295 7.74219 29.4189Z" fill="#FCFCFD"/>
</svg>
