<svg width="100" height="28" viewBox="0 0 100 28" fill="none" xmlns="http://www.w3.org/2000/svg">
<path d="M23.4342 6.97659C22.4656 6.05436 21.061 5.75446 19.8002 6.20061C19.4436 6.31977 19.1839 6.62887 19.1281 7.00059L18.8481 8.92462C18.4235 11.8307 15.937 13.9889 13.0001 14.0006H9.00002C8.54102 14.0007 8.14108 14.3133 8.02998 14.7586L5.02997 26.7586C4.89629 27.2945 5.22235 27.8372 5.75822 27.9709C5.83726 27.9906 5.91844 28.0007 5.99991 28.0007H10.9999C11.4589 28.0006 11.8588 27.688 11.9699 27.2427L13.78 20.0007H17.68C20.6738 20.0106 23.2855 17.97 24 15.0626L24.738 12.1046C25.2575 10.2851 24.7595 8.32697 23.4342 6.97659Z" fill="#03A9F4"/>
<path d="M20.1322 1.72998C19.1714 0.629442 17.7812 -0.00140391 16.3202 2.34607e-06H5.00019C4.51653 2.34607e-06 4.10225 0.346128 4.01619 0.822005L0.0161507 22.822C-0.0821933 23.3655 0.278745 23.8857 0.822215 23.984C0.880902 23.9946 0.940528 24 1.00015 24H7.00016C7.45917 23.9999 7.8591 23.6873 7.9702 23.242L9.7822 16H13.0002C16.9337 15.9845 20.2638 13.0926 20.8302 9.2L21.3302 5.78196C21.5363 4.32161 21.0993 2.84354 20.1322 1.72998Z" fill="#283593"/>
<path d="M42.8124 20H45.08V15.8076H47.8749C50.4501 15.8076 52.1903 14.1025 52.1903 11.5713V11.5537C52.1903 9.01367 50.4501 7.31738 47.8749 7.31738H42.8124V20ZM47.3212 9.17188C48.9472 9.17188 49.8964 10.042 49.8964 11.5625V11.5801C49.8964 13.1006 48.9472 13.9795 47.3212 13.9795H45.08V9.17188H47.3212ZM56.6443 20.1582C57.9099 20.1582 58.9294 19.6133 59.4568 18.6816H59.6062V20H61.7683V13.4346C61.7683 11.4043 60.3796 10.209 57.9099 10.209C55.6247 10.209 54.0779 11.2812 53.8669 12.8984L53.8581 12.9775H55.9236L55.9324 12.9424C56.1521 12.3096 56.8025 11.9492 57.8044 11.9492C58.9822 11.9492 59.6062 12.4766 59.6062 13.4346V14.2607L57.1365 14.4102C54.7986 14.5508 53.489 15.5527 53.489 17.2666V17.2842C53.489 19.0332 54.8162 20.1582 56.6443 20.1582ZM55.6511 17.1787V17.1611C55.6511 16.3701 56.2224 15.9219 57.4441 15.8428L59.6062 15.7021V16.4756C59.6062 17.6182 58.6306 18.4795 57.3122 18.4795C56.3454 18.4795 55.6511 17.9961 55.6511 17.1787ZM65.0357 23.375C67.1627 23.375 68.2613 22.6104 69.0875 20.2021L72.5328 10.3936H70.2301L67.9976 17.8994H67.8306L65.5894 10.3936H63.1988L66.6353 20.0088L66.5211 20.4482C66.2838 21.3184 65.7476 21.6875 64.8512 21.6875C64.6226 21.6875 64.3765 21.6787 64.2008 21.6611V23.3398C64.4644 23.3662 64.7721 23.375 65.0357 23.375ZM74.3237 23.1904H76.5121V18.4707H76.6615C77.1625 19.5078 78.2612 20.1582 79.5795 20.1582C82.0141 20.1582 83.5258 18.2686 83.5258 15.21V15.1924C83.5258 12.1514 81.9877 10.2354 79.5795 10.2354C78.2348 10.2354 77.1889 10.8506 76.6615 11.8965H76.5121V10.3936H74.3237V23.1904ZM78.894 18.3125C77.4086 18.3125 76.4858 17.126 76.4858 15.2012V15.1836C76.4858 13.2588 77.4086 12.0811 78.894 12.0811C80.3881 12.0811 81.2934 13.2588 81.2934 15.1924V15.21C81.2934 17.1348 80.3881 18.3125 78.894 18.3125ZM88.261 20.1582C89.5266 20.1582 90.5462 19.6133 91.0735 18.6816H91.2229V20H93.385V13.4346C93.385 11.4043 91.9963 10.209 89.5266 10.209C87.2415 10.209 85.6946 11.2812 85.4837 12.8984L85.4749 12.9775H87.5403L87.5491 12.9424C87.7688 12.3096 88.4192 11.9492 89.4212 11.9492C90.5989 11.9492 91.2229 12.4766 91.2229 13.4346V14.2607L88.7532 14.4102C86.4153 14.5508 85.1057 15.5527 85.1057 17.2666V17.2842C85.1057 19.0332 86.4329 20.1582 88.261 20.1582ZM87.2678 17.1787V17.1611C87.2678 16.3701 87.8391 15.9219 89.0608 15.8428L91.2229 15.7021V16.4756C91.2229 17.6182 90.2473 18.4795 88.929 18.4795C87.9622 18.4795 87.2678 17.9961 87.2678 17.1787ZM96.0108 20H98.1993V6.67578H96.0108V20Z" fill="#24262E"/>
</svg>
