<svg width="51" height="48" viewBox="0 0 51 48" fill="none" xmlns="http://www.w3.org/2000/svg">
<path d="M38.2109 7.973C37.1038 6.919 35.4986 6.57623 34.0575 7.08614C33.6501 7.22233 33.3533 7.57559 33.2895 8.00043L32.9695 10.1994C32.4842 13.5207 29.6424 15.9873 26.2858 16.0007H21.7142C21.1896 16.0008 20.7325 16.3581 20.6055 16.867L17.1768 30.5817C17.024 31.1942 17.3967 31.8145 18.0091 31.9673C18.0995 31.9898 18.1923 32.0012 18.2854 32.0012H23.9998C24.5244 32.0011 24.9815 31.6439 25.1085 31.1349L27.1771 22.8581H31.6344C35.056 22.8695 38.0409 20.5373 38.8575 17.2145L39.7009 13.8338C40.2947 11.7543 39.7256 9.51633 38.2109 7.973Z" fill="#03A9F4"/>
<path d="M1.14261 45.7149C0.511409 45.7148 -0.000214225 45.203 6.72925e-08 44.5718C6.72925e-08 44.4787 0.0114647 44.3859 0.0339654 44.2956L1.17689 39.7469V39.6989L2.31982 35.1524C2.44679 34.6435 2.90388 34.2862 3.42847 34.2861H6.33599C7.91404 34.2858 9.19347 35.5647 9.1939 37.1428C9.1939 37.3765 9.16529 37.6093 9.10872 37.836L8.82296 38.9789C8.50506 40.2513 7.36181 41.1438 6.05034 41.1436H3.17924L2.2535 44.8489C2.12632 45.3584 1.66795 45.7159 1.14261 45.7149ZM3.75066 38.8575H6.05012C6.31231 38.8568 6.54032 38.6778 6.60332 38.4233L6.88908 37.2803C6.9674 36.9759 6.78397 36.6656 6.47956 36.5874C6.43263 36.5753 6.38442 36.5693 6.33588 36.5695H4.32207L3.75066 38.8575Z" fill="#283593"/>
<path d="M13.3646 45.7162H11.7372C9.98751 45.7166 8.56879 44.2985 8.56836 42.5488C8.56825 42.2896 8.60007 42.0314 8.66286 41.7801L8.81372 41.172C9.15198 39.8074 10.3793 38.851 11.7852 38.8565H13.4126C15.1623 38.8595 16.5783 40.2803 16.5753 42.03C16.5748 42.2879 16.5429 42.5448 16.4802 42.7948L16.3294 43.4029C15.9908 44.7642 14.7673 45.7187 13.3646 45.7162ZM10.8823 42.3355C10.7649 42.8084 11.0531 43.287 11.526 43.4044C11.5951 43.4215 11.666 43.4302 11.7372 43.4304H13.3646C13.7171 43.4314 14.0246 43.1918 14.1098 42.8498L14.2607 42.2417C14.3781 41.7688 14.0899 41.2903 13.617 41.1729C13.5479 41.1557 13.477 41.147 13.4058 41.1468H11.7783C11.4259 41.1459 11.1184 41.3854 11.0331 41.7274L10.8823 42.3355Z" fill="#283593"/>
<path d="M14.8574 45.7159C14.2263 45.7157 13.7147 45.2039 13.7148 44.5727C13.7148 44.4796 13.7263 44.3868 13.7488 44.2965L14.8917 39.7248C15.0445 39.1119 15.6651 38.7389 16.2781 38.8917C16.891 39.0444 17.2641 39.665 17.1113 40.278L15.9683 44.8496C15.8412 45.3595 15.3828 45.7169 14.8574 45.7159Z" fill="#283593"/>
<path d="M28.5721 45.715C27.9409 45.7148 27.4293 45.203 27.4294 44.5718C27.4294 44.4787 27.4409 44.3859 27.4634 44.2956L28.6063 39.7469V39.6989L29.7493 35.1524C29.8762 34.6435 30.3333 34.2862 30.8579 34.2861H33.7654C35.3435 34.2858 36.6229 35.5647 36.6233 37.1428C36.6233 37.3765 36.5947 37.6093 36.5382 37.836L36.2524 38.9789C35.9345 40.2513 34.7912 41.1438 33.4798 41.1436H30.6088L29.6831 44.8489C29.5558 45.3586 29.0974 45.716 28.5721 45.715ZM31.1801 38.8577H33.4819C33.7441 38.8569 33.9721 38.6779 34.0351 38.4234L34.3209 37.2805C34.3991 36.976 34.2158 36.6658 33.9114 36.5875C33.8644 36.5754 33.8161 36.5694 33.7677 36.5696H31.7516L31.1801 38.8577Z" fill="#03A9F4"/>
<path d="M40.7941 45.7162H39.1667C37.417 45.7166 35.9982 44.2986 35.9978 42.5488C35.9977 42.2897 36.0295 42.0314 36.0923 41.7801L36.2432 41.172C36.5814 39.8074 37.8088 38.851 39.2147 38.8565H40.8421C42.5918 38.856 44.0105 40.2741 44.011 42.0238C44.0111 42.283 43.9793 42.5412 43.9165 42.7926L43.7656 43.4007C43.4273 44.7653 42.2 45.7217 40.7941 45.7162ZM38.3117 42.3355C38.1943 42.8085 38.4825 43.287 38.9555 43.4044C39.0246 43.4216 39.0954 43.4302 39.1667 43.4304H40.7941C41.1465 43.4314 41.454 43.1918 41.5393 42.8498L41.6902 42.2418C41.8076 41.7688 41.5194 41.2903 41.0464 41.1729C40.9773 41.1557 40.9065 41.147 40.8353 41.1468H39.2078C38.8554 41.1459 38.5479 41.3854 38.4626 41.7275L38.3117 42.3355Z" fill="#03A9F4"/>
<path d="M42.2869 45.7159C41.6557 45.7157 41.1442 45.2039 41.1443 44.5727C41.1443 44.4796 41.1558 44.3868 41.1783 44.2965L42.3212 39.7248C42.474 39.1119 43.0946 38.7389 43.7075 38.8917C44.3204 39.0444 44.6935 39.665 44.5407 40.278L43.3978 44.8496C43.2706 45.3595 42.8122 45.7169 42.2869 45.7159Z" fill="#03A9F4"/>
<path d="M21.7149 44.5723C21.3326 44.5721 20.9758 44.3809 20.7639 44.0626L18.4782 40.634C18.1278 40.1088 18.2696 39.3991 18.7948 39.0487C19.32 38.6984 20.0297 38.8401 20.38 39.3654L22.6658 42.794C23.0167 43.3187 22.8759 44.0285 22.3513 44.3795C22.1629 44.5054 21.9414 44.5724 21.7149 44.5723Z" fill="#283593"/>
<path d="M19.4289 48C18.7977 47.9998 18.2862 47.4878 18.2864 46.8566C18.2865 46.5895 18.3801 46.3308 18.5511 46.1256L24.2656 39.2682C24.6702 38.7834 25.3912 38.7184 25.8759 39.123C26.3606 39.5276 26.4257 40.2485 26.0211 40.7333L20.3066 47.5907C20.0892 47.8505 19.7677 48.0004 19.4289 48Z" fill="#283593"/>
<path d="M46.8584 45.7152C46.2272 45.715 45.7157 45.2031 45.7158 44.5719C45.7158 44.4788 45.7273 44.386 45.7498 44.2957L48.0355 35.1526C48.1883 34.5397 48.8089 34.1666 49.4219 34.3194C50.0348 34.4722 50.4079 35.0928 50.2551 35.7058L47.9693 44.8489C47.8422 45.3587 47.3839 45.7161 46.8584 45.7152Z" fill="#03A9F4"/>
<path d="M34.4374 1.97718C33.3393 0.719384 31.7505 -0.00160451 30.0807 2.6813e-06H17.1431C16.5904 2.6813e-06 16.1169 0.395587 16.0185 0.939462L11.4469 26.0831C11.3345 26.7042 11.747 27.2988 12.3682 27.4112C12.4352 27.4233 12.5034 27.4294 12.5715 27.4294H19.4289C19.9535 27.4293 20.4106 27.072 20.5375 26.5631L22.6085 18.2862H26.2863C30.7819 18.2686 34.5877 14.9634 35.2351 10.5146L35.8065 6.60815C36.0421 4.93913 35.5427 3.24986 34.4374 1.97718Z" fill="#283593"/>
</svg>
